<svg clip-rule="evenodd" fill-rule="evenodd" height="218" image-rendering="optimizeQuality" shape-rendering="geometricPrecision" text-rendering="geometricPrecision" viewBox="0 0 602 218.45" width="602" xmlns="http://www.w3.org/2000/svg"><g fill-rule="nonzero"><path d="m81.22 202.48-4.99-1.36c-1.65-.46-2.81-1.12-3.46-1.97-.66-.85-.99-2.05-.99-3.6 0-2.04.58-3.44 1.74-4.22 1.16-.77 3.16-1.16 6-1.16 3.1.05 5.89.28 8.4.7l-.35 3.25c-3.2-.11-5.61-.16-7.24-.16-1.7 0-2.8.09-3.29.26-.49.16-.73.62-.73 1.37 0 .18.02.35.06.5.03.16.07.29.09.39.03.1.1.2.22.29.11.09.2.16.25.21s.18.12.38.2c.21.07.35.12.43.15s.26.08.54.15c.29.08.49.13.62.16l5.11 1.39c1.62.47 2.78 1.09 3.48 1.88s1.05 1.98 1.05 3.58c0 2.22-.64 3.71-1.9 4.47s-3.46 1.14-6.58 1.14c-2.84 0-5.48-.21-7.93-.62l.31-3.29c1.34.11 3.49.16 6.46.16 2.04 0 3.4-.12 4.08-.35.69-.23 1.03-.72 1.03-1.47 0-.16-.01-.3-.04-.43s-.06-.24-.12-.35c-.05-.1-.1-.19-.15-.27-.05-.07-.14-.15-.27-.23s-.23-.13-.31-.17-.21-.09-.41-.16c-.19-.06-.33-.11-.42-.13-.09-.03-.27-.08-.53-.16-.25-.08-.43-.13-.54-.15zm30.44-11.77v18.96h-3.72l-.35-2.55c-2.68 2.04-5.32 3.06-7.93 3.06-3.51 0-5.26-1.76-5.26-5.27v-14.2h4.72v12.81c-.03 1.01.13 1.7.46 2.09.34.39.96.58 1.86.58 1.29 0 3.13-.69 5.53-2.09v-13.39zm27.41 11.46h-7.74c.18 1.65.65 2.75 1.4 3.31.74.55 1.97.83 3.67.83 1.94 0 4.21-.16 6.81-.47l.43 3.02c-1.78.85-4.39 1.28-7.82 1.28s-5.87-.76-7.31-2.28c-1.45-1.53-2.17-4.09-2.17-7.7 0-3.69.71-6.28 2.13-7.76 1.42-1.49 3.77-2.23 7.04-2.23 3.02 0 5.21.55 6.58 1.64 1.37 1.1 2.05 2.75 2.05 4.94 0 3.61-1.69 5.42-5.07 5.42zm-7.81-3.29h6.5c1.13 0 1.7-.74 1.7-2.21 0-1.03-.27-1.75-.81-2.17-.54-.41-1.53-.61-2.94-.61-1.66 0-2.8.34-3.43 1.02s-.97 2.01-1.02 3.97zm22.85-8.17.31 2.79c2.94-2.22 5.67-3.33 8.2-3.33 1.68 0 2.97.45 3.87 1.36.9.9 1.35 2.2 1.35 3.9v14.24h-4.72v-12.8c0-1.06-.14-1.78-.42-2.15-.29-.38-.82-.56-1.59-.56-.88 0-1.77.18-2.69.54s-2.1.95-3.54 1.78v13.19h-4.72v-18.96zm25.4-8.12v21.16c-.03.75.15 1.31.52 1.67.38.36.95.54 1.72.54h1.63l.54 3.48c-.88.44-2.22.66-4.02.66-1.58 0-2.82-.45-3.74-1.35-.91-.91-1.37-2.18-1.37-3.84v-22.32zm9.5 11.84-.47-3.33c3.33-.62 6.49-.93 9.48-.93 2.45 0 4.25.49 5.4 1.47s1.72 2.7 1.72 5.15v12.88h-3.71l-.5-2.9c-1.99 2.22-4.4 3.33-7.24 3.33-1.78 0-3.23-.48-4.33-1.45-1.11-.97-1.67-2.32-1.67-4.05v-1.93c0-1.52.49-2.7 1.47-3.52.98-.83 2.36-1.24 4.14-1.24h7.12v-1.16c-.02-1.08-.27-1.81-.73-2.17-.47-.36-1.38-.54-2.75-.54-1.99 0-4.63.13-7.93.39zm3.36 8.82v.74c0 1.54.83 2.32 2.48 2.32 1.88 0 3.74-.75 5.57-2.25v-2.94h-6.03c-.75.03-1.27.22-1.57.58s-.45.88-.45 1.55zm34.58 2.63.42 3.1c-1.88.77-4.2 1.16-6.96 1.16-3.38 0-5.77-.75-7.16-2.25-1.39-1.49-2.09-4.07-2.09-7.73 0-3.67.7-6.25 2.11-7.75 1.4-1.49 3.8-2.24 7.18-2.24 2.65 0 4.86.36 6.61 1.08l-.54 2.94c-1.26-.05-3.02-.07-5.26-.07-1.96 0-3.32.42-4.06 1.28-.75.85-1.13 2.43-1.13 4.76 0 2.34.38 3.95 1.13 4.81.74.87 2.1 1.3 4.06 1.3 2.06 0 3.96-.13 5.69-.39zm17.66-3.71h-7.74c.18 1.65.65 2.75 1.39 3.31.75.55 1.98.83 3.68.83 1.94 0 4.21-.16 6.81-.47l.43 3.02c-1.78.85-4.39 1.28-7.82 1.28s-5.87-.76-7.31-2.28c-1.45-1.53-2.17-4.09-2.17-7.7 0-3.69.71-6.28 2.13-7.76 1.42-1.49 3.76-2.23 7.04-2.23 3.02 0 5.21.55 6.58 1.64 1.37 1.1 2.05 2.75 2.05 4.94 0 3.61-1.69 5.42-5.07 5.42zm-7.82-3.29h6.51c1.13 0 1.7-.74 1.7-2.21 0-1.03-.27-1.75-.81-2.17-.55-.41-1.53-.61-2.95-.61-1.65 0-2.79.34-3.42 1.02s-.97 2.01-1.03 3.97z" fill="#373435"/><path d="m278.86 206.97.35 2.2c-1.86.65-4.01.97-6.46.97-3.25 0-5.55-.74-6.91-2.23-1.35-1.48-2.03-4.04-2.03-7.68s.68-6.19 2.03-7.66c1.36-1.47 3.67-2.21 6.95-2.21 2.47 0 4.5.3 6.07.89l-.42 2.13c-1.71-.15-3.41-.23-5.11-.23-2.27 0-3.85.5-4.72 1.51-.88 1.01-1.32 2.86-1.32 5.57 0 2.74.44 4.61 1.32 5.61.87 1.01 2.45 1.51 4.72 1.51 2.06 0 3.91-.13 5.53-.38zm14.25-16.61c3.25 0 5.54.75 6.87 2.25 1.32 1.5 1.99 4.05 1.99 7.66s-.67 6.17-1.99 7.66c-1.33 1.5-3.62 2.25-6.87 2.25-3.23 0-5.51-.75-6.85-2.25-1.34-1.49-2.01-4.05-2.01-7.66s.67-6.16 2.01-7.66 3.62-2.25 6.85-2.25zm4.27 4.3c-.78-1.01-2.21-1.51-4.27-1.51-2.07 0-3.48.5-4.26 1.51-.77 1.01-1.16 2.88-1.16 5.61 0 2.74.39 4.61 1.16 5.61.78 1.01 2.19 1.51 4.26 1.51 2.06 0 3.49-.5 4.27-1.51.79-1 1.18-2.87 1.18-5.61 0-2.73-.39-4.6-1.18-5.61zm14.31-3.83.23 2.98c3.04-2.3 5.86-3.45 8.43-3.45 3.41 0 5.11 1.73 5.11 5.19v14.12h-3.29v-13.19c0-1.24-.2-2.1-.62-2.59-.41-.49-1.11-.74-2.09-.74-1.03 0-2.07.23-3.11.7-1.04.46-2.43 1.22-4.16 2.28v13.54h-3.29v-18.84zm33.44-8.24v21.9c-.03.82.18 1.45.61 1.88.44.42 1.09.63 1.94.63h1.82l.39 2.52c-.7.34-1.85.5-3.45.5-1.42 0-2.54-.42-3.37-1.26-.82-.83-1.23-2.01-1.23-3.54v-22.63zm10.06 11.06-.31-2.43c3.46-.57 6.49-.86 9.09-.86 2.2 0 3.82.46 4.88 1.38 1.06.91 1.59 2.47 1.59 4.66v13.27h-2.6l-.38-3.09c-.91.9-2.03 1.7-3.39 2.4-1.35.69-2.82 1.04-4.39 1.04-1.73 0-3.1-.46-4.12-1.37-1.02-.92-1.53-2.21-1.53-3.89v-2.05c0-1.47.46-2.61 1.37-3.43.92-.81 2.2-1.22 3.85-1.22h7.86v-1.66c0-1.19-.27-2.02-.81-2.51-.55-.49-1.55-.74-3.02-.74-1.86 0-4.56.17-8.09.5zm2.21 9.52v1.2c0 .98.23 1.7.69 2.15.47.45 1.21.68 2.25.68.98.02 2.09-.21 3.34-.7 1.26-.49 2.4-1.2 3.43-2.13v-3.79h-7.28c-.87.03-1.5.26-1.87.7-.38.44-.56 1.07-.56 1.89zm41.14-12.81-.39 3.1h-1.09c-.95 0-1.94.19-2.96.56-1.01.37-2.38.99-4.08 1.84v13.81h-3.29v-18.84h2.56l.34 2.98c2.92-2.3 5.6-3.45 8.05-3.45zm5.61 3.29-.31-2.43c3.46-.57 6.49-.86 9.09-.86 2.2 0 3.82.46 4.88 1.38 1.06.91 1.59 2.47 1.59 4.66v13.27h-2.6l-.38-3.09c-.91.9-2.03 1.7-3.39 2.4-1.35.69-2.82 1.04-4.39 1.04-1.73 0-3.1-.46-4.12-1.37-1.02-.92-1.53-2.21-1.53-3.89v-2.05c0-1.47.46-2.61 1.37-3.43.92-.81 2.2-1.22 3.85-1.22h7.86v-1.66c0-1.19-.27-2.02-.81-2.51-.55-.49-1.55-.74-3.02-.74-1.86 0-4.56.17-8.09.5zm2.21 9.52v1.2c0 .98.23 1.7.69 2.15.47.45 1.21.68 2.25.68.98.02 2.09-.21 3.34-.7 1.26-.49 2.4-1.2 3.43-2.13v-3.79h-7.28c-.87.03-1.5.26-1.87.7-.38.44-.56 1.07-.56 1.89zm36.8-20.58v27.08h-2.55l-.31-2.7c-2.4 2.11-4.89 3.17-7.47 3.17-2.32 0-4.01-.82-5.05-2.46-1.05-1.64-1.57-4.13-1.57-7.49 0-3.58.57-6.12 1.7-7.6 1.14-1.48 2.94-2.23 5.42-2.23 2.45 0 4.68.58 6.7 1.75-.11-1.14-.16-2.38-.16-3.72v-5.8zm-3.29 22.09v-10.41c-2.48-.69-4.4-1.04-5.76-1.04-1.68 0-2.85.47-3.53 1.43-.67.95-1 2.79-1 5.5 0 2.7.33 4.57.98 5.59.66 1.02 1.78 1.53 3.35 1.53.98 0 1.87-.19 2.67-.57.8-.37 1.9-1.05 3.29-2.03zm12.16-21.86h1.54c.68 0 1.01.33 1.01 1v2.21c0 .67-.33 1.01-1.01 1.01h-1.54c-.67 0-1.01-.34-1.01-1.01v-2.21c0-.67.34-1 1.01-1zm2.4 26.85h-3.26v-18.84h3.26zm8.09-16.02-.31-2.43c3.45-.57 6.49-.86 9.09-.86 2.19 0 3.82.46 4.88 1.38 1.06.91 1.58 2.47 1.58 4.66v13.27h-2.59l-.39-3.09c-.9.9-2.03 1.7-3.38 2.4-1.36.69-2.82 1.04-4.39 1.04-1.73 0-3.11-.46-4.13-1.37-1.01-.92-1.52-2.21-1.52-3.89v-2.05c0-1.47.45-2.61 1.37-3.43.92-.81 2.2-1.22 3.85-1.22h7.86v-1.66c0-1.19-.27-2.02-.82-2.51-.54-.49-1.54-.74-3.01-.74-1.86 0-4.56.17-8.09.5zm2.2 9.52v1.2c0 .98.24 1.7.7 2.15s1.21.68 2.24.68c.98.02 2.1-.21 3.35-.7s2.39-1.2 3.43-2.13v-3.79h-7.28c-.88.03-1.5.26-1.88.7-.37.44-.56 1.07-.56 1.89zm34.83 3.8.35 2.2c-1.85.65-4.01.97-6.46.97-3.25 0-5.55-.74-6.91-2.23-1.35-1.48-2.03-4.04-2.03-7.68s.68-6.19 2.03-7.66c1.36-1.47 3.67-2.21 6.95-2.21 2.48 0 4.5.3 6.07.89l-.42 2.13c-1.7-.15-3.41-.23-5.11-.23-2.27 0-3.84.5-4.72 1.51s-1.32 2.86-1.32 5.57c0 2.74.44 4.61 1.32 5.61.88 1.01 2.45 1.51 4.72 1.51 2.06 0 3.91-.13 5.53-.38zm7.59-24.15h1.55c.67 0 1.01.33 1.01 1v2.21c0 .67-.34 1.01-1.01 1.01h-1.55c-.67 0-1-.34-1-1.01v-2.21c0-.67.33-1 1-1zm2.4 26.85h-3.25v-18.84h3.25zm21.95-25.88-7.43 4.68-1.12-1.51 6.65-5.69zm-6 6.57c3.25 0 5.54.75 6.87 2.25s1.99 4.05 1.99 7.66-.66 6.17-1.99 7.66c-1.33 1.5-3.62 2.25-6.87 2.25-3.23 0-5.51-.75-6.85-2.25-1.34-1.49-2.01-4.05-2.01-7.66s.67-6.16 2.01-7.66 3.62-2.25 6.85-2.25zm4.28 4.3c-.79-1.01-2.22-1.51-4.28-1.51s-3.48.5-4.26 1.51c-.77 1.01-1.16 2.88-1.16 5.61 0 2.74.39 4.61 1.16 5.61.78 1.01 2.2 1.51 4.26 1.51s3.49-.5 4.28-1.51c.78-1 1.18-2.87 1.18-5.61 0-2.73-.4-4.6-1.18-5.61zm14.3-3.83.23 2.98c3.04-2.3 5.86-3.45 8.44-3.45 3.4 0 5.1 1.73 5.1 5.19v14.12h-3.28v-13.19c0-1.24-.21-2.1-.62-2.59-.42-.49-1.11-.74-2.09-.74-1.04 0-2.07.23-3.12.7-1.04.46-2.43 1.22-4.16 2.28v13.54h-3.29v-18.84z" fill="#848688"/><path d="m37.62 214.9 14.72-14.72-14.72-14.71 3.56-3.56 18.27 18.27-18.27 18.27z" fill="#fc0"/><path d="m534.91 118.79c-.47 0-.88-.17-1.23-.53-.35-.35-.52-.76-.52-1.22v-45.6c0-.52.16-.95.49-1.3.32-.36.75-.53 1.26-.53h7.93c1.08 0 1.87.44 2.38 1.33l16.56 26.21v-25.71c0-.52.17-.95.49-1.3.33-.36.75-.53 1.27-.53h8.91c.51 0 .93.17 1.26.53.33.35.49.78.49 1.3v45.52c0 .52-.16.95-.49 1.3-.33.36-.75.53-1.26.53h-7.93c-1.08 0-1.87-.44-2.38-1.33l-16.49-25.16v24.74c0 .51-.18.93-.53 1.26s-.78.49-1.3.49z" fill="#727376"/><path d="m498.7 63.56c-.74 0-1.12-.38-1.12-1.13 0-.37.12-.68.35-.91l6.25-7.66c.47-.56.87-.93 1.23-1.09.35-.16.8-.25 1.36-.25h10.25c.42 0 .75.13.98.39s.35.6.35 1.02c0 .33-.12.61-.35.84l-9.4 7.73c-.47.38-.89.65-1.26.81-.38.16-.85.25-1.41.25z" fill="#727376"/><path d="m503.34 119.49c-6.65 0-11.89-1.61-15.72-4.84-3.84-3.24-5.87-7.99-6.11-14.27-.04-1.31-.07-3.32-.07-6.04s.03-4.75.07-6.11c.19-6.18 2.24-10.95 6.14-14.3 3.91-3.35 9.14-5.02 15.69-5.02 6.5 0 11.7 1.67 15.61 5.02 3.9 3.35 5.95 8.12 6.14 14.3.09 2.72.14 4.75.14 6.11 0 1.41-.05 3.42-.14 6.04-.24 6.28-2.26 11.03-6.07 14.27-3.81 3.23-9.04 4.84-15.68 4.84zm0-10.54c2.43 0 4.37-.73 5.82-2.21 1.45-1.47 2.22-3.73 2.32-6.78.09-2.72.14-4.66.14-5.83s-.05-3.07-.14-5.69c-.1-3.05-.87-5.31-2.32-6.78-1.45-1.48-3.39-2.21-5.82-2.21-2.48 0-4.45.73-5.9 2.21-1.45 1.47-2.22 3.73-2.31 6.78-.05 1.31-.07 3.21-.07 5.69 0 2.53.02 4.47.07 5.83.09 3.05.86 5.31 2.31 6.78 1.45 1.48 3.42 2.21 5.9 2.21z" fill="#727376"/><path d="m461.66 118.79c-.47 0-.88-.17-1.23-.53-.35-.35-.53-.76-.53-1.22v-45.67c0-.52.18-.94.53-1.27s.76-.49 1.23-.49h10.03c.52 0 .94.16 1.26.49.33.33.49.75.49 1.27v45.67c0 .46-.16.87-.49 1.22-.32.36-.74.53-1.26.53z" fill="#727376"/><path d="m430.71 119.49c-6.68 0-11.94-1.61-15.75-4.84-3.81-3.24-5.83-7.97-6.07-14.2-.04-1.26-.07-3.32-.07-6.18 0-2.9.03-5.01.07-6.32.24-6.09 2.28-10.79 6.14-14.09s9.09-4.95 15.68-4.95c4.17 0 7.9.68 11.19 2.03 3.3 1.36 5.91 3.33 7.83 5.91 1.92 2.57 2.92 5.62 3.02 9.13 0 .42-.16.77-.46 1.05s-.67.42-1.09.42h-9.96c-.66 0-1.14-.12-1.44-.38s-.57-.74-.81-1.44c-.65-2.3-1.65-3.9-2.98-4.81-1.33-.92-3.1-1.37-5.3-1.37-5.28 0-8.02 2.95-8.21 8.85-.04 1.26-.07 3.21-.07 5.83s.03 4.61.07 5.97c.19 5.9 2.93 8.85 8.21 8.85 2.16 0 3.92-.46 5.3-1.4s2.38-2.53 2.98-4.78c.19-.7.45-1.18.78-1.44.32-.26.81-.38 1.47-.38h9.96c.42 0 .79.14 1.09.42s.46.63.46 1.05c-.1 3.51-1.1 6.56-3.02 9.13-1.92 2.58-4.53 4.55-7.83 5.91-3.29 1.36-7.02 2.03-11.19 2.03z" fill="#727376"/><path d="m358.16 118.79c-.37 0-.71-.15-1.01-.46-.31-.3-.46-.64-.46-1.01 0-.28.02-.5.07-.64l16.35-45.03c.47-1.36 1.4-2.04 2.8-2.04h10.95c1.4 0 2.34.68 2.81 2.04l16.35 45.03c.04.14.07.36.07.64 0 .37-.16.71-.46 1.01-.3.31-.64.46-1.02.46h-9.12c-1.12 0-1.92-.51-2.38-1.54l-2.53-6.82h-18.39l-2.52 6.82c-.47 1.03-1.26 1.54-2.39 1.54zm16.98-18.9h12.49l-6.24-17.91z" fill="#727376"/><path d="m339.57 118.79c-.47 0-.88-.17-1.23-.53-.35-.35-.53-.76-.53-1.22v-45.67c0-.52.18-.94.53-1.27s.76-.49 1.23-.49h10.03c.52 0 .94.16 1.26.49.33.33.5.75.5 1.27v45.67c0 .46-.17.87-.5 1.22-.32.36-.74.53-1.26.53z" fill="#727376"/><path d="m289.12 118.79c-.47 0-.88-.17-1.23-.53-.35-.35-.53-.76-.53-1.22v-45.6c0-.52.17-.95.5-1.3.32-.36.74-.53 1.26-.53h18.45c6.93 0 12.31 1.65 16.14 4.95 3.84 3.3 5.85 8.05 6.04 14.23.04 1.36.06 3.16.06 5.41s-.02 4.03-.06 5.34c-.47 12.83-7.75 19.25-21.83 19.25zm18.45-10.54c2.95 0 5.12-.7 6.53-2.11 1.4-1.4 2.15-3.65 2.24-6.74.1-1.36.14-3.12.14-5.27s-.04-3.89-.14-5.2c-.09-3-.9-5.21-2.42-6.64s-3.75-2.14-6.7-2.14h-6.66v28.1z" fill="#727376"/><path d="m234.11 118.79c-.38 0-.72-.15-1.02-.46-.3-.3-.45-.64-.45-1.01 0-.28.02-.5.07-.64l16.34-45.03c.47-1.36 1.41-2.04 2.81-2.04h10.95c1.4 0 2.34.68 2.8 2.04l16.35 45.03c.05.14.07.36.07.64 0 .37-.15.71-.45 1.01-.31.31-.65.46-1.02.46h-9.12c-1.13 0-1.92-.51-2.39-1.54l-2.53-6.82h-18.38l-2.52 6.82c-.47 1.03-1.27 1.54-2.39 1.54zm16.98-18.9h12.49l-6.25-17.91z" fill="#727376"/><path d="m189.83 118.79c-.46 0-.87-.17-1.22-.53-.36-.35-.53-.76-.53-1.22v-45.6c0-.52.16-.95.49-1.3.33-.36.75-.53 1.26-.53h19.3c6.17 0 11 1.4 14.49 4.22 3.48 2.81 5.23 6.76 5.23 11.87 0 3.28-.76 6.07-2.28 8.36-1.52 2.3-3.62 4.08-6.28 5.34l9.47 17.14c.14.28.21.54.21.78 0 .37-.14.71-.42 1.01-.28.31-.63.46-1.05.46h-9.9c-1.35 0-2.31-.63-2.87-1.9l-7.72-15.24h-6.74v15.39c0 .51-.17.93-.53 1.26-.35.33-.78.49-1.29.49zm19.23-27.47c2.01 0 3.54-.5 4.59-1.51 1.06-1.01 1.58-2.4 1.58-4.18s-.52-3.21-1.58-4.29c-1.05-1.07-2.58-1.61-4.59-1.61h-7.79v11.59z" fill="#727376"/><path d="m59.35 79.2h19.81c8.18 0 15.61 3.34 20.99 8.72 5.37 5.38 8.71 12.8 8.71 20.98s-3.34 15.61-8.71 20.99c-5.38 5.37-12.81 8.71-20.99 8.71h-9.88-38.51-1.07c-8.18 0-15.6-3.34-20.98-8.71-5.38-5.38-8.72-12.81-8.72-20.99v-79.2c0-8.18 3.34-15.6 8.72-20.98s12.8-8.72 20.98-8.72h23.06 16.52 29.7 11.6 28.02c8.18 0 15.61 3.34 20.99 8.72 5.37 5.38 8.71 12.8 8.71 20.98v31.43 44.99 2.81.08c-.03 8.14-3.36 15.52-8.71 20.88-5.38 5.37-12.81 8.71-20.99 8.71-8.17 0-15.6-3.34-20.98-8.71-5.38-5.38-8.72-12.81-8.72-20.99v-5.95-4.24-9.61c0-9.99 7.39-18.24 17.01-19.6 1.42-.19 2.79.91 2.79 2.45v26.76 10.19c0 2.71 1.12 5.19 2.92 6.99 1.8 1.79 4.27 2.91 6.98 2.91s5.19-1.12 6.99-2.91c1.79-1.8 2.9-4.26 2.91-6.96v-2.81-17-59.42c0-2.71-1.11-5.18-2.91-6.98s-4.28-2.92-6.99-2.92h-28.02-11.6-29.7-16.52-23.06c-2.71 0-5.18 1.12-6.98 2.92s-2.92 4.27-2.92 6.98v79.2c0 2.71 1.12 5.19 2.92 6.99 1.8 1.79 4.27 2.91 6.98 2.91h1.07 38.51 9.88c2.71 0 5.19-1.12 6.99-2.91 1.8-1.8 2.91-4.28 2.91-6.99s-1.11-5.18-2.91-6.98-4.28-2.92-6.99-2.92h-12.59-7.19-.03-.08c-8.13-.03-15.52-3.36-20.87-8.72-5.38-5.37-8.72-12.8-8.72-20.98s3.34-15.6 8.72-20.98 12.8-8.72 20.98-8.72h24.66c5.45 0 9.9 4.46 9.9 9.9 0 5.45-4.45 9.9-9.9 9.9h-24.66c-2.71 0-5.18 1.12-6.98 2.92s-2.92 4.27-2.92 6.98 1.12 5.19 2.92 6.99c1.79 1.79 4.25 2.9 6.95 2.91z" fill="#373435"/></g><path d="m115.45 50.97-7.7 13.35c6.87 3.96 15.34 3.96 22.21 0l-7.7-13.35c-1 .58-2.16.91-3.4.91s-2.4-.33-3.41-.91z" fill="#fc0"/><path d="m118.86 40.29c2.64 0 4.78 2.15 4.78 4.79s-2.14 4.79-4.78 4.79c-2.65 0-4.79-2.15-4.79-4.79s2.14-4.79 4.79-4.79z" fill="#fc0"/><path d="m122.43 38.75 7.45-12.9c6.87 3.96 11.1 11.3 11.1 19.23h-14.86c0-2.71-1.49-5.08-3.69-6.33z" fill="#fc0"/><path d="m115.16 38.83-7.49-12.98c-6.87 3.96-11.11 11.3-11.11 19.23h15.03c0-2.66 1.44-4.99 3.57-6.25z" fill="#fc0"/><path d="m586.41 51.09h-3.13v6.2h-2.81v-16.16h5.69c1.86 0 3.3.42 4.31 1.26 1.02.84 1.52 2.05 1.52 3.63 0 1.09-.26 1.99-.78 2.72-.52.74-1.25 1.3-2.18 1.69l3.63 6.72v.14h-3.01zm-3.13-2.27h2.88c.95 0 1.69-.24 2.22-.72.54-.48.8-1.13.8-1.95 0-.87-.24-1.54-.74-2.01-.48-.48-1.22-.72-2.2-.73h-2.96z" fill="#373435" fill-rule="nonzero"/><path d="m585.76 32.97c4.48 0 8.54 1.82 11.48 4.76s4.76 7 4.76 11.48c0 4.49-1.82 8.55-4.76 11.49s-7 4.75-11.48 4.75-8.54-1.81-11.48-4.75-4.76-7-4.76-11.49c0-4.48 1.82-8.54 4.76-11.48s7-4.76 11.48-4.76zm9.94 6.3c-2.54-2.54-6.06-4.12-9.94-4.12s-7.4 1.58-9.94 4.12c-2.55 2.55-4.12 6.06-4.12 9.94 0 3.89 1.57 7.4 4.12 9.95 2.54 2.54 6.06 4.11 9.94 4.11s7.4-1.57 9.94-4.11c2.55-2.55 4.12-6.06 4.12-9.95 0-3.88-1.57-7.39-4.12-9.94z" fill="#373435" fill-rule="nonzero"/></svg>