<svg width="111" height="121" viewBox="0 0 111 121" fill="none" xmlns="http://www.w3.org/2000/svg">
<path fill-rule="evenodd" clip-rule="evenodd" d="M46.286 63.2531L36.3604 80.4337C45.2135 85.5437 56.1275 85.5437 64.9806 80.4337L55.055 63.2531C53.7722 63.9891 52.2582 64.4307 50.66 64.4307C49.0828 64.4307 47.5687 63.9891 46.286 63.2531Z" fill="#FFCC00"/>
<path fill-rule="evenodd" clip-rule="evenodd" d="M50.6605 49.5002C54.0671 49.5002 56.843 52.255 56.843 55.6617C56.843 59.0684 54.0671 61.8231 50.6605 61.8231C47.2748 61.8231 44.499 59.0684 44.499 55.6617C44.499 52.255 47.2748 49.5002 50.6605 49.5002Z" fill="#FFCC00"/>
<path fill-rule="evenodd" clip-rule="evenodd" d="M55.2656 47.5025L64.8758 30.8897C73.7079 35.9997 79.1754 45.4417 79.1754 55.6617H60.0182C60.0182 52.1709 58.1045 49.1217 55.2656 47.5025Z" fill="#FFCC00"/>
<path fill-rule="evenodd" clip-rule="evenodd" d="M45.9079 47.6076L36.2557 30.8897C27.4025 35.9997 21.9561 45.4417 21.9561 55.6617H41.3026C41.3026 52.234 43.1531 49.2268 45.9079 47.6076Z" fill="#FFCC00"/>
<path d="M74.9909 98.5185C73.6871 97.425 73.603 95.4693 74.7175 94.1865C75.811 92.8827 77.7246 92.7356 79.0284 93.8291C80.7107 95.238 82.372 96.6469 84.0543 98.0769C87.44 94.2496 90.8466 90.4224 94.2323 86.6162C95.3679 85.3334 97.3025 85.2282 98.5642 86.3638C99.826 87.4783 99.9522 89.413 98.8166 90.6957C95.0524 94.9225 91.2672 99.1494 87.5031 103.376C86.5357 104.596 83.9912 105.942 81.2785 103.755C79.0284 101.841 77.262 100.432 74.9909 98.5185Z" fill="#FFCC00"/>
<path d="M2.94609 19.2818C7.13083 18.756 11.2735 18.02 15.3531 17.0106C19.4117 16.0223 23.4282 14.7816 27.3816 13.2675C31.335 11.7534 35.2254 9.98699 39.0316 7.94719C42.8378 5.90739 46.581 3.57319 50.261 0.965612L51.5438 0.0613708L52.8265 0.965612C56.5066 3.57319 60.2708 5.90739 64.077 7.94719C67.8832 9.98699 71.7735 11.7534 75.727 13.2675C79.6804 14.7816 83.6969 16.0223 87.7555 17.0106C91.814 18.02 95.9567 18.756 100.162 19.2818L101.95 19.5131L102.139 61.2553C102.139 63.211 102.076 65.0826 101.95 66.8701C101.887 67.6902 101.824 68.4893 101.74 69.2673C101.277 73.1367 97.2605 72.4006 97.6601 68.4893C97.7442 67.6902 97.8283 66.8701 97.8703 66.0499C97.9755 64.5148 98.0386 62.9166 98.0175 61.2764L97.8703 23.13C93.8959 22.5833 89.9845 21.8262 86.1363 20.8589C82.1197 19.8495 78.1453 18.6088 74.2549 17.1158C70.3015 15.6017 66.3901 13.8353 62.5419 11.7955C58.8198 9.81876 55.1607 7.58971 51.5438 5.08727C47.9478 7.58971 44.2678 9.81876 40.5457 11.7955C36.7184 13.8353 32.8071 15.6017 28.8326 17.1158C24.9423 18.6088 20.9888 19.8495 16.9513 20.8589C13.103 21.8262 9.21268 22.5833 5.23823 23.13L5.07001 61.2764C5.00692 76.27 9.48606 86.1535 17.0564 93.9132C24.6689 101.715 35.4357 107.414 47.8637 113.996L51.5438 115.951L60.46 111.22C61.5325 110.652 62.5839 110.021 63.6564 109.496C66.7056 107.918 68.493 111.535 65.9906 112.902C63.1517 114.479 60.2077 116.014 57.2005 117.613C55.3079 118.601 53.4364 119.61 51.5438 120.62C49.6932 119.631 47.8217 118.643 45.9501 117.634C32.9753 110.778 21.7459 104.827 13.7129 96.4997C5.6588 88.1723 0.906284 77.4896 0.96937 61.2553L1.1376 19.5131L2.94609 19.2818Z" fill="#FFCC00"/>
<path d="M8.70832 24.4549C16.1315 23.5506 23.3444 21.8052 30.347 19.1346C37.3496 16.4639 44.0999 12.868 50.6188 8.2416L51.5441 7.58971L52.4904 8.2416C58.9883 12.868 65.7596 16.4639 72.7622 19.1346C79.7438 21.8052 86.9777 23.5506 94.4009 24.4549L95.6837 24.6231L95.8519 61.1502C95.8519 64.1784 95.7468 66.4285 95.3893 69.036C94.8215 71.1599 91.9195 70.4239 92.4663 68.4472C92.7817 66.0499 92.8868 63.926 92.8868 61.1712L92.7396 27.2517C85.5268 26.2633 78.5241 24.5179 71.7108 21.9104C64.7713 19.2607 58.042 15.7279 51.5441 11.2067C45.0672 15.7279 38.338 19.2607 31.3985 21.9104C24.5851 24.5179 17.5615 26.2633 10.3696 27.2517L10.2224 61.1712C10.1173 87.8358 26.2043 96.3525 48.1585 107.981L51.5441 109.79L54.9508 107.981C57.7476 106.488 60.4604 105.058 63.0469 103.628C65.2129 102.388 65.9278 105.395 64.2245 106.383C61.701 107.771 59.0514 109.159 56.3387 110.61L52.3222 112.734L51.5441 113.155L50.766 112.734H50.7871L46.7706 110.61C23.9122 98.4975 7.15218 89.6233 7.25733 61.1502L7.40453 24.6231L8.70832 24.4549Z" fill="#FFCC00"/>
<path d="M87.713 72.0642C90.7622 72.0642 93.6852 72.674 96.3559 73.7886C99.1107 74.9241 101.613 76.6064 103.695 78.6883C107.775 82.7889 110.319 88.4457 110.319 94.6912C110.319 97.7404 109.709 100.663 108.595 103.334C107.459 106.11 105.777 108.591 103.695 110.673C101.613 112.755 99.1107 114.437 96.3559 115.594C93.6852 116.687 90.7622 117.297 87.713 117.297C84.6428 117.297 81.7198 116.687 79.0491 115.594C76.2943 114.437 73.7919 112.755 71.71 110.673C69.6282 108.591 67.9459 106.11 66.8103 103.334C65.6958 100.663 65.0859 97.7404 65.0859 94.6912C65.0859 91.621 65.6958 88.698 66.8103 86.0274C67.9459 83.2726 69.6282 80.7701 71.71 78.6883C73.7919 76.6064 76.2943 74.9241 79.0491 73.7886C81.7198 72.674 84.6428 72.0642 87.713 72.0642ZM100.52 81.8636C98.8583 80.1813 96.8605 78.8355 94.6315 77.9102C92.5076 77.048 90.1524 76.5433 87.713 76.5433C85.2526 76.5433 82.8974 77.048 80.7735 77.9102C78.5444 78.8355 76.5467 80.1813 74.8854 81.8636C73.2031 83.5249 71.8572 85.5227 70.953 87.7517C70.0487 89.8756 69.5651 92.2309 69.5651 94.6912C69.5651 97.1516 70.0487 99.4858 70.953 101.631C71.8572 103.839 73.2031 105.837 74.8854 107.519C76.5467 109.18 78.5444 110.526 80.7735 111.451C82.8974 112.334 85.2526 112.818 87.713 112.818C90.1524 112.818 92.5076 112.334 94.6315 111.451C96.8605 110.526 98.8583 109.18 100.52 107.519C102.202 105.837 103.548 103.839 104.473 101.631C105.356 99.4858 105.84 97.1516 105.84 94.6912C105.84 92.2309 105.356 89.8756 104.473 87.7517C103.548 85.5227 102.202 83.5249 100.52 81.8636Z" fill="#FFCC00"/>
</svg>
