<?xml version="1.0" encoding="UTF-8" standalone="no"?>
<!-- Created with Inkscape (http://www.inkscape.org/) -->

<svg
   width="90"
   height="50"
   viewBox="0 0 32.590889 43.050369"
   version="1.1"
   id="svg1"
   inkscape:export-filename="tickets.svg"
   inkscape:export-xdpi="300"
   inkscape:export-ydpi="300"
   inkscape:version="1.3 (0e150ed6c4, 2023-07-21)"
   sodipodi:docname="RecursosWebimg.svg"
   xml:space="preserve"
   xmlns:inkscape="http://www.inkscape.org/namespaces/inkscape"
   xmlns:sodipodi="http://sodipodi.sourceforge.net/DTD/sodipodi-0.dtd"
   xmlns="http://www.w3.org/2000/svg"
   xmlns:svg="http://www.w3.org/2000/svg"><sodipodi:namedview
     id="namedview1"
     pagecolor="#ffffff"
     bordercolor="#000000"
     borderopacity="0.25"
     inkscape:showpageshadow="2"
     inkscape:pageopacity="0.0"
     inkscape:pagecheckerboard="0"
     inkscape:deskcolor="#d1d1d1"
     inkscape:document-units="mm"
     inkscape:zoom="2.6333614"
     inkscape:cx="265.25034"
     inkscape:cy="153.60596"
     inkscape:window-width="1920"
     inkscape:window-height="974"
     inkscape:window-x="2149"
     inkscape:window-y="-11"
     inkscape:window-maximized="1"
     inkscape:current-layer="layer1" /><defs
     id="defs1" /><g
     inkscape:label="Capa 1"
     inkscape:groupmode="layer"
     id="layer1"
     transform="translate(-77.914522,-121.90573)"><path
       style="fill:#ffcc00;stroke-width:0.18812"
       d="m 83.478901,164.9051 c -0.502877,-0.11626 -1.204458,-0.517 -1.535123,-0.87684 -0.437322,-0.47589 -0.684356,-0.97531 -0.797857,-1.61293 -0.144132,-0.80974 -0.171333,-1.03637 -0.22105,-1.84163 -0.02705,-0.43801 -0.07292,-1.00915 -0.101948,-1.26922 -0.02903,-0.26007 -0.0724,-0.74162 -0.09638,-1.07012 -0.02397,-0.32852 -0.06724,-0.86607 -0.09611,-1.19457 -0.02888,-0.32851 -0.07669,-0.92206 -0.106244,-1.319 -0.02955,-0.39694 -0.06384,-0.81132 -0.0762,-0.92081 -0.01235,-0.1095 -0.04313,-0.48397 -0.06839,-0.83215 -0.02527,-0.34819 -0.05774,-0.65216 -0.07216,-0.6755 -0.01442,-0.0233 -0.05025,-0.43278 -0.0796,-0.90991 -0.02936,-0.47712 -0.07719,-1.06907 -0.106282,-1.31545 -0.02909,-0.24638 -0.08253,-0.82872 -0.118738,-1.29412 -0.03622,-0.46538 -0.100007,-1.20451 -0.141757,-1.64252 -0.04175,-0.43801 -0.101341,-1.08755 -0.132421,-1.44343 -0.03108,-0.35588 -0.08859,-0.99423 -0.127785,-1.41855 -0.0392,-0.42432 -0.104443,-1.20824 -0.144978,-1.74206 -0.04054,-0.53383 -0.09525,-1.11618 -0.121587,-1.29412 -0.02633,-0.17794 -0.06158,-0.59144 -0.07832,-0.91888 -0.01674,-0.32745 -0.06236,-0.8538 -0.101385,-1.16967 -0.03902,-0.31588 -0.09325,-0.92621 -0.120505,-1.35629 -0.02727,-0.43009 -0.07154,-0.92284 -0.09841,-1.09502 -0.02687,-0.17219 -0.07439,-0.69383 -0.105598,-1.1592 -0.03121,-0.46539 -0.0662,-0.86147 -0.07776,-0.8802 -0.01156,-0.0188 -0.0424,-0.3771 -0.06855,-0.79638 -0.02613,-0.41928 -0.07011,-0.9527 -0.0977,-1.1854 -0.08919,-0.75223 -0.208043,-2.0479 -0.25339,-2.76243 -0.02434,-0.38325 -0.07743,-0.9432 -0.118029,-1.24434 -0.04059,-0.30112 -0.0886,-0.85861 -0.106667,-1.23885 -0.01807,-0.38025 -0.05256,-0.76004 -0.07664,-0.84399 -0.05692,-0.1985 -0.120257,-1.04282 -0.11667,-1.55557 0.0048,-0.68207 0.256574,-1.16328 0.790854,-1.51137 0.365565,-0.23819 0.742869,-0.32482 1.719888,-0.39494 1.108938,-0.0795 2.484965,-0.19779 2.961522,-0.25441 0.246379,-0.0292 0.82873,-0.0733 1.29411,-0.098 0.465384,-0.0246 1.170923,-0.0795 1.567867,-0.12207 0.780213,-0.0836 2.169573,-0.20894 3.085955,-0.27845 0.744021,-0.0565 2.328568,-0.19089 2.961524,-0.25128 0.273754,-0.0262 0.856104,-0.0797 1.294112,-0.11916 0.438004,-0.0395 1.020357,-0.0966 1.294108,-0.12706 0.273754,-0.0304 0.811309,-0.0756 1.194564,-0.10018 0.383256,-0.0247 0.920811,-0.0691 1.194563,-0.0988 0.273754,-0.0297 0.766513,-0.0731 1.095024,-0.0966 0.328494,-0.0234 1.179623,-0.10074 1.891382,-0.1718 0.71177,-0.0711 1.57409,-0.15037 1.91628,-0.17626 0.67022,-0.0506 1.88195,-0.16485 2.89603,-0.27283 0.34724,-0.0369 0.7504,-0.0562 0.89593,-0.0427 0.54033,0.05 1.18636,0.55498 1.39243,1.08834 0.0522,0.1352 0.11694,0.49092 0.14419,0.79276 0.0272,0.30112 0.0709,0.74908 0.0973,0.99546 0.0263,0.24638 0.0699,0.85156 0.0969,1.34483 0.0269,0.49328 0.0703,0.96364 0.0962,1.04524 0.0261,0.0816 0.0583,0.45414 0.0717,0.82786 0.0145,0.40249 0.0499,0.72701 0.0869,0.79606 0.0405,0.0757 0.066,0.3786 0.0727,0.86349 0.005,0.41082 0.0349,0.99331 0.0651,1.29444 0.0301,0.30112 0.0888,0.99546 0.13028,1.54297 0.0415,0.54751 0.10807,1.35383 0.1479,1.79185 0.0399,0.438 0.0964,1.09874 0.12572,1.46832 0.0293,0.36956 0.075,0.92952 0.10152,1.24433 0.0265,0.31481 0.0937,1.14355 0.14928,1.84162 0.0556,0.69808 0.12254,1.49321 0.14881,1.76696 0.0263,0.27375 0.0714,0.86731 0.10035,1.319 0.029,0.45169 0.0736,0.95565 0.0994,1.1199 0.0257,0.16425 0.0948,0.97059 0.15349,1.79185 0.17439,2.44002 0.1848,2.57012 0.24105,3.0113 0.0297,0.23268 0.0878,0.89342 0.12919,1.46832 0.0414,0.57488 0.0969,1.23562 0.12344,1.46831 0.0864,0.75859 0.20125,2.09842 0.24956,2.91175 0.0261,0.438 0.0693,0.95316 0.0961,1.14479 0.0269,0.19162 0.0731,0.65092 0.10288,1.02066 0.0298,0.36973 0.0748,0.7617 0.10017,0.87104 0.0254,0.10934 0.0467,0.36947 0.0473,0.57809 5.5e-4,0.20864 0.0399,0.84698 0.0872,1.41856 0.11191,1.353 0.10809,1.70914 -0.0224,2.08447 -0.31927,0.91862 -0.6074,1.30726 -1.3197,1.77999 -0.54202,0.35971 -1.02321,0.44442 -3.47236,0.6112 -0.41189,0.028 -1.81002,0.14484 -2.66288,0.22242 -0.30113,0.0274 -0.87227,0.0721 -1.26923,0.0993 -0.7586,0.0521 -2.104665,0.16617 -2.9864,0.25321 -0.287441,0.0285 -0.880996,0.0717 -1.319005,0.0963 -0.438001,0.0246 -0.997952,0.0683 -1.244334,0.097 -0.246379,0.0288 -0.884723,0.0849 -1.418543,0.1247 -0.533823,0.0398 -1.160966,0.0955 -1.393657,0.12374 -0.232691,0.0282 -0.803843,0.0744 -1.269224,0.10268 -0.465381,0.0282 -0.991736,0.0717 -1.169678,0.0965 -0.177941,0.0248 -0.558708,0.0589 -0.846147,0.0757 -0.287443,0.0167 -0.746604,0.0513 -1.020358,0.0766 -0.273755,0.0254 -0.786043,0.0681 -1.138418,0.0948 -0.352375,0.0268 -0.856335,0.072 -1.119905,0.10049 -1.674478,0.18093 -2.846378,0.22666 -3.274111,0.12776 z m 2.172723,-0.82491 c 0.28744,-0.0275 0.864395,-0.0829 1.282122,-0.12323 0.417725,-0.0403 0.921682,-0.0743 1.119902,-0.0755 0.198223,-8.8e-4 0.52839,-0.0235 0.733707,-0.0497 0.205314,-0.0262 0.686872,-0.0694 1.07013,-0.0962 0.383255,-0.0268 0.943206,-0.0713 1.244337,-0.0988 0.301129,-0.0276 0.861082,-0.0736 1.244337,-0.10229 0.383256,-0.0287 0.999202,-0.0843 1.36877,-0.12374 0.36957,-0.0394 0.951916,-0.0845 1.29411,-0.10024 0.643226,-0.0296 1.065057,-0.0648 1.194563,-0.0997 0.04106,-0.0111 0.487265,-0.0441 0.991559,-0.0733 0.504293,-0.0292 1.198635,-0.0846 1.542982,-0.12278 0.34434,-0.0382 0.97324,-0.0836 1.397567,-0.10069 0.42432,-0.0172 0.89468,-0.0523 1.04525,-0.0783 0.15056,-0.0259 0.59852,-0.0689 0.99546,-0.0955 0.39695,-0.0266 1.0129,-0.0721 1.36877,-0.10103 2.08633,-0.16983 3.09342,-0.24754 3.54367,-0.27347 1.2038,-0.0693 2.01771,-0.55112 2.47761,-1.46668 0.21149,-0.42099 0.23778,-0.65908 0.17615,-1.59454 -0.0784,-1.18992 -0.13874,-1.94898 -0.17012,-2.14026 -0.0298,-0.18167 -0.0792,-0.73868 -0.2032,-2.28958 -0.0405,-0.50645 -0.0957,-1.1672 -0.1228,-1.46832 -0.11076,-1.23216 -0.15426,-1.70228 -0.17502,-1.89139 -0.0256,-0.23341 -0.11669,-1.40042 -0.14566,-1.8665 -0.0111,-0.17795 -0.0677,-0.82749 -0.12603,-1.44344 -0.14112,-1.49227 -0.23017,-2.54451 -0.34965,-4.1312 -0.0546,-0.72544 -0.12272,-1.47579 -0.15135,-1.66741 -0.0286,-0.19163 -0.0736,-0.66199 -0.10001,-1.04524 -0.0602,-0.87331 -0.18495,-2.4163 -0.25367,-3.13574 -0.0288,-0.30112 -0.0828,-0.99546 -0.12005,-1.54297 -0.0373,-0.54751 -0.0911,-1.24185 -0.11965,-1.54298 -0.11365,-1.19901 -0.15471,-1.67159 -0.20327,-2.33936 -0.0676,-0.92928 -0.23362,-2.8973 -0.30444,-3.60857 -0.0314,-0.31481 -0.0708,-0.83487 -0.0878,-1.15567 -0.023,-0.43579 -0.0508,-0.60322 -0.1099,-0.66215 -0.07,-0.0698 -0.16166,-0.0727 -0.79922,-0.0251 -0.39607,0.0296 -0.89803,0.0762 -1.11547,0.10346 -0.21744,0.0273 -0.63052,0.07 -0.91796,0.0948 -1.03963,0.0897 -2.27504,0.20268 -2.76243,0.25254 -0.27375,0.028 -0.9009,0.0837 -1.39366,0.12364 -0.492757,0.04 -0.963118,0.0855 -1.045241,0.10112 -0.08209,0.0156 -0.574882,0.0598 -1.095024,0.0981 -1.260463,0.0929 -2.572011,0.20511 -3.484138,0.29814 -1.190774,0.12146 -2.425891,0.22517 -3.285049,0.27586 -0.438008,0.0258 -0.919568,0.069 -1.07013,0.0958 -0.250481,0.0447 -0.965036,0.11549 -1.717187,0.17014 -0.778596,0.0565 -2.290484,0.18176 -2.737543,0.22669 -0.273752,0.0275 -0.788908,0.0742 -1.14479,0.10358 -0.35588,0.0294 -0.983025,0.0856 -1.393657,0.1248 -0.945877,0.0903 -1.954045,0.17788 -2.339354,0.20328 -0.164254,0.0108 -0.565581,0.0456 -0.891844,0.0774 -0.690106,0.0672 -0.791539,0.12281 -0.729031,0.39995 0.0209,0.0926 0.02848,0.29054 0.01688,0.43981 -0.0116,0.14924 0.0025,0.43935 0.03146,0.64467 0.02892,0.20532 0.09658,0.96686 0.150372,1.6923 0.05378,0.72545 0.121173,1.47579 0.149751,1.66741 0.02858,0.19163 0.07711,0.67319 0.10786,1.07014 0.03074,0.39694 0.062,0.80011 0.06946,0.89591 0.0074,0.0958 0.03833,0.49899 0.06862,0.89592 0.05115,0.6704 0.09039,1.10209 0.133493,1.46833 0.01633,0.1387 0.06099,0.66572 0.246757,2.91174 0.03963,0.47907 0.08377,0.92704 0.09811,0.99547 0.01434,0.0684 0.06062,0.56121 0.10285,1.09503 0.04223,0.53381 0.09846,1.16096 0.124949,1.39366 0.02648,0.23268 0.06907,0.75903 0.09463,1.16967 0.02554,0.41063 0.08118,1.08257 0.123624,1.4932 0.173106,1.67495 0.282927,2.95119 0.396182,4.60405 0.04033,0.58857 0.09662,1.19332 0.125099,1.34389 0.02848,0.15056 0.07322,0.56493 0.09943,0.92081 0.02621,0.35587 0.05821,0.70304 0.07111,0.77148 0.01289,0.0684 0.04904,0.494 0.08031,0.94569 0.10353,1.4957 0.220046,2.92911 0.396495,4.87782 0.06797,0.75066 0.170927,1.18745 0.346693,1.47081 0.08404,0.13551 0.173434,0.2925 0.198645,0.34888 0.02522,0.0564 0.176561,0.2201 0.336329,0.36381 0.649954,0.58458 1.190704,0.67488 3.004224,0.50172 z m 15.337706,-4.37477 c -0.55049,-0.13862 -1.283708,-0.79881 -1.633772,-1.47106 -0.317317,-0.60938 -0.657613,-1.6947 -0.788126,-2.51357 -0.03981,-0.24937 -0.310386,-0.83933 -0.55887,-1.21831 -0.08934,-0.13626 -0.162433,-0.26595 -0.162433,-0.28823 0,-0.0223 -0.04148,-0.10116 -0.09215,-0.17534 -0.08737,-0.12793 -0.444466,-0.74848 -0.679014,-1.18009 -0.232655,-0.42813 -0.394043,-0.70513 -0.522015,-0.89593 -0.07344,-0.1095 -0.205716,-0.34468 -0.293941,-0.52262 -0.08823,-0.17794 -0.220782,-0.42691 -0.294565,-0.55328 -0.07377,-0.12636 -0.252959,-0.43992 -0.398173,-0.69683 -0.798692,-1.41294 -1.233215,-2.08361 -1.403552,-2.16631 -0.06834,-0.0332 -0.325848,-0.13291 -0.572227,-0.22163 -0.246378,-0.0887 -0.547826,-0.20504 -0.669883,-0.25853 -0.276241,-0.12105 -0.751711,-0.28153 -0.838955,-0.28318 -0.03598,-8.2e-4 -0.192761,-0.0598 -0.348414,-0.13148 -0.155655,-0.0717 -0.540585,-0.21598 -0.855405,-0.32077 -0.314818,-0.10478 -0.796375,-0.28383 -1.070129,-0.39787 -0.273755,-0.11406 -0.643321,-0.2584 -0.821263,-0.32075 -0.177938,-0.0624 -0.51391,-0.18439 -0.746601,-0.27121 -1.085653,-0.40513 -1.826316,-0.65371 -2.015828,-0.67655 -0.08212,-0.01 -0.541286,-0.0419 -1.020355,-0.0711 -1.15628,-0.0705 -1.798956,-0.21835 -2.41648,-0.55614 -0.631844,-0.34563 -1.030299,-0.73935 -1.099768,-1.08668 -0.01681,-0.0839 -0.05004,-0.1647 -0.07388,-0.17944 -0.02383,-0.0148 -0.04334,-0.18816 -0.04334,-0.38541 0,-0.34595 0.112311,-0.78067 0.242328,-0.93797 0.03015,-0.0365 0.110628,-0.13612 0.178847,-0.22144 0.199693,-0.24978 0.513044,-0.35118 1.208239,-0.39101 0.596392,-0.0342 0.619165,-0.0315 1.095017,0.12493 0.267278,0.0879 0.507236,0.17946 0.533246,0.20343 0.02602,0.024 0.08759,0.0435 0.136876,0.0435 0.04927,0 0.0896,0.0169 0.0896,0.0377 0,0.0207 0.06159,0.0649 0.136877,0.0982 0.336935,0.1492 1.262435,0.78099 1.66497,1.13659 0.240022,0.21203 0.627062,0.42317 0.935696,0.51045 0.09581,0.0271 0.330993,0.11029 0.522622,0.18487 0.191626,0.0746 0.482803,0.17891 0.647056,0.23183 0.164251,0.0528 0.377034,0.13636 0.472846,0.1854 0.09582,0.0491 0.241402,0.10512 0.32353,0.12462 0.08212,0.0196 0.451692,0.15511 0.82126,0.30137 1.345432,0.53248 1.80563,0.67211 1.870296,0.56749 0.06823,-0.11041 -0.296739,-0.84512 -0.849957,-1.71107 -0.139914,-0.21899 -0.267147,-0.43177 -0.282743,-0.47283 -0.01558,-0.0411 -0.20473,-0.37054 -0.420302,-0.73214 -0.215574,-0.3616 -0.558144,-0.94216 -0.761266,-1.29012 -0.207873,-0.3561 -0.455793,-0.71055 -0.567143,-0.81084 -0.793762,-0.715 -1.875746,-1.93611 -1.875746,-2.11695 0,-0.0187 -0.0538,-0.10525 -0.119541,-0.1924 -0.394047,-0.52229 -0.552879,-1.49648 -0.349213,-2.14191 0.07133,-0.22605 0.145361,-0.33925 0.331052,-0.50619 0.616827,-0.55458 1.278432,-0.61163 2.026508,-0.17473 0.410568,0.23979 0.510475,0.34033 0.718756,0.72341 0.08926,0.16415 0.225673,0.41045 0.303162,0.54733 0.240503,0.42483 0.274157,0.49532 0.274472,0.57487 1.68e-4,0.0425 0.01926,0.0984 0.04242,0.12444 0.04583,0.0515 0.170119,0.49973 0.405159,1.4613 0.137811,0.56378 0.359631,1.10739 0.6435,1.57704 0.05118,0.0846 0.174977,0.30866 0.275097,0.49774 0.100117,0.18907 0.2031,0.37736 0.228845,0.41843 0.139081,0.22182 0.723047,1.19446 0.806861,1.34388 0.05374,0.0958 0.117769,0.19896 0.142283,0.22921 0.02453,0.0302 0.101681,0.1624 0.171483,0.29367 0.115675,0.21756 0.244427,0.45124 0.427094,0.77515 0.03738,0.0662 0.09322,0.15412 0.124099,0.19518 0.03088,0.041 0.134012,0.22024 0.229183,0.39819 0.09517,0.17794 0.265893,0.4751 0.379374,0.66037 0.113488,0.18526 0.206336,0.3502 0.206336,0.36653 0,0.0163 0.100794,0.19139 0.223982,0.38904 0.12319,0.19766 0.223979,0.38148 0.223979,0.4085 0,0.027 0.09555,0.14834 0.212326,0.26957 0.211374,0.21946 0.492099,0.35982 1.206219,0.60307 0.309252,0.10534 1.233479,0.46816 1.374174,0.53944 0.04404,0.0223 0.413603,0.15299 0.82127,0.29038 0.407658,0.1374 0.853189,0.29348 0.99006,0.34685 0.13688,0.0534 0.36086,0.13587 0.49773,0.18332 0.47138,0.16339 1.29429,0.47554 1.38055,0.52365 0.0476,0.0265 0.11473,0.049 0.14932,0.0498 0.0345,8.3e-4 0.17488,0.0566 0.31175,0.12397 0.13689,0.0674 0.27127,0.12274 0.29865,0.12312 0.0274,2.8e-4 0.25305,0.0764 0.50149,0.16892 0.41319,0.15387 0.52784,0.17308 1.34389,0.22516 1.05981,0.0676 1.58641,0.13625 1.78329,0.23238 0.0794,0.0388 0.17541,0.0705 0.21317,0.0705 0.10923,0 0.95862,0.43752 1.2156,0.62616 0.42171,0.30957 0.6914,0.84266 0.6914,1.36673 0,0.51451 -0.22353,0.95548 -0.62175,1.22664 -0.53209,0.3623 -1.70468,0.33788 -2.5303,-0.0527 -0.15189,-0.0719 -0.29658,-0.13065 -0.32155,-0.13065 -0.0249,0 -0.13815,-0.0672 -0.25152,-0.14933 -0.11337,-0.0821 -0.21637,-0.14931 -0.22888,-0.14931 -0.0125,0 -0.0809,-0.054 -0.15212,-0.11988 -0.0711,-0.0659 -0.20108,-0.15425 -0.28875,-0.19626 -0.0877,-0.042 -0.2938,-0.19099 -0.45805,-0.33108 -0.5142,-0.43858 -0.77799,-0.57513 -2.01583,-1.04348 -0.23269,-0.0881 -0.59106,-0.21473 -0.79638,-0.28152 -0.32128,-0.10451 -0.760577,-0.26951 -1.119898,-0.42062 -0.271631,-0.11425 -1.094548,-0.41823 -1.486299,-0.54903 -0.428392,-0.14305 -0.629068,-0.15159 -0.629068,-0.0268 0,0.069 0.273419,0.60664 0.535159,1.05238 0.09644,0.16425 0.230235,0.39607 0.297324,0.51515 0.06712,0.11907 0.18705,0.32065 0.26661,0.44796 0.07953,0.1273 0.169373,0.29304 0.199593,0.36833 0.03021,0.0752 0.07513,0.13688 0.09984,0.13688 0.02466,0 0.04492,0.0218 0.04492,0.0482 0,0.0266 0.110484,0.23531 0.245525,0.46394 0.277726,0.47019 0.435367,0.75416 0.694571,1.25107 0.175733,0.33691 0.351933,0.5365 1.104153,1.25073 0.36103,0.34279 0.78509,0.79027 1.04825,1.10613 0.22253,0.26708 0.63686,1.1629 0.72064,1.55807 0.10007,0.47201 0.0708,0.94485 -0.0762,1.23284 -0.15857,0.31055 -0.4834,0.64346 -0.74703,0.76562 -0.24865,0.11521 -0.67965,0.15676 -0.94171,0.0907 z m 0.72055,-0.8859 c 0.27603,-0.17464 0.4421,-0.52397 0.3989,-0.83911 -0.0428,-0.31224 -0.2708,-0.84381 -0.47477,-1.10691 -0.0989,-0.12754 -0.24643,-0.33012 -0.32787,-0.45018 -0.17395,-0.25644 -0.87046,-0.97864 -1.12065,-1.16201 -0.0958,-0.0702 -0.219017,-0.13716 -0.273757,-0.14876 -0.135552,-0.0287 -0.453688,0.13452 -0.550714,0.28261 -0.082,0.12517 -0.08836,0.48115 -0.01286,0.72382 0.247718,0.79634 0.312111,0.98838 0.367168,1.09501 0.03541,0.0684 0.114484,0.23643 0.175865,0.3733 0.143318,0.31958 0.497938,0.87442 0.681858,1.06688 0.32456,0.33962 0.76101,0.4031 1.13681,0.16535 z m -2.429514,-4.3817 c 0.0094,-0.098 -0.02299,-0.22709 -0.08138,-0.32354 -0.09514,-0.15726 -0.327904,-0.58142 -0.568893,-1.03666 -0.06667,-0.12604 -0.159649,-0.28283 -0.206533,-0.34842 -0.107437,-0.15031 -1.423585,-2.48089 -1.423585,-2.5208 0,-0.0162 -0.03132,-0.0649 -0.06961,-0.10809 -0.03829,-0.0433 -0.136079,-0.20178 -0.217324,-0.35234 -0.2805,-0.51982 -0.424441,-0.77194 -0.513251,-0.89896 -0.04901,-0.0701 -0.104237,-0.1877 -0.122713,-0.2613 -0.01846,-0.0736 -0.05129,-0.13385 -0.07292,-0.13385 -0.02165,0 -0.111451,-0.13999 -0.199595,-0.31108 -0.08815,-0.1711 -0.187802,-0.34469 -0.221459,-0.38575 -0.03365,-0.041 -0.07599,-0.10826 -0.09408,-0.14932 -0.01807,-0.041 -0.07388,-0.14185 -0.123985,-0.22398 -0.05011,-0.0821 -0.173696,-0.305 -0.274639,-0.49527 -0.100942,-0.19026 -0.213987,-0.38065 -0.251205,-0.42307 -0.03722,-0.0425 -0.131823,-0.19784 -0.210228,-0.34536 -0.07841,-0.14752 -0.165773,-0.3043 -0.194153,-0.34842 -0.02839,-0.044 -0.112221,-0.19217 -0.186302,-0.32905 -0.07407,-0.13688 -0.189372,-0.33846 -0.256203,-0.44796 -0.06682,-0.1095 -0.181812,-0.31109 -0.25551,-0.44796 -0.0737,-0.13688 -0.175965,-0.30832 -0.227255,-0.38099 -0.05129,-0.0727 -0.09325,-0.1435 -0.09325,-0.15741 0,-0.0139 -0.0784,-0.14434 -0.174207,-0.28982 -0.09582,-0.14549 -0.174207,-0.28512 -0.174207,-0.31028 0,-0.0252 -0.07496,-0.16007 -0.166598,-0.29979 -0.09163,-0.1397 -0.240795,-0.3884 -0.331484,-0.55265 -0.09069,-0.16426 -0.216551,-0.38824 -0.279693,-0.49773 -0.06314,-0.10951 -0.149153,-0.26629 -0.191137,-0.34841 -0.04198,-0.0822 -0.128813,-0.23892 -0.19296,-0.34842 -0.06414,-0.10951 -0.267625,-0.46788 -0.452182,-0.79638 -0.449598,-0.80027 -0.46428,-0.82127 -0.574564,-0.82127 -0.05272,0 -0.150748,0.0509 -0.217862,0.11309 l -0.122027,0.11309 0.09501,0.19533 c 0.05226,0.10743 0.113607,0.20773 0.136341,0.22288 0.02273,0.0152 0.226736,0.35233 0.453336,0.74927 0.226601,0.39696 0.454187,0.78241 0.505745,0.85658 0.05156,0.0742 0.09374,0.15535 0.09374,0.18039 0,0.0558 0.223257,0.44431 0.517484,0.90074 0.07819,0.12128 0.173825,0.28925 0.212541,0.37329 0.03872,0.084 0.123361,0.24239 0.188095,0.35189 0.06474,0.1095 0.181415,0.32229 0.259288,0.47285 0.07787,0.15056 0.209846,0.37454 0.293273,0.49773 0.08343,0.1232 0.221061,0.35836 0.305858,0.52263 0.0848,0.16424 0.234921,0.41848 0.333607,0.56494 0.09869,0.14648 0.179432,0.29579 0.179432,0.33183 0,0.036 0.01681,0.0729 0.03734,0.0821 0.02054,0.009 0.112017,0.16217 0.203301,0.34012 0.09129,0.17794 0.216565,0.41311 0.278394,0.52261 0.603105,1.06813 0.776709,1.36929 0.879545,1.52585 0.06574,0.10008 0.209112,0.34349 0.318616,0.5409 0.109502,0.19742 0.260808,0.46271 0.336238,0.58953 0.07542,0.12681 0.15217,0.26419 0.170542,0.30525 0.01835,0.041 0.08219,0.14186 0.141828,0.22398 0.05964,0.0821 0.174654,0.28371 0.255593,0.44795 0.15595,0.31648 0.614341,1.12771 0.660921,1.16969 0.03232,0.0292 0.0923,0.13449 0.334624,0.58782 0.0979,0.18314 0.207678,0.36704 0.243957,0.40867 0.03629,0.0416 0.08394,0.12005 0.105922,0.1743 0.02202,0.0543 0.174341,0.32901 0.338588,0.6106 0.164265,0.2816 0.332246,0.57235 0.373308,0.64613 0.106248,0.1909 0.205493,0.26139 0.348417,0.24748 0.10113,-0.01 0.12736,-0.0426 0.140122,-0.17519 z m 7.870454,-2.0671 c 0.21875,-0.0759 0.48775,-0.44177 0.50109,-0.68159 0.021,-0.37733 -5.6e-4,-0.45038 -0.19502,-0.66061 -0.53364,-0.577 -1.7845,-0.9819 -3.03338,-0.9819 -0.42693,0 -0.4629,0.008 -0.61017,0.13983 -0.1271,0.11356 -0.16115,0.18819 -0.18124,0.39727 -0.0229,0.23889 -0.0135,0.26792 0.13111,0.40303 0.13577,0.12681 0.54897,0.42695 0.79568,0.57794 0.0447,0.0274 0.0925,0.0639 0.10621,0.0812 0.0136,0.0173 0.21728,0.13105 0.45244,0.25284 0.35386,0.18325 0.65042,0.29496 1.36429,0.51388 0.12052,0.0369 0.51242,0.0123 0.66899,-0.0419 z m -4.21535,-2.11444 c 0.20014,-0.1741 0.0814,-0.32773 -0.41064,-0.5313 -0.17793,-0.0736 -0.36832,-0.14523 -0.42307,-0.15914 -0.0547,-0.0139 -0.14434,-0.0447 -0.1991,-0.0683 -0.10489,-0.0453 -0.56223,-0.21705 -1.14478,-0.4299 -0.55101,-0.20132 -0.66763,-0.24422 -1.169683,-0.43022 -0.260066,-0.0964 -0.640834,-0.23571 -0.846143,-0.3097 -0.205317,-0.074 -0.418104,-0.15499 -0.472853,-0.17998 -0.0547,-0.025 -0.27873,-0.10973 -0.497735,-0.18828 -0.219005,-0.0786 -0.562895,-0.21223 -0.7642,-0.29707 -0.201309,-0.0849 -0.444519,-0.15425 -0.540461,-0.15425 -0.164786,0 -0.172697,0.007 -0.14284,0.13687 0.03396,0.14708 0.388122,0.49279 0.55158,0.53842 0.05476,0.0153 0.144342,0.0461 0.199095,0.0685 0.446237,0.1826 1.855724,0.71126 2.115368,0.79342 0.177943,0.0563 0.519102,0.18143 0.758145,0.27804 0.239037,0.0966 0.474217,0.17581 0.522627,0.17597 0.0483,1.6e-4 0.15215,0.0337 0.23057,0.0747 0.0785,0.0409 0.16379,0.0743 0.18973,0.0743 0.0259,0 0.17457,0.0572 0.33029,0.12706 0.15571,0.0699 0.3503,0.15691 0.43244,0.19339 0.19344,0.0859 1.02296,0.351 1.1199,0.35786 0.041,0.003 0.11385,-0.0288 0.16176,-0.0705 z m -9.400331,-3.53205 c -0.0747,-0.31591 -0.39656,-0.51535 -1.263642,-0.783 -0.326807,-0.10087 -0.601686,-0.20605 -0.771488,-0.29521 -0.08212,-0.0432 -0.188819,-0.0786 -0.2371,-0.0787 -0.04827,-1.6e-4 -0.126671,-0.0232 -0.174208,-0.0513 -0.04753,-0.028 -0.299209,-0.12682 -0.559275,-0.21957 -0.260066,-0.0927 -0.629634,-0.22843 -0.821263,-0.30151 -0.191627,-0.073 -0.438007,-0.16108 -0.547509,-0.19554 -0.109501,-0.0344 -0.400675,-0.14282 -0.647053,-0.24081 -0.541619,-0.21537 -1.228955,-0.43507 -1.361173,-0.43507 -0.100464,0 -0.156918,0.0906 -0.156918,0.25179 0,0.1216 0.146033,0.21322 0.547505,0.3435 0.177941,0.0578 0.373925,0.1266 0.435519,0.15303 0.06159,0.0264 0.162388,0.0699 0.223982,0.0967 0.223027,0.0968 0.812693,0.30753 0.977611,0.34928 0.09284,0.0234 0.328014,0.10871 0.522622,0.18933 0.647069,0.26806 1.026885,0.40824 1.10618,0.40824 0.04314,0 0.137891,0.0312 0.210551,0.0693 0.07266,0.0381 0.300099,0.13075 0.505416,0.20585 0.205315,0.075 0.443879,0.16712 0.530145,0.20446 0.08627,0.0374 0.172469,0.0679 0.191571,0.0679 0.0191,0 0.105308,0.0333 0.191571,0.0739 0.232768,0.10958 0.886729,0.31568 1.016383,0.32032 0.09841,0.004 0.108776,-0.0136 0.08057,-0.13286 z m -7.505067,-2.43224 c 0.118688,-0.0564 0.199293,-0.14776 0.268833,-0.30496 0.05463,-0.12349 0.09932,-0.25089 0.09932,-0.28311 0,-0.0781 -0.265569,-0.3235 -0.572394,-0.52891 -0.136876,-0.0917 -0.278337,-0.19555 -0.314352,-0.23091 -0.09882,-0.097 -0.726797,-0.45573 -1.041506,-0.5949 -0.152935,-0.0676 -0.477876,-0.18028 -0.722093,-0.25034 -0.412259,-0.11825 -0.465369,-0.12284 -0.742235,-0.064 -0.314533,0.0668 -0.553443,0.24593 -0.643408,0.48256 -0.05819,0.15306 -0.05838,0.47069 -2.77e-4,0.6233 0.138392,0.364 0.973226,0.84928 1.721882,1.00091 0.219002,0.0444 0.543774,0.11247 0.721712,0.15137 0.454051,0.0993 1.014365,0.0988 1.224601,-8.2e-4 z m 4.351402,-5.12817 c 0.198078,-0.13189 0.247499,-0.22233 0.247499,-0.45289 0,-0.2874 -0.216079,-1.08169 -0.436746,-1.60542 -0.476104,-1.13002 -0.982925,-1.69231 -1.525364,-1.69231 -0.328815,0 -0.631611,0.1971 -0.754893,0.49137 -0.126582,0.30216 -0.06021,0.67753 0.21675,1.22582 0.313448,0.62053 0.689507,1.06925 1.728765,2.06281 0.08033,0.0768 0.390663,0.0594 0.523989,-0.0294 z m 3.833127,0.76939 c -0.211137,-0.22663 -0.12473,-0.45423 0.409868,-1.07957 0.225184,-0.2634 0.431829,-0.50953 0.459214,-0.54696 0.02737,-0.0374 0.173936,-0.2054 0.325671,-0.3733 0.151734,-0.16789 0.350853,-0.39485 0.44249,-0.50436 0.09164,-0.10949 0.30346,-0.34457 0.470723,-0.52239 0.167259,-0.17782 0.416954,-0.46045 0.554872,-0.62807 0.13792,-0.16762 0.465593,-0.53729 0.728168,-0.82149 0.262568,-0.2842 0.58886,-0.6511 0.725099,-0.81536 0.136229,-0.16425 0.331515,-0.38823 0.433958,-0.49773 0.102451,-0.1095 0.245225,-0.27749 0.317281,-0.3733 0.07205,-0.0958 0.269156,-0.3198 0.437992,-0.49773 0.168845,-0.17795 0.469119,-0.51392 0.667263,-0.74661 0.19816,-0.23268 0.45266,-0.52387 0.56557,-0.64705 0.11291,-0.12319 0.30499,-0.34717 0.42684,-0.49774 0.12185,-0.15057 0.35982,-0.41374 0.52885,-0.58483 0.24451,-0.24754 0.33857,-0.31109 0.46035,-0.31109 0.18648,0 0.35602,0.16579 0.35602,0.34816 0,0.13706 -0.42248,0.73167 -0.81324,1.14458 -0.11683,0.12344 -0.33104,0.37003 -0.47604,0.54797 -0.14501,0.17793 -0.36878,0.43552 -0.49728,0.57239 -0.12851,0.13688 -0.31105,0.34942 -0.40566,0.47231 -0.0946,0.1229 -0.29782,0.35807 -0.451555,0.52262 -0.153748,0.16456 -0.412951,0.45957 -0.576018,0.6556 -0.279215,0.33568 -0.7621,0.87229 -1.512159,1.6804 -0.179855,0.19377 -0.377439,0.41951 -0.439081,0.50163 -0.06164,0.0821 -0.229471,0.27252 -0.37295,0.42308 -0.143478,0.15057 -0.437035,0.47534 -0.652351,0.72172 -0.215318,0.24638 -0.516285,0.58334 -0.668822,0.74882 -0.152533,0.16548 -0.322131,0.36642 -0.37688,0.44654 -0.05476,0.0802 -0.237585,0.2863 -0.406296,0.45819 -0.338509,0.34485 -0.487556,0.3907 -0.661897,0.20357 z m 3.032123,-0.22019 c -0.137484,-0.3616 0.0055,-0.5686 1.49533,-2.16478 0.04104,-0.0439 0.130646,-0.153 0.199091,-0.24225 0.06844,-0.0893 0.160459,-0.19886 0.204507,-0.2436 0.08006,-0.0813 0.276748,-0.30666 0.790962,-0.90624 0.150566,-0.17556 0.327906,-0.37452 0.394086,-0.44212 0.0662,-0.0676 0.30172,-0.33654 0.52345,-0.59761 0.22172,-0.26109 0.48114,-0.55394 0.57651,-0.65078 0.0953,-0.0969 0.25177,-0.2741 0.34757,-0.39389 0.14553,-0.18194 0.60863,-0.7123 0.69751,-0.7988 0.014,-0.0137 0.12606,-0.14787 0.24888,-0.29816 0.35014,-0.42848 0.46342,-0.55695 0.58935,-0.66833 0.0645,-0.057 0.26432,-0.28283 0.44414,-0.50184 0.40505,-0.49328 0.6573,-0.74277 0.85377,-0.84436 0.13275,-0.0687 0.17221,-0.0697 0.31948,-0.008 0.33294,0.13911 0.24693,0.46265 -0.2752,1.03534 -0.18286,0.20057 -0.44946,0.49904 -0.59246,0.6633 -0.143,0.16425 -0.40776,0.45663 -0.58835,0.64974 -0.18059,0.1931 -0.58592,0.65052 -0.90073,1.0165 -0.31483,0.36597 -0.74038,0.85753 -0.94571,1.09234 -0.20531,0.2348 -0.47816,0.5501 -0.60632,0.70068 -0.26212,0.30793 -0.53823,0.62285 -0.67639,0.77149 -0.0509,0.0547 -0.19077,0.22274 -0.31082,0.3733 -0.120045,0.15056 -0.331369,0.39763 -0.469607,0.54903 -0.138229,0.15141 -0.363311,0.4076 -0.500192,0.56933 -0.136873,0.16173 -0.30193,0.34022 -0.366782,0.39666 -0.06491,0.0565 -0.251805,0.27773 -0.41547,0.49178 -0.163657,0.21404 -0.33458,0.40279 -0.379826,0.41944 -0.04527,0.0166 -0.09629,0.0512 -0.113435,0.0766 -0.01718,0.0255 -0.134204,0.058 -0.260137,0.0722 -0.216059,0.0244 -0.23201,0.0178 -0.283207,-0.11689 z m -1.933792,-4.58635 c -0.05748,-0.0477 -0.117526,-0.15437 -0.13345,-0.237 -0.0394,-0.20441 0.230974,-0.60227 0.828084,-1.21854 0.251977,-0.26007 0.542587,-0.58655 0.645799,-0.72551 0.103212,-0.13897 0.25186,-0.31815 0.330323,-0.39819 0.07846,-0.08 0.313873,-0.3471 0.523132,-0.59349 0.209263,-0.24637 0.444007,-0.51822 0.521656,-0.60411 0.07769,-0.0859 0.25317,-0.28596 0.390043,-0.44461 0.750808,-0.8703 1.069728,-1.04279 1.294317,-0.70002 0.151414,0.23108 -0.0018,0.4732 -1.041552,1.6492 -0.145258,0.16425 -0.35992,0.41063 -0.47701,0.54751 -0.117108,0.13688 -0.227795,0.26007 -0.246001,0.27375 -0.01814,0.0137 -0.117531,0.13688 -0.220749,0.27375 -0.103209,0.13688 -0.28117,0.34967 -0.395464,0.47285 -0.114293,0.12319 -0.284201,0.31358 -0.377573,0.42307 -0.363544,0.42636 -1.064815,1.16821 -1.166514,1.23401 -0.191914,0.1242 -0.362051,0.14115 -0.475041,0.0473 z M 80.10188,128.89746 c 0.355879,-0.0294 1.016624,-0.0869 1.468316,-0.12775 0.451695,-0.0409 1.190831,-0.0986 1.642527,-0.12821 0.451695,-0.0297 0.922053,-0.0763 1.045242,-0.10361 0.123189,-0.0273 0.559951,-0.0697 0.970583,-0.094 0.410632,-0.0244 0.892191,-0.0656 1.07013,-0.0917 0.177941,-0.0261 0.648302,-0.0735 1.045245,-0.10554 0.396944,-0.032 0.819772,-0.069 0.939617,-0.0819 0.119845,-0.013 0.478217,-0.0429 0.796375,-0.0664 1.183953,-0.0873 2.584742,-0.20293 3.06715,-0.25323 0.273754,-0.0285 0.8897,-0.0731 1.368772,-0.0991 0.479068,-0.0259 1.082086,-0.0826 1.340038,-0.12591 0.257955,-0.0433 0.750711,-0.0898 1.095018,-0.10342 0.344306,-0.0136 0.715604,-0.0456 0.825105,-0.0713 0.109501,-0.0256 0.512668,-0.0587 0.895923,-0.0733 0.383252,-0.0146 0.820019,-0.0469 0.970588,-0.0716 0.15056,-0.0247 0.609717,-0.0692 1.020352,-0.0989 0.410639,-0.0296 1.001889,-0.0887 1.313909,-0.13125 0.31202,-0.0425 0.98397,-0.098 1.49321,-0.12322 0.50924,-0.0252 1.01549,-0.0684 1.12499,-0.0961 0.1095,-0.0277 0.52387,-0.0628 0.92081,-0.078 0.39694,-0.0152 0.86729,-0.0579 1.04524,-0.0949 0.17793,-0.0369 0.52511,-0.0827 0.77149,-0.10168 0.2907,-0.0224 0.47855,-0.0614 0.53506,-0.11117 0.10359,-0.0911 0.11109,-0.29917 0.0153,-0.42546 -0.061,-0.0805 -0.10082,-0.0849 -0.35927,-0.0396 -0.15987,0.0279 -0.59647,0.0629 -0.97021,0.0774 -0.37376,0.0145 -0.73213,0.0462 -0.79638,0.0703 -0.0643,0.0241 -0.32962,0.058 -0.58969,0.0755 -1.04151,0.0699 -1.23305,0.0862 -1.56786,0.13441 -0.19163,0.0276 -0.78518,0.0833 -1.319,0.12384 -1.668308,0.12669 -2.154064,0.1694 -2.513562,0.22103 -0.19163,0.0275 -0.639583,0.0722 -0.995469,0.0994 -0.355878,0.0271 -0.971826,0.0826 -1.368768,0.12319 -0.396945,0.0406 -1.046489,0.0972 -1.443434,0.12568 -0.396942,0.0285 -0.889698,0.073 -1.095016,0.099 -0.205314,0.0259 -0.720469,0.0701 -1.144789,0.0981 -1.236917,0.0816 -2.487797,0.18931 -2.837088,0.24408 -0.177942,0.0278 -0.558709,0.0639 -0.846151,0.0799 -0.287443,0.016 -0.824994,0.0614 -1.194563,0.10088 -0.369569,0.0394 -1.03031,0.0962 -1.468319,0.12604 -0.438008,0.0298 -0.941964,0.0742 -1.119902,0.0985 -0.177941,0.0243 -0.648302,0.0581 -1.045245,0.0751 -0.396944,0.0171 -0.811307,0.0503 -0.920808,0.0741 -0.109504,0.0237 -0.523866,0.0677 -0.920811,0.0979 -0.396943,0.0301 -1.001692,0.0867 -1.343884,0.12575 -0.342192,0.039 -0.902146,0.0856 -1.244337,0.10352 -0.775989,0.0405 -0.925051,0.10439 -0.862102,0.36919 0.05084,0.21388 0.117594,0.26004 0.336704,0.23285 0.11103,-0.0137 0.493046,-0.0491 0.848925,-0.0786 z m -0.537516,-1.2993 c 0.13138,-0.0276 0.574845,-0.0716 0.985478,-0.0976 0.410631,-0.0259 0.992979,-0.0693 1.294109,-0.0962 0.30113,-0.0269 0.89468,-0.0729 1.318996,-0.10216 0.42432,-0.0292 0.950675,-0.0751 1.169678,-0.10206 0.219005,-0.0269 0.700563,-0.0697 1.07013,-0.0953 0.83435,-0.0576 2.183854,-0.18386 2.712657,-0.25392 0.219002,-0.0291 0.772139,-0.0721 1.22919,-0.0958 0.457052,-0.0236 0.850919,-0.0554 0.875262,-0.0704 0.02434,-0.0151 0.400727,-0.0513 0.83641,-0.0807 0.435682,-0.0293 1.038527,-0.0853 1.339658,-0.12437 0.30113,-0.039 0.872281,-0.0839 1.269224,-0.0998 0.396944,-0.0158 0.856103,-0.0488 1.020354,-0.0733 0.164253,-0.0245 0.533823,-0.0591 0.821266,-0.0771 0.287439,-0.018 0.710337,-0.0645 0.939772,-0.10323 0.229433,-0.0387 0.680765,-0.0705 1.002968,-0.0705 0.34249,0 0.82046,-0.0391 1.150707,-0.0942 0.310702,-0.0518 0.867282,-0.10891 1.236846,-0.12689 0.369561,-0.018 0.895921,-0.0638 1.169671,-0.10185 0.27375,-0.038 0.75533,-0.0829 1.07014,-0.0997 0.31482,-0.0167 0.88596,-0.062 1.26922,-0.10064 0.38325,-0.0385 0.9768,-0.0941 1.319,-0.12353 0.34219,-0.0294 0.70056,-0.062 0.79637,-0.0726 0.0958,-0.0106 0.37579,-0.0345 0.62217,-0.0535 0.80392,-0.0615 0.79249,-0.0501 0.74993,-0.74523 -0.0731,-1.19471 -0.11144,-1.33494 -0.44531,-1.63085 -0.24083,-0.21345 -0.45871,-0.25107 -1.09504,-0.18907 -0.30441,0.0297 -0.92303,0.0872 -1.37473,0.1278 -0.45169,0.0406 -0.87475,0.0864 -0.94012,0.10173 -0.0653,0.0153 -0.45733,0.0471 -0.87102,0.0706 -0.41371,0.0235 -0.97618,0.0678 -1.24993,0.0984 -1.07731,0.12038 -2.020136,0.21148 -2.637983,0.25491 -0.355886,0.025 -0.792653,0.0665 -0.97059,0.0921 -0.177941,0.0256 -0.693097,0.0717 -1.14479,0.10227 -0.451696,0.0306 -1.067644,0.0875 -1.368772,0.12656 -0.30113,0.039 -0.771486,0.0836 -1.045241,0.0992 -0.273755,0.0155 -0.576131,0.0373 -0.671944,0.0482 -0.09581,0.011 -0.610969,0.0551 -1.14479,0.0978 -0.533821,0.0428 -1.149767,0.10038 -1.368771,0.12797 -0.219002,0.0276 -0.700563,0.0728 -1.070131,0.10065 -0.369568,0.0277 -0.862324,0.0743 -1.095014,0.10343 -0.232694,0.0292 -0.691854,0.0706 -1.020358,0.0923 -1.074645,0.0708 -2.678067,0.19789 -3.160618,0.25045 -0.260066,0.0284 -1.155989,0.10856 -1.990938,0.17828 -0.834951,0.0698 -1.734478,0.14517 -1.998948,0.16766 -0.26447,0.0226 -0.501535,0.0537 -0.526809,0.0693 -0.02527,0.0156 -0.120309,0.0416 -0.21118,0.0575 -0.234026,0.0412 -0.426548,0.19379 -0.585252,0.46377 -0.119893,0.20394 -0.137975,0.28931 -0.144295,0.68113 -0.01085,0.67213 0.06357,1.28111 0.165725,1.35633 0.102225,0.0752 0.374946,0.0799 0.697643,0.0118 z m -0.487844,-1.1751 c -0.0429,-0.0517 -0.04219,-0.0864 0.0028,-0.14075 0.106095,-0.12783 0.367467,-0.17806 1.175993,-0.22599 1.196084,-0.0709 2.055802,-0.14365 2.355898,-0.19935 0.148284,-0.0275 0.405862,-0.0505 0.572393,-0.0511 0.166532,-5.5e-4 0.448372,-0.0235 0.626312,-0.0512 0.177939,-0.0276 0.6483,-0.0718 1.045243,-0.0982 1.200735,-0.08 1.880682,-0.1362 2.637993,-0.21779 0.396945,-0.0428 1.169679,-0.1129 1.717187,-0.15581 0.547509,-0.0429 1.241849,-0.099 1.542979,-0.12461 0.301131,-0.0256 0.827484,-0.0692 1.169678,-0.097 0.342192,-0.0277 0.700559,-0.0617 0.796376,-0.0754 0.253212,-0.0364 1.962749,-0.17944 2.687767,-0.22494 0.609709,-0.0383 2.323343,-0.19556 3.210381,-0.29469 0.246388,-0.0276 0.683147,-0.0639 0.970588,-0.0808 0.287441,-0.0169 0.567642,-0.0376 0.622652,-0.0458 0.055,-0.008 0.30139,-0.0299 0.54752,-0.048 0.2461,-0.0181 0.54825,-0.0528 0.67144,-0.0772 0.12319,-0.0243 0.51598,-0.0572 0.87287,-0.0729 0.35689,-0.0158 0.78245,-0.0506 0.94569,-0.0773 0.16325,-0.0268 0.45226,-0.0488 0.64224,-0.0489 0.18998,-1.5e-4 0.46995,-0.0216 0.62217,-0.0477 0.64793,-0.11084 1.59031,-0.20996 1.69135,-0.17789 0.0827,0.0262 0.10554,0.067 0.094,0.16729 -0.0148,0.1279 -0.0295,0.13384 -0.41354,0.16744 -0.21899,0.0191 -0.68936,0.0699 -1.04524,0.11274 -0.35588,0.0428 -0.98302,0.0995 -1.39366,0.12581 -0.41063,0.0264 -0.85859,0.0695 -0.99546,0.0958 -0.13688,0.0264 -0.38771,0.0492 -0.55741,0.0509 -0.16969,0.002 -0.56167,0.0357 -0.87103,0.0757 -0.30937,0.04 -0.85368,0.097 -1.209561,0.12666 -0.355877,0.0297 -0.703044,0.0627 -0.771489,0.0735 -0.347968,0.0543 -0.642279,0.0809 -1.383381,0.12488 -0.446036,0.0264 -0.994787,0.0705 -1.219444,0.0978 -0.224657,0.0273 -0.73324,0.0732 -1.130183,0.10185 -0.396944,0.0287 -0.856105,0.0737 -1.020358,0.10007 -0.164253,0.0264 -0.63461,0.07 -1.045242,0.097 -0.773867,0.0509 -2.616505,0.20797 -3.484144,0.2971 -0.755453,0.0776 -2.13251,0.19678 -3.171496,0.27448 -0.51243,0.0383 -0.955179,0.0842 -0.983892,0.10193 -0.02871,0.0178 -0.479361,0.0534 -1.001446,0.0792 -0.522084,0.0257 -0.990583,0.069 -1.041107,0.0961 -0.05052,0.027 -0.300516,0.0492 -0.55554,0.0492 -0.441622,1e-4 -1.474834,0.0891 -2.280408,0.19635 -0.65946,0.0878 -1.582483,0.0999 -1.647528,0.0216 z"
       id="path1" /></g></svg>
