<svg width="50" height="90" viewBox="0 0 55 89" fill="none" xmlns="http://www.w3.org/2000/svg">
<path d="M47.6141 16.8594H49.6441C50.0341 16.8594 50.4041 17.0294 50.6641 17.2894C50.9341 17.5594 51.0941 17.9194 51.0941 18.3194C51.0941 18.7194 50.9341 19.0794 50.6641 19.3394V19.3494C50.4041 19.6094 50.0341 19.7694 49.6441 19.7694H47.6141C47.2141 19.7694 46.8541 19.6094 46.5941 19.3494V19.3394C46.3241 19.0794 46.1641 18.7194 46.1641 18.3194C46.1641 17.9194 46.3241 17.5594 46.5941 17.2894C46.8541 17.0294 47.2141 16.8594 47.6141 16.8594ZM49.6441 17.8094H47.6141C47.4741 17.8094 47.3541 17.8694 47.2641 17.9594H47.2541C47.1641 18.0494 47.1141 18.1794 47.1141 18.3194C47.1141 18.4594 47.1641 18.5894 47.2541 18.6794H47.2641C47.3541 18.7694 47.4741 18.8194 47.6141 18.8194H49.6441C49.7741 18.8194 49.9041 18.7694 49.9941 18.6794C50.0941 18.5894 50.1441 18.4594 50.1441 18.3194C50.1441 18.1794 50.0941 18.0494 49.9941 17.9594C49.9041 17.8694 49.7741 17.8094 49.6441 17.8094Z" fill="#FFCC00" stroke="#FFCC00" stroke-width="0.21" stroke-miterlimit="22.9256"/>
<path d="M47.6141 21.2305H49.6441C50.0341 21.2305 50.4041 21.3905 50.6641 21.6505V21.6605C50.9341 21.9205 51.0941 22.2805 51.0941 22.6805C51.0941 23.0805 50.9341 23.4405 50.6641 23.7105C50.4041 23.9705 50.0341 24.1405 49.6441 24.1405H47.6141C47.2141 24.1405 46.8541 23.9705 46.5941 23.7105C46.3241 23.4405 46.1641 23.0805 46.1641 22.6805C46.1641 22.2805 46.3241 21.9205 46.5941 21.6605V21.6505C46.8541 21.3905 47.2141 21.2305 47.6141 21.2305ZM49.6441 22.1805H47.6141C47.4741 22.1805 47.3541 22.2305 47.2641 22.3205H47.2541C47.1641 22.4205 47.1141 22.5405 47.1141 22.6805C47.1141 22.8205 47.1641 22.9505 47.2541 23.0405H47.2641C47.3541 23.1305 47.4741 23.1905 47.6141 23.1905H49.6441C49.7741 23.1905 49.9041 23.1305 49.9941 23.0405C50.0941 22.9505 50.1441 22.8205 50.1441 22.6805C50.1441 22.5405 50.0941 22.4205 49.9941 22.3205C49.9041 22.2305 49.7741 22.1805 49.6441 22.1805Z" fill="#FFCC00" stroke="#FFCC00" stroke-width="0.21" stroke-miterlimit="22.9256"/>
<path d="M47.6141 25.4609H49.6441C50.0341 25.4609 50.4041 25.6209 50.6641 25.8809C50.9341 26.1509 51.0941 26.5109 51.0941 26.9109C51.0941 27.3109 50.9341 27.6709 50.6641 27.9409C50.4041 28.2009 50.0341 28.3709 49.6441 28.3709H47.6141C47.2141 28.3709 46.8541 28.2009 46.5941 27.9409C46.3241 27.6709 46.1641 27.3109 46.1641 26.9109C46.1641 26.5109 46.3241 26.1509 46.5941 25.8809C46.8541 25.6209 47.2141 25.4609 47.6141 25.4609ZM49.6441 26.4109H47.6141C47.4741 26.4109 47.3541 26.4609 47.2641 26.5509H47.2541C47.1641 26.6509 47.1141 26.7709 47.1141 26.9109C47.1141 27.0509 47.1641 27.1809 47.2541 27.2709H47.2641C47.3541 27.3609 47.4741 27.4209 47.6141 27.4209H49.6441C49.7741 27.4209 49.9041 27.3609 49.9941 27.2709C50.0941 27.1809 50.1441 27.0509 50.1441 26.9109C50.1441 26.7709 50.0941 26.6509 49.9941 26.5509C49.9041 26.4609 49.7741 26.4109 49.6441 26.4109Z" fill="#FFCC00" stroke="#FFCC00" stroke-width="0.21" stroke-miterlimit="22.9256"/>
<path d="M47.6141 29.8496H49.6441C50.0341 29.8496 50.4041 30.0096 50.6641 30.2796C50.9341 30.5396 51.0941 30.9096 51.0941 31.3096C51.0941 31.7096 50.9341 32.0696 50.6641 32.3296C50.4041 32.5996 50.0341 32.7596 49.6441 32.7596H47.6141C47.2141 32.7596 46.8541 32.5996 46.5941 32.3296C46.3241 32.0696 46.1641 31.7096 46.1641 31.3096C46.1641 30.9096 46.3241 30.5396 46.5941 30.2796C46.8541 30.0096 47.2141 29.8496 47.6141 29.8496ZM49.6441 30.7996H47.6141C47.4741 30.7996 47.3541 30.8596 47.2641 30.9496H47.2541C47.1641 31.0396 47.1141 31.1696 47.1141 31.3096C47.1141 31.4496 47.1641 31.5696 47.2541 31.6596L47.2641 31.6696C47.3541 31.7596 47.4741 31.8096 47.6141 31.8096H49.6441C49.7741 31.8096 49.9041 31.7596 49.9941 31.6696V31.6596C50.0941 31.5696 50.1441 31.4496 50.1441 31.3096C50.1441 31.1696 50.0941 31.0396 49.9941 30.9496C49.9041 30.8596 49.7741 30.7996 49.6441 30.7996Z" fill="#FFCC00" stroke="#FFCC00" stroke-width="0.21" stroke-miterlimit="22.9256"/>
<path d="M47.6141 34.25H49.6441C50.0341 34.25 50.4041 34.41 50.6641 34.67V34.68C50.9341 34.94 51.0941 35.3 51.0941 35.7C51.0941 36.1 50.9341 36.46 50.6641 36.73C50.4041 36.99 50.0341 37.16 49.6441 37.16H47.6141C47.2141 37.16 46.8541 36.99 46.5941 36.73C46.3241 36.46 46.1641 36.1 46.1641 35.7C46.1641 35.3 46.3241 34.94 46.5941 34.68V34.67C46.8541 34.41 47.2141 34.25 47.6141 34.25ZM49.6441 35.2H47.6141C47.4741 35.2 47.3541 35.25 47.2641 35.34H47.2541C47.1641 35.44 47.1141 35.56 47.1141 35.7C47.1141 35.84 47.1641 35.97 47.2541 36.06H47.2641C47.3541 36.15 47.4741 36.21 47.6141 36.21H49.6441C49.7741 36.21 49.9041 36.15 49.9941 36.06C50.0941 35.97 50.1441 35.84 50.1441 35.7C50.1441 35.56 50.0941 35.44 49.9941 35.34C49.9041 35.25 49.7741 35.2 49.6441 35.2Z" fill="#FFCC00" stroke="#FFCC00" stroke-width="0.21" stroke-miterlimit="22.9256"/>
<path d="M13.274 6.04102H30.284L34.464 10.221V21.391C34.464 21.811 34.384 22.211 34.224 22.581C34.074 22.961 33.834 23.311 33.554 23.591C33.264 23.881 32.924 24.111 32.534 24.271C32.164 24.431 31.764 24.511 31.344 24.511H11.744C11.324 24.511 10.924 24.431 10.554 24.271C10.174 24.121 9.83403 23.881 9.54403 23.591C8.97403 23.031 8.62402 22.251 8.62402 21.391V10.221L12.804 6.04102H13.274ZM29.794 7.24102H13.304L9.82403 10.721V21.391C9.82403 21.921 10.044 22.401 10.394 22.751C10.564 22.931 10.774 23.071 11.014 23.171C11.234 23.261 11.484 23.311 11.744 23.311H31.344C31.604 23.311 31.854 23.261 32.074 23.171C32.314 23.071 32.524 22.931 32.704 22.751C32.884 22.571 33.024 22.361 33.124 22.121C33.214 21.901 33.264 21.651 33.264 21.391V10.721L29.794 7.24102Z" fill="#FFCC00" stroke="#FFCC00" stroke-width="0.21" stroke-miterlimit="22.9256"/>
<path d="M8.24422 1H34.8442C36.0642 1 37.1742 1.5 37.9742 2.3C38.7742 3.1 39.2742 4.20001 39.2742 5.42001V51.03C39.2742 52.25 37.5242 52.26 37.5242 51.03V5.42001C37.5242 4.69001 37.2242 4.02 36.7342 3.54C36.2542 3.05 35.5842 2.75 34.8442 2.75H8.24422C7.51422 2.75 6.84422 3.05001 6.35422 3.53001V3.54C5.87422 4.02 5.57422 4.69001 5.57422 5.42001V52.63C5.57422 53.69 3.82422 53.61 3.82422 52.63V5.42001C3.82422 4.21001 4.31422 3.1 5.11422 2.3H5.12421C5.92421 1.5 7.02422 1 8.24422 1Z" fill="#FFCC00" stroke="#FFCC00" stroke-width="0.21" stroke-miterlimit="22.9256"/>
<path d="M27.3245 40.4102C27.3445 40.9202 27.3045 41.4302 27.2045 41.9302C27.0945 42.4302 26.9245 42.9102 26.6845 43.3802C25.9445 44.8102 24.6945 45.8102 23.2745 46.2602C21.8445 46.7202 20.2545 46.6302 18.8245 45.8902C17.3945 45.1602 16.3945 43.9102 15.9345 42.4802C15.4845 41.0602 15.5645 39.4602 16.3045 38.0302C16.5445 37.5602 16.8445 37.1402 17.1845 36.7702C17.5245 36.4002 17.9145 36.0702 18.3445 35.8002L27.0145 29.9902L27.3245 40.4102ZM25.8545 41.6502C25.9445 41.2602 25.9745 40.8602 25.9545 40.4802L25.7145 32.5102L19.0945 36.9402C18.7645 37.1502 18.4645 37.4002 18.1945 37.7002C17.9345 37.9802 17.7145 38.3002 17.5245 38.6602C16.9645 39.7602 16.8945 40.9802 17.2445 42.0702C17.5845 43.1502 18.3545 44.1102 19.4445 44.6702C20.5445 45.2402 21.7645 45.3002 22.8545 44.9602C23.9445 44.6102 24.8945 43.8502 25.4645 42.7502C25.6445 42.4002 25.7745 42.0202 25.8545 41.6502Z" fill="#FFCC00" stroke="#FFCC00" stroke-width="0.21" stroke-miterlimit="22.9256"/>
<path d="M21.5444 57.9004C24.0344 57.9004 26.2844 58.9204 27.9244 60.5504C29.5544 62.1904 30.5644 64.4404 30.5644 66.9304C30.5644 69.4204 29.5544 71.6804 27.9244 73.3104C26.2944 74.9404 24.0344 75.9504 21.5444 75.9504C19.0544 75.9504 16.7944 74.9404 15.1644 73.3104C13.5344 71.6804 12.5244 69.4204 12.5244 66.9304C12.5244 64.4404 13.5344 62.1804 15.1644 60.5504C16.7944 58.9204 19.0544 57.9004 21.5444 57.9004ZM26.8644 61.6104C25.5044 60.2504 23.6244 59.4104 21.5444 59.4104C19.4644 59.4104 17.5844 60.2504 16.2244 61.6104C14.8644 62.9704 14.0244 64.8504 14.0244 66.9304C14.0244 69.0104 14.8644 70.8904 16.2244 72.2504C17.5844 73.6104 19.4644 74.4504 21.5444 74.4504C23.6244 74.4504 25.5044 73.6104 26.8644 72.2504C28.2244 70.8904 29.0644 69.0104 29.0644 66.9304C29.0644 64.8504 28.2244 62.9704 26.8644 61.6104Z" fill="#FFCC00" stroke="#FFCC00" stroke-width="0.21" stroke-miterlimit="22.9256"/>
<path d="M22.5145 21.4293C22.4345 21.6893 22.1545 21.8393 21.8945 21.7593C21.6345 21.6793 21.4845 21.3993 21.5645 21.1393L23.7245 14.0293C23.8045 13.7693 24.0845 13.6193 24.3445 13.6993C24.6145 13.7793 24.7545 14.0593 24.6745 14.3193L22.5145 21.4293Z" fill="#FFCC00" stroke="#FFCC00" stroke-width="0.21" stroke-miterlimit="22.9256"/>
<path d="M54.5039 12.1409V59.5809C54.5039 59.7509 54.4839 59.9309 54.4439 60.1109H54.4539C54.4139 60.2909 54.3639 60.4609 54.2939 60.6309C54.2239 60.8009 54.1339 60.9609 54.0339 61.1109C53.9339 61.2609 53.8139 61.4009 53.6939 61.5209L53.6839 61.5309C53.4339 61.7809 53.1339 61.9909 52.7939 62.1309C52.4639 62.2609 52.1139 62.3409 51.7339 62.3409H45.5139C45.3439 62.3409 45.1639 62.3209 44.9839 62.2809V62.2909C44.8139 62.2509 44.6439 62.2009 44.4639 62.1309C44.2939 62.0609 44.1339 61.9709 43.9839 61.8709C43.8339 61.7709 43.6939 61.6509 43.5639 61.5309V61.5209C43.4339 61.3909 43.3239 61.2609 43.2239 61.1009C43.1239 60.9609 43.0339 60.8009 42.9639 60.6309C42.8939 60.4509 42.8439 60.2809 42.8039 60.1109H42.8139C42.7739 59.9309 42.7539 59.7509 42.7539 59.5809V12.1409C42.7539 11.9709 42.7739 11.7909 42.8139 11.6109H42.8039C42.8439 11.4309 42.8939 11.2609 42.9639 11.0909C43.0339 10.9309 43.1239 10.7709 43.2239 10.6109C43.3239 10.4609 43.4339 10.3209 43.5639 10.2009L43.5739 10.1909C43.7039 10.0509 43.8439 9.94086 43.9839 9.85086C44.1439 9.75086 44.3039 9.66086 44.4639 9.59086C44.6339 9.52086 44.8039 9.47085 44.9839 9.43085V9.44086C45.1639 9.40086 45.3439 9.38086 45.5139 9.38086H51.7339C51.9039 9.38086 52.0939 9.40086 52.2739 9.44086V9.43085C52.4539 9.47085 52.6239 9.52086 52.7939 9.59086C52.9539 9.66086 53.1139 9.75086 53.2739 9.85086C53.4239 9.95086 53.5739 10.0709 53.6939 10.1909C53.8239 10.3209 53.9339 10.4609 54.0339 10.6109C54.1339 10.7609 54.2139 10.9209 54.2939 11.0909C54.3639 11.2609 54.4139 11.4409 54.4539 11.6109H54.4439C54.4839 11.7909 54.5039 11.9709 54.5039 12.1409ZM52.7539 59.5809V12.1409C52.7539 12.0709 52.7439 12.0009 52.7339 11.9509C52.7139 11.8809 52.6939 11.8109 52.6739 11.7609C52.6539 11.7009 52.6239 11.6409 52.5739 11.5809C52.5339 11.5209 52.4939 11.4709 52.4539 11.4309C52.3939 11.3809 52.3439 11.3309 52.2939 11.3009C52.2439 11.2709 52.1839 11.2309 52.1239 11.2109C52.0639 11.1809 52.0039 11.1609 51.9339 11.1509C51.8839 11.1409 51.8139 11.1309 51.7339 11.1309H45.5139C45.4439 11.1309 45.3739 11.1409 45.3239 11.1509C45.2539 11.1609 45.1939 11.1809 45.1339 11.2109C45.0739 11.2309 45.0139 11.2609 44.9639 11.3009C44.9039 11.3409 44.8539 11.3809 44.8039 11.4209C44.7539 11.4709 44.7139 11.5309 44.6739 11.5909C44.6439 11.6409 44.6039 11.7009 44.5839 11.7609C44.5539 11.8209 44.5439 11.8809 44.5239 11.9509C44.5139 12.0009 44.5039 12.0709 44.5039 12.1409V59.5809C44.5039 59.6509 44.5139 59.7209 44.5239 59.7709C44.5439 59.8509 44.5539 59.9109 44.5739 59.9609H44.5839C44.6039 60.0209 44.6339 60.0809 44.6739 60.1309C44.7139 60.1909 44.7539 60.2409 44.8039 60.2909C44.8539 60.3409 44.9039 60.3809 44.9639 60.4209C45.0239 60.4609 45.0739 60.4909 45.1339 60.5109C45.1839 60.5409 45.2539 60.5609 45.3239 60.5709C45.3739 60.5809 45.4439 60.5909 45.5139 60.5909H51.7339C51.8739 60.5909 52.0039 60.5609 52.1239 60.5109C52.2439 60.4609 52.3639 60.3909 52.4539 60.2909C52.5039 60.2409 52.5439 60.1909 52.5839 60.1409C52.6139 60.0809 52.6439 60.0209 52.6739 59.9609C52.7039 59.9009 52.7139 59.8409 52.7339 59.7709C52.7439 59.7209 52.7539 59.6509 52.7539 59.5809Z" fill="#FFCC00" stroke="#FFCC00" stroke-width="0.21" stroke-miterlimit="22.9256"/>
<path d="M11.3841 27.4808L13.6541 28.7908V31.7708L11.0741 33.2608L8.49414 31.7708V28.7908L11.0741 27.3008L11.3841 27.4808ZM12.4041 29.5108L11.0741 28.7408L9.74414 29.5108V31.0508L11.0741 31.8208L12.4041 31.0508V29.5108Z" fill="#FFCC00" stroke="#FFCC00" stroke-width="0.21" stroke-miterlimit="22.9256"/>
<path d="M17.9945 27.4808L20.2645 28.7908V31.7708L17.6845 33.2608L15.1045 31.7708V28.7908L17.6845 27.3008L17.9945 27.4808ZM19.0145 29.5108L17.6845 28.7408L16.3545 29.5108V31.0508L17.6845 31.8208L19.0145 31.0508V29.5108Z" fill="#FFCC00" stroke="#FFCC00" stroke-width="0.21" stroke-miterlimit="22.9256"/>
<path d="M12.8444 13.8595C12.6244 14.0295 12.3044 13.9795 12.1444 13.7595C11.9744 13.5395 12.0144 13.2295 12.2344 13.0595C13.5744 12.0495 15.0644 11.2695 16.6344 10.7395C18.2144 10.2195 19.8744 9.93945 21.5444 9.93945C23.2244 9.93945 24.8744 10.2195 26.4544 10.7395C28.0244 11.2695 29.5144 12.0495 30.8544 13.0595C31.0744 13.2295 31.1144 13.5395 30.9544 13.7595C30.7844 13.9795 30.4744 14.0295 30.2544 13.8595C28.9944 12.9095 27.6044 12.1795 26.1344 11.6895C24.6744 11.1995 23.1244 10.9395 21.5444 10.9395C19.9744 10.9395 18.4244 11.1995 16.9544 11.6895C15.4844 12.1795 14.0944 12.9095 12.8444 13.8595Z" fill="#FFCC00" stroke="#FFCC00" stroke-width="0.21" stroke-miterlimit="22.9256"/>
<path d="M12.9844 78.8301C12.9944 78.8401 12.9844 78.8401 12.9844 78.8301Z" fill="#FFCC00" stroke="#FFCC00" stroke-width="0.21" stroke-miterlimit="22.9256"/>
<path d="M10.8937 49.2497L15.7837 47.1797C16.6137 46.8297 17.2237 46.9997 17.7037 47.3897C18.0937 47.7097 18.3237 48.1297 18.5137 48.4897L18.5637 48.5897C18.7937 48.9597 18.9937 49.2697 19.1837 49.5697L19.4837 50.0497C19.6237 50.2697 19.7537 50.4797 19.8837 50.6897L19.9537 50.8097L20.2137 50.7997L20.4537 50.7797C20.5637 50.7697 20.6737 50.7597 20.8437 50.7597H20.8537C21.1837 50.7597 21.5837 50.7597 22.0537 50.7797L22.7337 50.7997L24.2737 48.2497C24.7637 47.3997 25.1437 46.9997 25.7137 46.8797C26.2637 46.7597 26.7237 46.9697 27.5037 47.3197L27.5237 47.3297C27.6637 47.3897 27.8337 47.4697 28.0037 47.5397L31.3037 48.8697C32.2237 49.2397 32.6837 49.4597 32.9337 49.9597C33.1937 50.4897 33.0637 50.9497 32.8237 51.8197L32.7137 52.2897L32.1737 54.6097C32.5537 54.9397 32.9537 55.2897 33.3237 55.6697C33.6237 55.9597 33.9037 56.2597 34.1637 56.5597C34.6037 56.4597 35.0637 56.3397 35.5137 56.2097C36.1237 56.0497 36.7337 55.8897 37.3837 55.7497C37.7937 55.6497 38.1537 55.5797 38.5837 55.7097C39.0337 55.8397 39.3937 56.1697 39.6837 56.8497L41.7637 61.7497C42.1137 62.5797 41.9437 63.1897 41.5537 63.6597C41.2437 64.0497 40.8237 64.2697 40.4637 64.4597L40.3337 64.5397L38.6637 65.5897L38.1337 65.9197L38.1437 66.0697C38.1537 66.2597 38.1737 66.4797 38.1837 66.7197C38.1937 67.0297 38.1937 67.3397 38.1837 67.6497C38.1837 67.9797 38.1737 68.2797 38.1537 68.5597L38.1437 68.6897C38.8537 69.1197 39.5537 69.5397 40.2037 69.9397L40.5437 70.1297C41.3637 70.5997 41.7937 70.8397 42.0037 71.3697C42.2037 71.9097 42.0437 72.3897 41.6737 73.2997L40.2137 76.9097L40.1437 77.1197C39.8537 77.9097 39.6837 78.3897 39.2237 78.7097C38.7437 79.0497 38.1837 79.0497 37.2237 78.7997L34.3237 78.1297L34.2737 78.1897C34.0637 78.4397 33.8637 78.6697 33.6537 78.8897C33.4537 79.1097 33.2437 79.3197 33.0237 79.5397L33.0037 79.5497C32.8637 79.6897 32.7037 79.8397 32.5337 79.9897L32.4037 80.0997L33.1637 83.2597C33.2037 83.3897 33.2337 83.5097 33.2437 83.6497C33.2637 83.7997 33.2637 83.9697 33.2437 84.1597C33.1937 84.4897 33.0937 84.7797 32.9037 85.0397C32.7037 85.2897 32.4437 85.4997 32.0937 85.6397L27.1937 87.7197C26.3737 88.0697 25.7637 87.8997 25.2837 87.5197C24.8937 87.1997 24.6737 86.7797 24.4737 86.4197L24.4137 86.2997L23.4937 84.8497C23.3637 84.6297 23.2337 84.4197 23.1037 84.2197L23.0237 84.0897L22.6337 84.1097C22.3637 84.1297 22.0637 84.1397 21.7637 84.1397C21.4137 84.1397 21.0837 84.1397 20.7637 84.1197L20.2537 84.0997L18.7237 86.6197C17.6237 88.5497 17.2737 88.3897 15.4837 87.5797H15.4737C15.3137 87.5097 15.1337 87.4197 14.9737 87.3597L11.5637 85.9797C10.8537 85.6997 10.4337 85.5297 10.1637 85.0597C9.89367 84.6097 9.91367 84.0997 10.1337 83.2097L10.8037 80.2997L10.3537 79.9097C10.0737 79.6597 9.81367 79.4097 9.56367 79.1597C9.39367 78.9897 9.21367 78.7897 9.02367 78.5897L8.81367 78.3297C8.31367 78.4397 7.71367 78.5797 7.13367 78.7197C6.59367 78.8497 6.09367 78.9897 5.72367 79.1097L5.65367 79.1297C4.63367 79.3797 3.93367 79.5597 3.29367 78.0497L1.22367 73.1497C1.08367 72.8097 1.03367 72.4997 1.06367 72.1997C1.08367 71.8897 1.19367 71.6097 1.37367 71.3497C1.48367 71.1797 1.61367 71.0597 1.74367 70.9497C1.85367 70.8497 1.96367 70.7797 2.07367 70.7097C2.49367 70.4997 3.00367 70.1197 3.44367 69.8497C3.91367 69.5497 4.38367 69.2497 4.85367 68.9697L4.83367 68.7897C4.81367 68.5297 4.79367 68.2797 4.79367 68.0897C4.78367 67.9497 4.78367 67.7997 4.78367 67.6497L4.80367 66.6997C4.80367 66.5697 4.80367 66.4997 4.81367 66.4397L4.83367 66.2097C4.10367 65.7797 3.02367 65.1397 2.51367 64.7897L2.39367 64.7297C1.96367 64.4997 1.44367 64.2197 1.17367 63.5897C0.993671 63.1697 0.97367 62.7897 1.02367 62.4597C1.07367 62.1497 1.17367 61.9197 1.26367 61.6997L2.91367 57.6397C3.27367 56.7397 3.52367 56.2797 3.97367 56.0297C4.49367 55.7597 4.91367 55.8697 5.68367 56.0797L5.97367 56.1597L8.64367 56.7597L8.99367 56.3597C9.21367 56.0997 9.44367 55.8497 9.68367 55.6197C9.89367 55.4097 10.1037 55.2097 10.3037 55.0297L10.5837 54.7897L9.81367 51.6097C9.70367 51.1897 9.61367 50.8197 9.72367 50.3997C9.85367 49.9397 10.1837 49.5597 10.8937 49.2497ZM16.3737 48.5597L11.4737 50.6297C11.2637 50.7197 11.1837 50.7697 11.1737 50.7897C11.1637 50.8497 11.2137 51.0297 11.2637 51.2497C11.4837 52.0097 11.6637 52.8997 11.8537 53.6597L12.2737 55.3497L11.8937 55.6497C11.6937 55.8097 11.4937 55.9797 11.3037 56.1497C11.1037 56.3297 10.9137 56.5097 10.7437 56.6797C10.5237 56.8997 10.3137 57.1197 10.1137 57.3497C9.91367 57.5697 9.71367 57.8097 9.52367 58.0497L9.23367 58.4297C8.35367 58.2297 5.99367 57.5297 5.29367 57.5297C4.89367 57.4197 4.69367 57.3497 4.68367 57.3497C4.64367 57.3797 4.52367 57.6397 4.30367 58.1997L2.64367 62.2797C2.58367 62.4197 2.52367 62.5697 2.50367 62.6797C2.49367 62.7697 2.49367 62.8797 2.55367 63.0097C2.61367 63.1497 2.88367 63.2997 3.10367 63.4097C3.17367 63.4497 3.27367 63.4997 3.33367 63.5397C3.79367 63.8597 4.89367 64.5097 5.62367 64.9397C5.88367 65.0797 6.15367 65.2497 6.41367 65.3997L6.32367 66.4397C6.30367 66.5297 6.30367 66.5897 6.30367 66.6897C6.30367 66.8497 6.30367 67.0197 6.29367 67.1897L6.28367 67.6597C6.28367 67.7797 6.28367 67.9097 6.29367 68.0497V68.0897C6.29367 68.2797 6.30367 68.4697 6.32367 68.6597C6.33367 68.8097 6.36367 69.0497 6.39367 69.2797L6.45367 69.7597L6.03367 70.0097C5.39367 70.3797 4.81367 70.7497 4.23367 71.1197L3.99367 71.2797C3.56367 71.5397 3.14367 71.8097 2.87367 71.9797C2.80367 72.0197 2.74367 72.0597 2.70367 72.0997C2.67367 72.1197 2.64367 72.1497 2.61367 72.1897C2.57367 72.2497 2.55367 72.2997 2.54367 72.3397C2.54367 72.3997 2.55367 72.4697 2.60367 72.5697L4.67367 77.4697C4.81367 77.7797 4.99367 77.7497 5.26367 77.6897C5.66367 77.5497 6.20367 77.4097 6.77367 77.2597C7.53367 77.0697 8.37367 76.8897 8.95367 76.7697L9.40368 76.6797L9.68367 77.0397C9.81367 77.2097 9.97368 77.3897 10.1537 77.5897C10.3037 77.7697 10.4637 77.9397 10.6337 78.1097C10.8637 78.3497 11.1037 78.5797 11.3437 78.7897C11.5637 78.9897 11.8237 79.1997 12.1037 79.4097L12.4737 79.7097C12.2237 80.8097 11.9237 82.6597 11.5937 83.5597C11.4737 84.0397 11.4237 84.2597 11.4537 84.2997C11.4637 84.3297 11.7137 84.4297 12.1237 84.5897L15.5337 85.9697C15.7437 86.0597 15.9237 86.1397 16.0737 86.2097L16.0937 86.2197C16.8537 86.5597 16.9937 86.6197 17.4237 85.8797C18.1237 84.8397 18.7937 83.6197 19.4537 82.5297L19.9137 82.5697C20.2437 82.5997 20.5437 82.6197 20.8237 82.6297C21.1337 82.6397 21.4437 82.6497 21.7537 82.6497C22.0037 82.6397 22.2637 82.6397 22.5437 82.6197C22.7937 82.5997 23.0537 82.5797 23.3337 82.5497L23.8137 82.4897L24.3937 83.4397C24.5037 83.6297 24.6337 83.8397 24.7637 84.0497C25.0837 84.5697 25.5437 85.1797 25.7937 85.7097C25.9237 85.9497 26.0737 86.2297 26.2237 86.3497C26.2937 86.4097 26.4137 86.4297 26.6137 86.3397L31.5137 84.2697C31.6037 84.2297 31.6637 84.1797 31.7037 84.1397C31.7237 84.0997 31.7437 84.0397 31.7537 83.9697C31.7637 83.9197 31.7637 83.8697 31.7537 83.8297C31.7437 83.7597 31.7337 83.6897 31.7137 83.6197L31.1237 81.1797L30.7137 79.5497L31.0937 79.2497C31.2437 79.1297 31.3937 78.9997 31.5437 78.8697C31.6737 78.7497 31.8137 78.6197 31.9637 78.4797L31.9737 78.4697C32.1637 78.2797 32.3637 78.0797 32.5637 77.8697C32.7537 77.6597 32.9437 77.4497 33.1237 77.2397L33.7337 76.4597C35.0237 76.7497 36.3137 77.0697 37.5937 77.3497C38.0937 77.4797 38.3137 77.5197 38.3637 77.4797C38.4337 77.4297 38.5537 77.1197 38.7337 76.6197L38.9437 76.0497L40.2837 72.7397C40.5037 72.1997 40.6137 71.9297 40.6037 71.9097C40.5937 71.8797 40.3237 71.7297 39.8137 71.4397C39.6737 71.3697 39.5537 71.2897 39.4237 71.2197C38.6037 70.7197 37.8437 70.2597 37.0837 69.7997L36.5937 69.5097L36.6537 68.4697C36.6737 68.1697 36.6937 67.8897 36.6937 67.6297C36.6937 67.3497 36.6937 67.0697 36.6837 66.7697C36.6737 66.6097 36.6637 66.4097 36.6437 66.1897C36.6337 66.0097 36.6137 65.8197 36.5937 65.6197L36.5337 65.1497C37.4737 64.5597 38.8637 63.5797 39.7537 63.1397C39.9937 63.0197 40.2737 62.8697 40.3937 62.7197C40.4537 62.6497 40.4637 62.5297 40.3837 62.3297L38.3137 57.4297C38.2237 57.2297 38.1737 57.1497 38.1437 57.1397C38.1037 57.1197 37.9237 57.1597 37.7237 57.2097H37.7037C37.1337 57.3297 36.5237 57.4997 35.9037 57.6597C35.2937 57.8297 34.6837 57.9897 34.0237 58.1297L33.5737 58.2197L33.2837 57.8497C33.0037 57.4797 32.6537 57.0997 32.2737 56.7397C31.8237 56.2897 31.3337 55.8597 30.8637 55.4697L30.5137 55.1797L31.2537 51.9597C31.2537 51.9497 31.3737 51.4497 31.3837 51.4397C31.5237 50.9397 31.5937 50.6697 31.5937 50.6297C31.5737 50.5997 31.3037 50.4897 30.7437 50.2597L27.4537 48.9297C27.2637 48.8497 27.0737 48.7597 26.9137 48.6897L26.8837 48.6797C26.3937 48.4597 26.0937 48.3297 26.0237 48.3397C25.9637 48.3497 25.8337 48.5597 25.5637 49.0197C25.1237 49.9197 24.0537 51.5097 23.5537 52.3497L23.0937 52.3197C22.7137 52.2997 22.3537 52.2797 22.0137 52.2697C21.6937 52.2597 21.2937 52.2597 20.8537 52.2597C20.7537 52.2597 20.6637 52.2597 20.5837 52.2697C20.5737 52.2797 20.0137 52.3097 19.9937 52.3097L19.7237 52.3397L19.2537 52.4497L18.8337 51.8297C18.7537 51.6997 18.6637 51.5697 18.5937 51.4497C18.3737 51.0897 18.1537 50.7297 17.9237 50.3797C17.6937 50.0197 17.4637 49.6597 17.2837 49.3697C17.2537 49.3097 17.2237 49.2397 17.1937 49.1897C17.0637 48.9497 16.9137 48.6697 16.7637 48.5497C16.6937 48.4897 16.5737 48.4697 16.3737 48.5597Z" fill="#FFCC00" stroke="#FFCC00" stroke-width="0.21" stroke-miterlimit="22.9256"/>
</svg>
