<svg width="50" height="90" viewBox="0 0 115 171" fill="none" xmlns="http://www.w3.org/2000/svg">
<path d="M12.1154 33.3086H50.7797L55.2625 38.1663V64.4313C55.2625 65.9033 54.7021 67.2281 53.8133 68.1955C52.9245 69.1628 51.7071 69.7516 50.3546 69.7516H12.1154C10.7629 69.7516 9.54554 69.1628 8.6567 68.1955C7.76787 67.2281 7.20752 65.9033 7.20752 64.4313V38.1663L11.6903 33.3086H12.1154ZM49.9101 35.6007H12.5598L9.31368 39.1126V64.4313C9.31368 65.2725 9.62282 66.0295 10.1445 66.5762C10.6469 67.144 11.3425 67.4805 12.1154 67.4805H50.3546C51.1275 67.4805 51.8231 67.144 52.3255 66.5762C52.8472 66.0295 53.1563 65.2725 53.1563 64.4313V39.1126L49.9101 35.6007Z" fill="#FFD93F" fill-opacity="0.341176"/>
<path d="M11.9029 105.879H50.5671C51.8617 105.879 53.0404 106.447 53.8906 107.351V107.372C54.7408 108.276 55.2625 109.559 55.2625 110.947V132.733H7.20752V110.947C7.20752 109.559 7.72922 108.276 8.57941 107.372V107.351C9.4296 106.447 10.6083 105.879 11.9029 105.879ZM50.5671 108.15H11.9029C11.1879 108.15 10.5503 108.465 10.0672 108.97C9.60351 109.475 9.31368 110.169 9.31368 110.947V130.441H53.1563V110.947C53.1563 110.169 52.8665 109.475 52.4027 108.97C51.9197 108.465 51.2821 108.15 50.5671 108.15Z" fill="#FFD93F" fill-opacity="0.341176"/>
<path d="M78.8549 136.351H86.9897L87.067 136.33L87.125 136.287L87.1636 136.224V136.161V133.512H76.4783V136.161V136.224L76.5169 136.287L76.5749 136.33L76.6522 136.351H78.8549ZM8.88834 28.5566H51.2238C52.4218 28.5566 53.5812 28.83 54.6246 29.2926C55.7067 29.7763 56.6921 30.4913 57.5036 31.3955C58.3345 32.2787 58.9915 33.3302 59.4552 34.5078C59.8803 35.6434 60.1315 36.8841 60.1315 38.1879V75.5772L60.9237 75.7454C62.5082 75.7454 63.8414 75.9767 64.9621 76.4814C66.1215 77.0071 67.0489 77.8062 67.8218 78.9628C68.4595 79.9301 68.9039 81.0657 69.1744 82.4326C69.4449 83.7784 69.5608 85.3346 69.5608 87.1851V160.765C69.5608 161.438 69.5995 161.985 69.6381 162.384C69.6961 162.742 69.7541 162.973 69.8507 163.078C69.928 163.183 70.1405 163.246 70.4497 163.31C70.8361 163.394 71.3578 163.415 72.0534 163.415H76.7101C77.2898 163.415 77.7343 163.415 78.0048 163.394C78.2173 163.394 78.2366 163.478 78.2753 163.457C78.3139 163.415 78.3526 163.183 78.3719 162.805C78.4105 162.321 78.4298 161.648 78.4298 160.723V156.454L78.2946 156.328C78.0821 156.097 77.9082 155.802 77.7922 155.508C77.6763 155.192 77.6183 154.877 77.6183 154.519V149.998C77.4831 149.956 77.3671 149.872 77.2512 149.809C77.0773 149.683 76.9227 149.536 76.7681 149.367C76.4976 149.073 76.2851 148.737 76.1305 148.337C75.9952 147.958 75.8986 147.559 75.8986 147.117V139.526L75.918 139.232C75.7247 139.168 75.5315 139.084 75.3383 139C75.0678 138.832 74.7972 138.643 74.5847 138.39C74.0437 137.823 73.7152 137.023 73.7152 136.161V50.7631C73.7152 50.3425 73.7925 49.922 73.9471 49.5434C74.0823 49.1649 74.3142 48.8074 74.5654 48.5341C74.8552 48.2397 75.1644 47.9873 75.5315 47.8401C75.8793 47.6719 76.2464 47.5878 76.6522 47.5878H86.9897C87.3955 47.5878 87.7626 47.6719 88.1104 47.8401C88.4582 47.9873 88.7867 48.2186 89.0572 48.513L89.0765 48.5341C89.3471 48.8285 89.5596 49.1649 89.6948 49.5434C89.8494 49.922 89.9267 50.3425 89.9267 50.7631V136.161C89.9267 136.582 89.8494 136.981 89.6948 137.36C89.5596 137.738 89.3471 138.096 89.0765 138.39H89.0572C88.6901 138.79 88.2264 139.084 87.724 139.232V139.526V147.117C87.724 147.559 87.6467 147.958 87.5114 148.337C87.3568 148.737 87.1443 149.073 86.8738 149.367C86.7192 149.536 86.5646 149.683 86.3714 149.809C86.2748 149.872 86.1588 149.956 86.0236 149.998V154.519C86.0236 154.877 85.9656 155.192 85.8497 155.508C85.7338 155.802 85.5598 156.097 85.3473 156.328L85.1347 156.517V160.723C85.1347 162.553 84.9995 164.025 84.7096 165.265C84.4005 166.527 83.8981 167.536 83.1832 168.378C82.391 169.303 81.4828 169.871 80.4201 170.228C79.3767 170.565 78.1593 170.67 76.7101 170.67H72.0534C70.4304 170.67 69.0585 170.459 67.8991 170.039C66.7205 169.597 65.7737 168.924 64.9814 168.02C64.1892 167.116 63.6675 166.064 63.3197 164.845C62.9912 163.646 62.856 162.3 62.856 160.765V87.1851C62.856 86.0706 62.8366 85.1873 62.74 84.5144C62.6627 83.8836 62.5468 83.442 62.3922 83.2106C62.3536 83.1686 62.257 83.1265 62.0444 83.0845C61.7739 83.0214 61.4068 83.0004 60.9237 83.0004L60.1315 83.1686V132.25C60.1315 133.554 59.8803 134.794 59.4552 135.93C58.9915 137.108 58.3345 138.159 57.523 139.042C56.6921 139.925 55.7067 140.661 54.6246 141.145C53.5812 141.608 52.4218 141.881 51.2238 141.881H8.88834C7.69035 141.881 6.531 141.608 5.48759 141.145C4.40553 140.661 3.42009 139.925 2.60854 139.042C1.77768 138.159 1.12071 137.087 0.676298 135.93C0.231881 134.794 0 133.554 0 132.25V38.1879C0 36.8841 0.231881 35.6434 0.676298 34.5078C1.12071 33.3302 1.77768 32.2787 2.60854 31.3955C3.42009 30.4913 4.40553 29.7763 5.48759 29.2926C6.531 28.83 7.69035 28.5566 8.88834 28.5566ZM56.8467 83.8415L49.736 85.2715C49.3882 85.4397 49.0211 85.5659 48.6346 85.65C48.2482 85.7341 47.8424 85.7762 47.4366 85.7762C45.8136 85.7762 44.3257 85.0612 43.263 83.9046C42.1809 82.748 41.524 81.1498 41.524 79.3834C41.524 77.617 42.1809 76.0188 43.263 74.8622C44.3257 73.7056 45.8136 72.9696 47.4366 72.9696C47.8038 72.9696 48.1709 73.0116 48.5187 73.0958C48.8665 73.1588 49.2143 73.264 49.5428 73.3902L56.8467 74.9042V38.1879C56.8467 37.3677 56.6921 36.5897 56.4216 35.8747C56.1317 35.1176 55.7067 34.4658 55.1849 33.898C54.6826 33.3302 54.0642 32.8886 53.3686 32.5732C52.7117 32.2787 51.9967 32.1105 51.2238 32.1105H8.88834C8.13477 32.1105 7.40051 32.2787 6.74355 32.5732C6.06726 32.8886 5.44894 33.3302 4.92723 33.898C3.90314 34.9915 3.28483 36.5055 3.28483 38.1879V132.25C3.28483 133.07 3.42009 133.848 3.70992 134.563C3.98044 135.299 4.40553 135.972 4.92723 136.54C5.44894 137.087 6.06726 137.549 6.74355 137.865C7.40051 138.159 8.13477 138.327 8.88834 138.327H51.2238C51.9967 138.327 52.7117 138.159 53.3686 137.865C54.0449 137.549 54.6826 137.087 55.1849 136.54C55.7067 135.972 56.1317 135.299 56.4216 134.563C56.6921 133.848 56.8467 133.07 56.8467 132.25V83.8415ZM76.4783 130.526H87.1636V50.7631V50.679L87.125 50.6159L87.067 50.5949L86.9897 50.5739H76.6522L76.5749 50.5949L76.5169 50.6159L76.4783 50.679V50.7631V130.526ZM84.787 139.316H78.8549L78.7777 139.337L78.7197 139.379L78.681 139.442L78.6617 139.526V147.117L78.681 147.201L78.7197 147.265L78.7777 147.307L78.8549 147.328H84.787L84.8642 147.307L84.9222 147.265L84.9608 147.201L84.9802 147.117V139.526L84.9608 139.442L84.9222 139.379L84.8642 139.337L84.787 139.316Z" fill="#FFD93F" fill-opacity="0.341176"/>
<path d="M14.144 31.0391H52.5763L57.0398 35.8757V62.1618C57.0398 63.6338 56.4795 64.9586 55.61 65.9259C54.7211 66.8722 53.4845 67.4821 52.1512 67.4821H14.144C12.8107 67.4821 11.5741 66.8722 10.6852 65.9259C9.81573 64.9586 9.25537 63.6338 9.25537 62.1618V35.8757L13.7189 31.0391H14.144ZM51.7068 33.3102H14.5884L11.3615 36.822V62.1618C11.3615 63.0029 11.6707 63.76 12.1731 64.3067C12.6755 64.8535 13.3711 65.1899 14.144 65.1899H52.1512C52.9241 65.1899 53.6197 64.8535 54.1221 64.3067C54.6245 63.76 54.9337 63.0029 54.9337 62.1618V36.822L51.7068 33.3102Z" fill="#FFCC00"/>
<path d="M15.8249 54.2554C15.2839 54.7811 14.453 54.718 13.97 54.1292C13.5062 53.5404 13.5449 52.6572 14.0859 52.1315C16.7138 49.587 19.7087 47.6102 22.9356 46.2644C26.1818 44.9396 29.6212 44.2246 33.1379 44.2246C36.6545 44.2246 40.1133 44.9396 43.3401 46.2854C46.567 47.6103 49.5813 49.608 52.2091 52.1525C52.7502 52.6782 52.7888 53.5614 52.3251 54.1502C51.842 54.739 51.0111 54.8021 50.4701 54.2764C48.0934 51.9632 45.3497 50.1547 42.4126 48.9351C39.4756 47.7154 36.3261 47.0845 33.1379 47.0845C29.9496 47.0845 26.8001 47.7154 23.8824 48.9351C20.9454 50.1547 18.2016 51.9422 15.8249 54.2554Z" fill="#FFCC00"/>
<path d="M34.8767 61.3427C35.2632 61.9945 35.0893 62.8778 34.4903 63.3194C33.8719 63.7399 33.0797 63.5507 32.674 62.8988L26.2009 52.0058C25.8145 51.354 25.9884 50.4707 26.5874 50.0502C27.1864 49.6296 27.9979 49.8188 28.4037 50.4707L34.8767 61.3427Z" fill="#FFCC00"/>
<path d="M21.8728 39.7442C21.7183 39.3026 21.9308 38.819 22.3366 38.6507C22.7423 38.4825 23.1868 38.7138 23.3413 39.1554L24.8292 43.5505C24.9838 43.9921 24.7712 44.4757 24.3654 44.644C23.9597 44.8122 23.5152 44.5809 23.3607 44.1393L21.8728 39.7442Z" fill="#FFCC00"/>
<path d="M32.4036 37.579C32.4036 37.0953 32.7514 36.7168 33.1765 36.7168C33.6016 36.7168 33.9687 37.0953 33.9687 37.579L33.9494 42.2474C33.9494 42.71 33.6016 43.0885 33.1765 43.0885C32.7321 43.0885 32.3843 42.71 32.3843 42.2474L32.4036 37.579Z" fill="#FFCC00"/>
<path d="M43.012 39.1554C43.1666 38.7138 43.611 38.4825 44.0168 38.6507C44.4226 38.819 44.6158 39.3026 44.4805 39.7442L42.9734 44.1393C42.8188 44.5809 42.3551 44.8122 41.9493 44.644C41.5629 44.4757 41.3503 43.9921 41.5049 43.5505L43.012 39.1554Z" fill="#FFCC00"/>
<path d="M52.4023 44.2658C52.6728 43.9083 53.1752 43.8452 53.5036 44.1396C53.8321 44.434 53.8901 44.9808 53.6196 45.3383L50.8565 49.0394C50.586 49.3968 50.1029 49.4599 49.7551 49.1655C49.4266 48.8711 49.3686 48.3244 49.6391 47.9669L52.4023 44.2658Z" fill="#FFCC00"/>
<path d="M12.6172 45.4229C12.3467 45.0654 12.3853 44.5186 12.7138 44.2242C13.0423 43.9088 13.5446 43.9508 13.8152 44.3083L16.6362 47.9253C16.9261 48.2828 16.8874 48.8295 16.559 49.1239C16.2305 49.4394 15.7281 49.3973 15.4576 49.0398L12.6172 45.4229Z" fill="#FFCC00"/>
<path fill-rule="evenodd" clip-rule="evenodd" d="M12.4048 73.3063L14.2791 69.7734H18.0083L19.8826 73.3063L18.0083 76.8181H14.2791L12.4048 73.3063ZM14.6848 73.3063C14.6848 72.4231 15.3418 71.7081 16.134 71.7081C16.9456 71.7081 17.6025 72.4231 17.6025 73.3063C17.6025 74.1685 16.9456 74.8835 16.134 74.8835C15.3418 74.8835 14.6848 74.1685 14.6848 73.3063Z" fill="#FFCC00"/>
<path fill-rule="evenodd" clip-rule="evenodd" d="M21.2935 73.3063L23.1677 69.7734H26.897L28.7713 73.3063L26.897 76.8181H23.1677L21.2935 73.3063ZM23.5735 73.3063C23.5735 72.4231 24.2305 71.7081 25.042 71.7081C25.8342 71.7081 26.4912 72.4231 26.4912 73.3063C26.4912 74.1685 25.8342 74.8835 25.042 74.8835C24.2305 74.8835 23.5735 74.1685 23.5735 73.3063Z" fill="#FFCC00"/>
<path fill-rule="evenodd" clip-rule="evenodd" d="M12.4048 95.0939L14.2791 91.582H18.0083L19.8826 95.0939L18.0083 98.6267H14.2791L12.4048 95.0939ZM14.6848 95.0939C14.6848 94.2317 15.3418 93.5167 16.134 93.5167C16.9456 93.5167 17.6025 94.2317 17.6025 95.0939C17.6025 95.9771 16.9456 96.671 16.134 96.671C15.3418 96.671 14.6848 95.9771 14.6848 95.0939Z" fill="#FFCC00"/>
<path fill-rule="evenodd" clip-rule="evenodd" d="M12.4048 86.6388L14.2791 83.127H18.0083L19.8826 86.6388L18.0083 90.1716H14.2791L12.4048 86.6388ZM14.6848 86.6388C14.6848 85.7766 15.3418 85.0616 16.134 85.0616C16.9456 85.0616 17.6025 85.7766 17.6025 86.6388C17.6025 87.522 16.9456 88.237 16.134 88.237C15.3418 88.237 14.6848 87.522 14.6848 86.6388Z" fill="#FFCC00"/>
<path fill-rule="evenodd" clip-rule="evenodd" d="M40.5773 92.5902C40.6352 93.915 40.3841 95.2608 39.8044 96.5015C38.0074 100.287 33.7564 101.759 30.2977 99.8241C26.8197 97.8684 25.4671 93.2421 27.2448 89.4779C27.8438 88.2162 28.7133 87.2278 29.7181 86.5128L40.2102 78.9004L40.5773 92.5902ZM35.8046 88.1741C38.2006 89.52 39.1474 92.7163 37.9108 95.3239C36.6741 97.9315 33.7371 98.9409 31.3411 97.595C28.9452 96.2702 27.9984 93.0528 29.235 90.4663C30.4716 87.8587 33.4086 86.8283 35.8046 88.1741Z" fill="#FFCC00"/>
<path d="M13.9314 104.115H52.3638C53.6584 104.115 54.8177 104.683 55.6679 105.608C56.5181 106.534 57.0398 107.795 57.0398 109.204V130.969H9.25537V109.204C9.25537 107.795 9.77708 106.534 10.6273 105.608C11.4775 104.683 12.6368 104.115 13.9314 104.115ZM52.3638 106.407H13.9314C13.2165 106.407 12.5788 106.723 12.1151 107.228C11.6514 107.732 11.3615 108.426 11.3615 109.204V128.698H54.9337V109.204C54.9337 108.426 54.6438 107.732 54.1801 107.228C53.7163 106.723 53.0787 106.407 52.3638 106.407Z" fill="#FFCC00"/>
<path d="M33.1574 108.004C34.2781 108.004 35.2829 108.509 36.0364 109.308C36.7707 110.107 37.2344 111.221 37.2344 112.441C37.2344 113.661 36.7707 114.775 36.0364 115.595C35.2829 116.394 34.2781 116.899 33.1574 116.899C32.0174 116.899 31.0126 116.394 30.259 115.595C29.5248 114.775 29.061 113.661 29.061 112.441C29.061 111.221 29.5248 110.107 30.259 109.308C31.0126 108.509 32.0174 108.004 33.1574 108.004ZM34.9158 110.506C34.4713 110.023 33.8337 109.707 33.1574 109.707C32.4618 109.707 31.8242 110.023 31.3797 110.506H31.3604C30.916 111.011 30.6455 111.684 30.6455 112.441C30.6455 113.198 30.916 113.892 31.3604 114.376H31.3797C31.8242 114.88 32.4618 115.175 33.1574 115.175C33.8337 115.175 34.4713 114.88 34.9158 114.376H34.9351C35.3795 113.892 35.65 113.198 35.65 112.441C35.65 111.684 35.3795 111.011 34.9351 110.506H34.9158Z" fill="#FFCC00"/>
<path d="M32.0364 113.745C31.7852 113.892 31.476 113.808 31.3408 113.535C31.1862 113.261 31.2828 112.904 31.5147 112.756L34.2585 111.032C34.5097 110.885 34.8188 110.99 34.9541 111.242C35.1087 111.516 35.012 111.873 34.7608 112.02L32.0364 113.745Z" fill="#FFCC00"/>
<path d="M82.9316 55.748H86.2744C86.9314 55.748 87.5497 56.0425 87.9748 56.5051C88.4192 56.9888 88.6897 57.6406 88.6897 58.3556C88.6897 59.0916 88.4192 59.7435 87.9748 60.2062C87.5497 60.6898 86.9314 60.9842 86.2744 60.9842H82.9316C82.2746 60.9842 81.6757 60.6898 81.2313 60.2062C80.8062 59.7435 80.5356 59.0916 80.5356 58.3556C80.5356 57.6406 80.8062 56.9888 81.2313 56.5051C81.6757 56.0425 82.2746 55.748 82.9316 55.748ZM86.2744 57.4514H82.9316C82.6997 57.4514 82.4872 57.5565 82.352 57.7248H82.3326C82.1974 57.893 82.1008 58.1033 82.1008 58.3556C82.1008 58.608 82.1974 58.8393 82.3326 59.0075H82.352C82.4872 59.1757 82.6997 59.2809 82.9316 59.2809H86.2744C86.5063 59.2809 86.7188 59.1757 86.8734 59.0075C87.028 58.8393 87.1246 58.608 87.1246 58.3556C87.1246 58.1033 87.028 57.893 86.8734 57.7248C86.7188 57.5565 86.5063 57.4514 86.2744 57.4514Z" fill="#FFCC00"/>
<path d="M82.9316 62.1406H86.2744C86.9314 62.1406 87.5497 62.435 87.9748 62.9187C88.4192 63.3813 88.6897 64.0543 88.6897 64.7692C88.6897 65.4842 88.4192 66.1361 87.9748 66.6198C87.5497 67.0824 86.9314 67.3768 86.2744 67.3768H82.9316C82.2746 67.3768 81.6757 67.0824 81.2313 66.6198C80.8062 66.1361 80.5356 65.4842 80.5356 64.7692C80.5356 64.0543 80.8062 63.3813 81.2313 62.9187C81.6757 62.435 82.2746 62.1406 82.9316 62.1406ZM86.2744 63.844H82.9316C82.6997 63.844 82.4872 63.9491 82.352 64.1173H82.3326C82.1974 64.2856 82.1008 64.5169 82.1008 64.7692C82.1008 65.0216 82.1974 65.2319 82.3326 65.4001H82.352C82.4872 65.5683 82.6997 65.6735 82.9316 65.6735H86.2744C86.5063 65.6735 86.7188 65.5683 86.8734 65.4001C87.028 65.2319 87.1246 65.0216 87.1246 64.7692C87.1246 64.5169 87.028 64.2856 86.8734 64.1173C86.7188 63.9491 86.5063 63.844 86.2744 63.844Z" fill="#FFCC00"/>
<path d="M82.9316 68.4707H86.2744C86.9314 68.4707 87.5497 68.7651 87.9748 69.2488C88.4192 69.7324 88.6897 70.3843 88.6897 71.0993C88.6897 71.8143 88.4192 72.4662 87.9748 72.9499C87.5497 73.4335 86.9314 73.7279 86.2744 73.7279H82.9316C82.2746 73.7279 81.6757 73.4335 81.2313 72.9499C80.8062 72.4662 80.5356 71.8143 80.5356 71.0993C80.5356 70.3843 80.8062 69.7324 81.2313 69.2488C81.6757 68.7651 82.2746 68.4707 82.9316 68.4707ZM86.2744 70.1951H82.9316C82.6997 70.1951 82.4872 70.3002 82.352 70.4474L82.3326 70.4684C82.1974 70.6156 82.1008 70.847 82.1008 71.0993C82.1008 71.3517 82.1974 71.583 82.3326 71.7512H82.352C82.4872 71.9194 82.6997 72.0036 82.9316 72.0036H86.2744C86.5063 72.0036 86.7188 71.9194 86.8734 71.7512C87.028 71.583 87.1246 71.3517 87.1246 71.0993C87.1246 70.847 87.028 70.6156 86.8734 70.4684V70.4474C86.7188 70.3002 86.5063 70.1951 86.2744 70.1951Z" fill="#FFCC00"/>
<path d="M82.9316 75.1152H86.2744C86.9314 75.1152 87.5497 75.4096 87.9748 75.8933C88.4192 76.3559 88.6897 77.0078 88.6897 77.7438C88.6897 78.4588 88.4192 79.1107 87.9748 79.5733V79.5944C87.5497 80.057 86.9314 80.3514 86.2744 80.3514H82.9316C82.2746 80.3514 81.6757 80.057 81.2313 79.5944V79.5733C80.8062 79.1107 80.5356 78.4588 80.5356 77.7438C80.5356 77.0078 80.8062 76.3559 81.2313 75.8933C81.6757 75.4096 82.2746 75.1152 82.9316 75.1152ZM86.2744 76.8186H82.9316C82.6997 76.8186 82.4872 76.9237 82.352 77.0919H82.3326C82.1974 77.2602 82.1008 77.4915 82.1008 77.7438C82.1008 77.9962 82.1974 78.2065 82.3326 78.3747H82.352C82.4872 78.5429 82.6997 78.6481 82.9316 78.6481H86.2744C86.5063 78.6481 86.7188 78.5429 86.8734 78.3747C87.028 78.2065 87.1246 77.9962 87.1246 77.7438C87.1246 77.4915 87.028 77.2602 86.8734 77.0919C86.7188 76.9237 86.5063 76.8186 86.2744 76.8186Z" fill="#FFCC00"/>
<path d="M82.9316 81.7617H86.2744C86.9314 81.7617 87.5497 82.0561 87.9748 82.5188C88.4192 83.0024 88.6897 83.6543 88.6897 84.3693C88.6897 85.0843 88.4192 85.7362 87.9748 86.2198C87.5497 86.7035 86.9314 86.9979 86.2744 86.9979H82.9316C82.2746 86.9979 81.6757 86.7035 81.2313 86.2198C80.8062 85.7362 80.5356 85.0843 80.5356 84.3693C80.5356 83.6543 80.8062 83.0024 81.2313 82.5188C81.6757 82.0561 82.2746 81.7617 82.9316 81.7617ZM86.2744 83.4651H82.9316C82.6997 83.4651 82.4872 83.5702 82.352 83.7174L82.3326 83.7384C82.1974 83.8856 82.1008 84.1169 82.1008 84.3693C82.1008 84.6216 82.1974 84.853 82.3326 85.0212H82.352C82.4872 85.1894 82.6997 85.2735 82.9316 85.2735H86.2744C86.5063 85.2735 86.7188 85.1894 86.8734 85.0212C87.028 84.853 87.1246 84.6216 87.1246 84.3693C87.1246 84.1169 87.028 83.8856 86.8734 83.7384V83.7174C86.7188 83.5702 86.5063 83.4651 86.2744 83.4651Z" fill="#FFCC00"/>
<path d="M81.6564 132.798H89.7525L89.8298 132.777L89.8684 132.735L89.907 132.672L89.9264 132.609V129.959H79.299V132.609V132.672L79.3376 132.735L79.3956 132.777L79.4536 132.798H81.6564ZM12.0955 25.0039H54.1991C55.3971 25.0039 56.5372 25.2773 57.5806 25.7399C58.6433 26.2236 59.6288 26.9386 60.4403 27.8428C61.2518 28.726 61.9088 29.7775 62.3725 30.9551C62.7976 32.0906 63.0295 33.3313 63.0295 34.6351V72.0244L63.841 72.1927C65.4062 72.1927 66.7201 72.424 67.8408 72.9287C69.0001 73.4544 69.9276 74.2535 70.6812 75.4101C71.3188 76.3774 71.7633 77.513 72.0338 78.8798C72.3043 80.2257 72.4202 81.7818 72.4202 83.6324V157.212C72.4202 157.885 72.4589 158.432 72.4975 158.832C72.5555 159.189 72.6134 159.42 72.7101 159.526C72.7873 159.631 72.9806 159.694 73.309 159.757C73.6955 159.841 74.2172 159.862 74.8935 159.862H79.5309C80.1106 159.862 80.5357 159.862 80.8062 159.841C81.0187 159.841 81.0574 159.925 81.096 159.904C81.1153 159.862 81.154 159.631 81.1926 159.252C81.2119 158.768 81.2313 158.096 81.2313 157.17V152.901L81.1153 152.775C80.9028 152.544 80.7096 152.25 80.5936 151.955C80.4777 151.64 80.4197 151.324 80.4197 150.967V146.446C80.3038 146.403 80.1878 146.319 80.0719 146.256C79.898 146.13 79.7241 145.983 79.5888 145.815C79.3183 145.52 79.1058 145.184 78.9512 144.784C78.8159 144.406 78.7387 144.006 78.7387 143.565V135.973V135.679C78.5454 135.616 78.3522 135.532 78.1783 135.447C77.8885 135.279 77.6179 135.09 77.4054 134.838C76.8837 134.27 76.5552 133.471 76.5552 132.609V47.2104C76.5552 46.7898 76.6325 46.3692 76.7678 45.9907C76.9224 45.6122 77.1349 45.2547 77.4054 44.9813C77.6759 44.6869 78.0044 44.4346 78.3522 44.2874C78.7 44.1191 79.0672 44.035 79.4536 44.035H89.7525C90.1389 44.035 90.5254 44.1191 90.8538 44.2874C91.221 44.4346 91.5301 44.6869 91.8007 44.9603L91.82 44.9813C92.0905 45.2757 92.303 45.6122 92.4383 45.9907C92.5929 46.3692 92.6702 46.7898 92.6702 47.2104V132.609C92.6702 133.029 92.5929 133.429 92.4383 133.807C92.303 134.186 92.0905 134.543 91.82 134.838H91.8007C91.4529 135.237 90.9891 135.532 90.4674 135.679L90.4867 135.973V143.565C90.4867 144.006 90.4094 144.406 90.2549 144.784C90.1196 145.184 89.907 145.52 89.6365 145.815C89.4819 145.983 89.3274 146.13 89.1341 146.256C89.0375 146.319 88.9216 146.403 88.7863 146.446V150.967C88.7863 151.324 88.7284 151.64 88.6124 151.955C88.4965 152.25 88.3226 152.544 88.1101 152.775L87.8975 152.964V157.17C87.8975 159 87.7816 160.472 87.4724 161.713C87.1633 162.974 86.6802 163.984 85.9653 164.825C85.173 165.75 84.2842 166.318 83.2215 166.675C82.1781 167.012 80.9607 167.117 79.5309 167.117H74.8935C73.2704 167.117 71.9178 166.907 70.7585 166.486C69.5991 166.044 68.6523 165.372 67.8601 164.467C67.0872 163.563 66.5462 162.512 66.2177 161.292C65.8892 160.093 65.754 158.747 65.754 157.212V83.6324C65.754 82.5178 65.7346 81.6346 65.638 80.9617C65.5607 80.3308 65.4641 79.8892 65.2902 79.6579C65.2709 79.6158 65.155 79.5738 64.9424 79.5317C64.6912 79.4686 64.3241 79.4476 63.841 79.4476L63.0295 79.6158V128.697C63.0295 130.001 62.7976 131.242 62.3725 132.377C61.9088 133.555 61.2518 134.606 60.4403 135.49C59.6288 136.373 58.6433 137.109 57.5612 137.592C56.5372 138.055 55.3971 138.328 54.1991 138.328H12.0955C10.8975 138.328 9.75748 138.055 8.71407 137.592C7.65133 137.109 6.6659 136.373 5.85435 135.49C5.04281 134.606 4.38585 133.534 3.92211 132.377C3.49701 131.242 3.26514 130.001 3.26514 128.697V34.6351C3.26514 33.3313 3.49701 32.0906 3.92211 30.9551C4.38585 29.7775 5.04281 28.726 5.85435 27.8428C6.6659 26.9386 7.65133 26.2236 8.71407 25.7399C9.75748 25.2773 10.8975 25.0039 12.0955 25.0039ZM59.7833 80.2888L52.7113 81.7187C52.3635 81.887 51.9964 82.0131 51.6099 82.0973C51.2235 82.1814 50.837 82.2234 50.4313 82.2234C48.8082 82.2234 47.3397 81.5084 46.2769 80.3519C45.2142 79.1953 44.5379 77.5971 44.5379 75.8307C44.5379 74.0642 45.2142 72.466 46.2769 71.3094C47.3397 70.1529 48.8082 69.4169 50.4313 69.4169C50.7984 69.4169 51.1462 69.4589 51.494 69.543C51.8611 69.6061 52.1896 69.7113 52.5181 69.8374L59.7833 71.3515V34.6351C59.7833 33.815 59.6287 33.0369 59.3582 32.3219C59.0684 31.5649 58.6433 30.913 58.1409 30.3452C57.6192 29.7775 57.0009 29.3359 56.3246 29.0204C55.6676 28.726 54.9527 28.5578 54.1991 28.5578H12.0955C11.3419 28.5578 10.627 28.726 9.97003 29.0204C9.29375 29.3359 8.67542 29.7775 8.15372 30.3452C7.14895 31.4387 6.51131 32.9528 6.51131 34.6351V128.697C6.51131 129.517 6.66589 130.295 6.93641 131.01C7.22624 131.746 7.65133 132.419 8.15372 132.987C8.67542 133.534 9.29375 133.996 9.97003 134.312C10.627 134.606 11.3419 134.775 12.0955 134.775H54.1991C54.9527 134.775 55.6676 134.606 56.3246 134.312C57.0009 133.996 57.6192 133.534 58.1409 132.987C58.6433 132.419 59.0684 131.746 59.3582 131.01C59.6287 130.295 59.7833 129.517 59.7833 128.697V80.2888ZM79.299 126.973H89.9264V47.2104L89.907 47.1263L89.8684 47.0632L89.8298 47.0421L89.7525 47.0211H79.4536L79.3956 47.0421L79.3376 47.0842L79.299 47.1263V47.2104V126.973ZM87.569 135.784H81.6564H81.5791L81.5211 135.826L81.4824 135.889L81.4631 135.973V143.565L81.4824 143.649L81.5211 143.712L81.5791 143.754L81.6564 143.775H87.569L87.627 143.754L87.685 143.712L87.7429 143.649V143.565V135.973V135.889L87.685 135.826L87.627 135.784H87.569Z" fill="#FFCC00"/>
<path d="M78.4103 1.61938C79.2412 0.967482 78.333 -0.525567 77.4249 0.189414L76.1109 1.26189C75.2607 1.91378 76.1689 3.40683 77.0964 2.69185L78.4103 1.61938ZM55.0688 18.4635C54.2186 19.1154 55.1267 20.6084 56.0542 19.8935L57.3681 18.821C58.2183 18.1481 57.3102 16.655 56.3827 17.391L55.0688 18.4635ZM60.3245 14.1526C59.4936 14.8045 60.4018 16.2975 61.3099 15.5825L62.6238 14.5101C63.474 13.8582 62.5659 12.3651 61.6384 13.0801L60.3245 14.1526ZM65.5802 9.86269C64.7493 10.5146 65.6575 12.0076 66.585 11.2926L67.8989 10.2202C68.7297 9.56828 67.8216 8.07524 66.8941 8.79022L65.5802 9.86269ZM70.8552 5.55177C70.005 6.20367 70.9132 7.71774 71.8406 6.98173L73.1546 5.90926C73.9854 5.25737 73.0773 3.76432 72.1691 4.4793L70.8552 5.55177Z" fill="#FFCC00"/>
<path d="M92.2456 0.189414C91.3181 -0.525567 90.41 0.967482 91.2602 1.61938L92.5741 2.69185C93.4822 3.40683 94.4097 1.91378 93.5595 1.26189L92.2456 0.189414ZM113.636 19.8304C114.563 20.5453 115.471 19.0523 114.621 18.4004L113.307 17.3279C112.399 16.613 111.471 18.106 112.322 18.7579L113.636 19.8304ZM108.38 15.5405C109.288 16.2555 110.196 14.7834 109.365 14.1105L108.032 13.038C107.124 12.3231 106.216 13.8161 107.066 14.468L108.38 15.5405ZM103.105 11.2716C104.032 11.9656 104.94 10.4936 104.09 9.82063L102.776 8.74816C101.849 8.05421 100.941 9.52623 101.791 10.1991L103.105 11.2716ZM97.8298 6.98173C98.7573 7.69672 99.6654 6.20367 98.8152 5.55177L97.5013 4.4793C96.5932 3.76432 95.685 5.23634 96.5158 5.90926L97.8298 6.98173Z" fill="#FFCC00"/>
<path d="M88.7866 0.609742C88.2842 -0.483759 86.835 0.357396 87.2988 1.36678L88.0137 2.986C88.5161 4.07951 89.9652 3.23835 89.4822 2.22896L88.7866 0.609742ZM101.636 34.319C102.138 35.4125 103.588 34.5503 103.124 33.5409L102.873 32.9521C102.37 31.8586 100.921 32.6998 101.385 33.7302L101.636 34.319ZM99.2787 28.8725C99.7811 29.966 101.23 29.1249 100.747 28.0945L100.052 26.4752C99.5492 25.3817 98.1 26.2439 98.5638 27.2533L99.2787 28.8725ZM96.4576 22.3956C96.96 23.4891 98.4092 22.648 97.9454 21.6386L97.2305 20.0194C96.7281 18.9259 95.2789 19.767 95.7427 20.7764L96.4576 22.3956ZM93.6365 15.9398C94.1389 17.0333 95.5881 16.1711 95.1244 15.1617L94.4288 13.5425C93.907 12.449 92.4772 13.2901 92.9409 14.3206L93.6365 15.9398ZM90.8154 9.46289C91.3178 10.5564 92.767 9.71524 92.3033 8.68482L91.6077 7.08663C91.1053 5.9721 89.6561 6.83428 90.1198 7.84367L90.8154 9.46289Z" fill="#FFCC00"/>
<path d="M82.0045 1.43016C82.391 0.273575 80.9804 -0.336262 80.4974 0.694152L79.8211 2.31337C79.4153 3.46996 80.8452 4.0798 81.3089 3.04938L82.0045 1.43016ZM66.6238 33.5623C66.2374 34.7188 67.6479 35.3287 68.131 34.2983L68.2662 33.9618C68.672 32.8052 67.2422 32.1954 66.7784 33.2048L66.6238 33.5623ZM68.8459 28.3261C68.4401 29.5037 69.87 30.0925 70.3337 29.0831L71.01 27.4429C71.4158 26.2863 69.9859 25.6764 69.5222 26.7068L68.8459 28.3261ZM71.5897 21.8282C71.1839 22.9847 72.6138 23.5946 73.0775 22.5642L73.7538 20.9449C74.1596 19.7884 72.7297 19.1785 72.266 20.2089L71.5897 21.8282ZM74.3335 15.3302C73.9277 16.4868 75.3576 17.0967 75.8213 16.0662L76.5169 14.447C76.9034 13.2904 75.4735 12.6806 75.0098 13.69L74.3335 15.3302ZM77.0773 8.81129C76.6715 9.96788 78.1014 10.5777 78.5651 9.56833L79.2607 7.92808C79.6472 6.77149 78.2366 6.16165 77.7536 7.19207L77.0773 8.81129Z" fill="#FFCC00"/>
<path d="M85.7145 0.947368C85.7145 0.463704 85.386 0.106217 84.9802 0.0431307C84.4778 -0.0199559 84.0527 0.421647 84.0527 0.947368V2.73482C84.0527 3.19746 84.3812 3.55495 84.787 3.61803C85.2894 3.68112 85.7145 3.23951 85.7145 2.73482V0.947368ZM84.0527 38.5259C84.0527 38.9045 84.2653 39.1989 84.5551 39.3461C85.1155 39.5984 85.7145 39.1358 85.7145 38.5259V36.7385C85.7145 36.36 85.5019 36.0445 85.2121 35.8973C84.6517 35.645 84.0527 36.1076 84.0527 36.7385V38.5259ZM84.0527 31.3551C84.0527 31.8388 84.3812 32.1962 84.787 32.2593C85.2894 32.3014 85.7145 31.8808 85.7145 31.3551V29.5676C85.7145 29.105 85.386 28.7265 84.9802 28.6844C84.4778 28.6213 84.0527 29.063 84.0527 29.5676V31.3551ZM84.0527 24.2053C84.0527 24.6889 84.3812 25.0464 84.787 25.0885C85.2894 25.1516 85.7145 24.731 85.7145 24.2053V22.4178C85.7145 21.9342 85.386 21.5767 84.9802 21.5136C84.4778 21.4715 84.0527 21.8921 84.0527 22.4178V24.2053ZM84.0527 17.0344C84.0527 17.5181 84.3812 17.8756 84.787 17.9387C85.2894 18.0018 85.7145 17.5602 85.7145 17.0344V15.247C85.7145 14.7844 85.386 14.4269 84.9802 14.3638C84.4778 14.3007 84.0527 14.7423 84.0527 15.247V17.0344ZM84.0527 9.88463C84.0527 10.3683 84.3812 10.7258 84.787 10.7678C85.2894 10.8309 85.7145 10.4104 85.7145 9.88463V8.09718C85.7145 7.61352 85.386 7.25603 84.9802 7.21397C84.4778 7.15088 84.0527 7.57146 84.0527 8.09718V9.88463Z" fill="#FFCC00"/>
</svg>
