<svg width="90" height="50" viewBox="0 0 72 83" fill="none" xmlns="http://www.w3.org/2000/svg">
<path d="M7.37972 47.84C6.59972 47.84 5.96973 47.2 5.96973 46.43C5.96973 45.65 6.59972 45.02 7.37972 45.02H36.4397C37.2197 45.02 37.8497 45.65 37.8497 46.43C37.8497 47.2 37.2197 47.84 36.4397 47.84H7.37972Z" fill="#FFCC00"/>
<path d="M7.37972 56.59C6.59972 56.59 5.96973 55.96 5.96973 55.18C5.96973 54.41 6.59972 53.77 7.37972 53.77H35.7397C36.5197 53.77 37.1497 54.41 37.1497 55.18C37.1497 55.96 36.5197 56.59 35.7397 56.59H7.37972Z" fill="#FFCC00"/>
<path d="M7.37972 65.35C6.59972 65.35 5.96973 64.72 5.96973 63.94C5.96973 63.16 6.59972 62.53 7.37972 62.53H38.6197C39.3897 62.53 40.0297 63.16 40.0297 63.94C40.0297 64.72 39.3897 65.35 38.6197 65.35H7.37972Z" fill="#FFCC00"/>
<path d="M7.37972 74.1098C6.59972 74.1098 5.96973 73.4798 5.96973 72.6998C5.96973 71.9198 6.59972 71.2898 7.37972 71.2898H40.7797C41.5597 71.2898 42.1897 71.9198 42.1897 72.6998C42.1897 73.4798 41.5597 74.1098 40.7797 74.1098H7.37972Z" fill="#FFCC00"/>
<path d="M65.4701 29.86V34.66C64.5801 34.07 63.6401 33.56 62.6501 33.13V29.86V4.60001C62.6501 4.11001 62.4501 3.67 62.1301 3.34C61.8001 3.02 61.3501 2.82001 60.8601 2.82001H14.6701C14.1801 2.82001 13.7301 3.02 13.4101 3.34C13.0801 3.67 12.8801 4.11001 12.8801 4.60001V4.67001H10.0601V4.60001C10.0601 3.34001 10.5801 2.18001 11.4101 1.35001C12.2501 0.520006 13.4001 0 14.6701 0H60.8601C62.1301 0 63.2801 0.520006 64.1201 1.35001C64.9501 2.18001 65.4701 3.34001 65.4701 4.60001V29.86ZM65.4701 65.25V68.46C65.4701 69.72 64.9501 70.88 64.1201 71.71C63.2801 72.54 62.1301 73.06 60.8601 73.06H60.1901V70.24H60.8601C61.3501 70.24 61.8001 70.04 62.1301 69.72C62.4501 69.39 62.6501 68.95 62.6501 68.46V66.77C63.6401 66.34 64.5801 65.83 65.4701 65.25Z" fill="#FFCC00"/>
<path d="M55.4098 74.9099H55.5898C56.0798 74.9099 56.5198 74.7099 56.8498 74.3899C57.1698 74.0599 57.3698 73.6099 57.3698 73.1199V68.1499C58.3398 68.0499 59.2798 67.8699 60.1898 67.6199V73.1199C60.1898 74.3899 59.6798 75.5399 58.8398 76.3799C58.0098 77.2099 56.8598 77.7299 55.5898 77.7299H55.4098V77.6699V74.9099ZM57.3698 31.7499V9.26992C57.3698 8.77992 57.1698 8.33992 56.8498 8.00992C56.5198 7.68992 56.0798 7.48992 55.5898 7.48992H9.38979C8.89979 7.48992 8.44978 7.68992 8.12978 8.00992C7.79978 8.33992 7.59978 8.77992 7.59978 9.26992V20.4199L4.77979 23.3699V9.26992C4.77979 7.99992 5.29979 6.84992 6.13979 6.01992C6.96979 5.17992 8.11979 4.66992 9.38979 4.66992H55.5898C56.8598 4.66992 58.0098 5.17992 58.8398 6.01992C59.6798 6.84992 60.1898 7.99992 60.1898 9.26992V32.2799C59.2798 32.0299 58.3398 31.8499 57.3698 31.7499Z" fill="#FFCC00"/>
<path d="M50.81 12.04H24.5H21.95H21.7C20.79 12.1 20.08 12.86 20.08 13.78V13.85V15.41V27.7C20.08 29.46 18.64 30.9 16.88 30.9H7.24H4.69H4.63H4.5C3.61 30.93 2.89 31.63 2.82 32.51V77.67C2.82 78.17 3.02 78.61 3.35 78.94C3.67 79.26 4.12 79.46 4.61 79.46H50.81C51.3 79.46 51.74 79.26 52.07 78.94C52.39 78.61 52.59 78.17 52.59 77.67V68.04C53.51 68.18 54.45 68.26 55.41 68.26V77.67C55.41 78.94 54.9 80.09 54.06 80.93C53.23 81.76 52.07 82.28 50.81 82.28H4.61C3.34 82.28 2.19 81.76 1.36 80.93C0.520001 80.09 0 78.94 0 77.67V31.58C0 30.7 0.099996 29.79 0.409996 28.87C0.719996 27.94 1.25 27.03 2.11 26.17L16.23 11.39L16.25 11.36C16.98 10.63 17.79 10.12 18.63 9.76997C19.58 9.37997 20.55 9.21997 21.46 9.21997H50.81C52.07 9.21997 53.23 9.72998 54.06 10.57C54.9 11.4 55.41 12.55 55.41 13.82V31.65C54.45 31.65 53.51 31.72 52.59 31.86V13.82C52.59 13.33 52.39 12.89 52.07 12.56C51.74 12.24 51.3 12.04 50.81 12.04Z" fill="#FFCC00"/>
<path d="M55.4101 33.5C59.8401 33.5 63.8501 35.3 66.7601 38.2C69.6601 41.1 71.4501 45.12 71.4501 49.54C71.4501 53.97 69.6601 57.98 66.7601 60.89C63.8501 63.79 59.8401 65.59 55.4101 65.59C50.9801 65.59 46.9701 63.79 44.0701 60.89C41.1701 57.98 39.3701 53.97 39.3701 49.54C39.3701 45.12 41.1701 41.1 44.0701 38.2C46.9701 35.3 50.9801 33.5 55.4101 33.5ZM64.7601 40.19C62.3701 37.8 59.0601 36.32 55.4101 36.32C51.7601 36.32 48.4501 37.8 46.0601 40.19C43.6701 42.59 42.1901 45.89 42.1901 49.54C42.1901 53.2 43.6701 56.5 46.0601 58.9C48.4501 61.29 51.7601 62.77 55.4101 62.77C59.0601 62.77 62.3701 61.29 64.7601 58.9C67.1601 56.5 68.6401 53.2 68.6401 49.54C68.6401 45.89 67.1601 42.59 64.7601 40.19Z" fill="#FFCC00"/>
<path d="M46.0199 52.5499C44.9899 51.6799 44.9199 50.1299 45.7899 49.0999C46.6599 48.0699 48.2099 47.9399 49.2399 48.8099C50.5699 49.9399 51.9099 51.0699 53.2399 52.1999C55.9499 49.1499 58.6599 46.1099 61.3599 43.0599C62.2599 42.0499 63.8099 41.9599 64.8199 42.8599C65.8299 43.7599 65.9199 45.2999 65.0199 46.3099C62.0099 49.6799 58.9999 53.0499 55.9999 56.4199C55.2199 57.4099 53.1999 58.4699 51.0399 56.7299C49.2299 55.1999 47.8299 54.0799 46.0199 52.5499Z" fill="#FFCC00"/>
</svg>
