<svg width="50" height="90" viewBox="0 0 58 78" fill="none" xmlns="http://www.w3.org/2000/svg">
<path d="M29.1197 73.9192V74.5392C29.1197 74.6292 29.0996 74.7092 29.0596 74.7592C29.0096 74.7992 28.9497 74.8292 28.8797 74.8292C28.8097 74.8292 28.7597 74.8092 28.7097 74.7592C28.6697 74.7092 28.6396 74.6392 28.6396 74.5392L28.6497 73.9092C28.6497 73.8192 28.6697 73.7392 28.7097 73.6992C28.7597 73.6492 28.8196 73.6192 28.8896 73.6292C28.9596 73.6292 29.0096 73.6492 29.0596 73.6992C29.0996 73.7392 29.1197 73.8192 29.1197 73.9192ZM29.1297 71.5592V72.1792C29.1297 72.2792 29.0996 72.3492 29.0596 72.3992C29.0196 72.4492 28.9596 72.4692 28.8896 72.4692C28.8196 72.4692 28.7597 72.4492 28.7197 72.3992C28.6697 72.3492 28.6497 72.2792 28.6497 72.1792V71.5592C28.6497 71.4592 28.6697 71.3892 28.7197 71.3392C28.7597 71.2892 28.8196 71.2692 28.8896 71.2692C28.9596 71.2692 29.0196 71.2892 29.0596 71.3392C29.1096 71.3892 29.1297 71.4592 29.1297 71.5592ZM29.1297 69.1992V69.8292C29.1297 69.9192 29.1096 69.9892 29.0596 70.0392C29.0196 70.0892 28.9596 70.1192 28.8896 70.1192C28.8196 70.1192 28.7597 70.0892 28.7197 70.0392C28.6797 69.9992 28.6497 69.9192 28.6497 69.8292L28.6597 69.1992C28.6597 69.0992 28.6797 69.0292 28.7197 68.9792C28.7697 68.9392 28.8297 68.9092 28.8997 68.9092C28.9697 68.9092 29.0197 68.9392 29.0697 68.9792C29.1097 69.0292 29.1297 69.0992 29.1297 69.1992ZM29.1396 66.8492V67.4692C29.1396 67.5592 29.1097 67.6392 29.0697 67.6892C29.0297 67.7292 28.9697 67.7592 28.8997 67.7592C28.8297 67.7592 28.7697 67.7292 28.7197 67.6892C28.6797 67.6392 28.6597 67.5692 28.6597 67.4692V66.8492C28.6597 66.7492 28.6797 66.6792 28.7297 66.6292C28.7697 66.5792 28.8297 66.5492 28.8997 66.5492C28.9697 66.5492 29.0297 66.5792 29.0697 66.6292C29.1197 66.6692 29.1396 66.7492 29.1396 66.8492ZM29.1396 64.4892V65.1092C29.1396 65.2092 29.1197 65.2792 29.0697 65.3292C29.0297 65.3792 28.9697 65.3992 28.8997 65.3992C28.8297 65.3992 28.7697 65.3792 28.7297 65.3292C28.6897 65.2792 28.6597 65.2092 28.6597 65.1092V64.4892C28.6697 64.3892 28.6897 64.3192 28.7297 64.2692C28.7797 64.2192 28.8297 64.1992 28.9097 64.1992C28.9797 64.1992 29.0297 64.2192 29.0797 64.2692C29.1197 64.3192 29.1396 64.3892 29.1396 64.4892Z" fill="#FFCC00"/>
<path d="M26.7699 74.0807L27.0399 74.6406C27.0799 74.7306 27.1299 74.7906 27.1899 74.8106C27.2499 74.8406 27.3099 74.8406 27.3699 74.8106C27.4399 74.7806 27.4799 74.7306 27.4999 74.6706C27.5199 74.6106 27.5099 74.5307 27.4699 74.4407L27.2099 73.8807C27.1599 73.7907 27.1099 73.7307 27.0499 73.7107C26.9899 73.6807 26.9299 73.6807 26.8699 73.7107C26.7999 73.7407 26.7599 73.7907 26.7399 73.8507C26.7199 73.9107 26.7299 73.9907 26.7699 74.0807ZM25.7799 71.9407L26.0399 72.5007C26.0799 72.5907 26.1299 72.6506 26.1899 72.6706C26.2599 72.7006 26.3199 72.7006 26.3799 72.6706C26.4499 72.6406 26.4899 72.5906 26.5099 72.5306C26.5299 72.4706 26.5199 72.3907 26.4799 72.3007L26.2099 71.7407C26.1699 71.6507 26.1199 71.5907 26.0599 71.5707C25.9999 71.5407 25.9399 71.5507 25.8799 71.5807C25.8099 71.6107 25.7699 71.6507 25.7499 71.7107C25.7299 71.7707 25.7399 71.8507 25.7799 71.9407ZM24.7899 69.8007L25.0499 70.3707C25.0899 70.4507 25.1399 70.5106 25.1999 70.5306C25.2599 70.5606 25.3299 70.5606 25.3899 70.5306C25.4499 70.5006 25.4999 70.4507 25.5199 70.3907C25.5399 70.3307 25.5299 70.2606 25.4799 70.1706L25.2199 69.6007C25.1799 69.5107 25.1299 69.4607 25.0699 69.4307C25.0099 69.4107 24.9499 69.4107 24.8799 69.4407C24.8199 69.4707 24.7799 69.5107 24.7599 69.5707C24.7399 69.6407 24.7499 69.7107 24.7899 69.8007ZM23.7999 67.6607L24.0599 68.2307C24.0999 68.3207 24.1499 68.3707 24.2099 68.4007C24.2699 68.4207 24.3399 68.4207 24.3999 68.3907C24.4599 68.3607 24.5099 68.3207 24.5299 68.2507C24.5399 68.1907 24.5299 68.1206 24.4899 68.0306L24.2299 67.4607C24.1899 67.3707 24.1399 67.3207 24.0799 67.2907C24.0199 67.2707 23.9599 67.2707 23.8899 67.3007C23.8299 67.3307 23.7899 67.3707 23.7699 67.4407C23.7499 67.5007 23.7599 67.5707 23.7999 67.6607ZM22.8099 65.5306L23.0699 66.0906C23.1099 66.1806 23.1599 66.2307 23.2199 66.2607C23.2799 66.2907 23.3399 66.2807 23.4099 66.2607C23.4699 66.2307 23.5099 66.1807 23.5299 66.1207C23.5499 66.0507 23.5399 65.9807 23.4999 65.8907L23.2399 65.3307C23.1999 65.2407 23.1499 65.1807 23.0899 65.1507C23.0299 65.1307 22.9599 65.1307 22.8999 65.1607C22.8399 65.1907 22.7899 65.2407 22.7699 65.3007C22.7499 65.3607 22.7599 65.4406 22.8099 65.5306Z" fill="#FFCC00"/>
<path d="M24.8497 74.3993L25.3597 74.7593C25.4397 74.8093 25.5097 74.8393 25.5697 74.8293C25.6397 74.8193 25.6897 74.7893 25.7297 74.7293C25.7697 74.6693 25.7897 74.6093 25.7697 74.5493C25.7597 74.4793 25.7097 74.4193 25.6297 74.3693L25.1197 74.0093C25.0397 73.9493 24.9697 73.9293 24.8997 73.9393C24.8397 73.9493 24.7797 73.9793 24.7397 74.0393C24.6997 74.0993 24.6897 74.1593 24.6997 74.2193C24.7197 74.2793 24.7597 74.3393 24.8497 74.3993ZM22.9197 73.0493L23.4297 73.4093C23.4997 73.4593 23.5797 73.4793 23.6397 73.4793C23.7097 73.4693 23.7597 73.4393 23.7997 73.3793C23.8397 73.3193 23.8597 73.2593 23.8397 73.1893C23.8297 73.1293 23.7797 73.0693 23.6997 73.0193L23.1897 72.6593C23.1097 72.5993 23.0397 72.5793 22.9697 72.5893C22.9097 72.5993 22.8497 72.6293 22.8097 72.6893C22.7697 72.7393 22.7597 72.8093 22.7697 72.8693C22.7897 72.9293 22.8297 72.9893 22.9197 73.0493ZM20.9897 71.6993L21.4997 72.0493C21.5697 72.1093 21.6497 72.1293 21.7097 72.1193C21.7797 72.1193 21.8297 72.0793 21.8697 72.0293C21.9097 71.9693 21.9197 71.9093 21.9097 71.8393C21.8997 71.7793 21.8497 71.7193 21.7697 71.6593L21.2597 71.3093C21.1797 71.2493 21.1097 71.2293 21.0397 71.2293C20.9797 71.2393 20.9197 71.2793 20.8797 71.3293C20.8397 71.3893 20.8297 71.4493 20.8397 71.5193C20.8597 71.5793 20.8997 71.6393 20.9897 71.6993ZM19.0497 70.3393L19.5697 70.6993C19.6397 70.7593 19.7197 70.7793 19.7797 70.7693C19.8497 70.7593 19.8997 70.7293 19.9397 70.6693C19.9797 70.6193 19.9897 70.5493 19.9797 70.4893C19.9697 70.4293 19.9197 70.3693 19.8397 70.3093L19.3297 69.9493C19.2497 69.8993 19.1797 69.8793 19.1097 69.8793C19.0497 69.8893 18.9897 69.9293 18.9497 69.9793C18.9097 70.0393 18.8997 70.0993 18.9097 70.1693C18.9297 70.2293 18.9697 70.2893 19.0497 70.3393ZM17.1197 68.9893L17.6397 69.3493C17.7097 69.4093 17.7897 69.4293 17.8497 69.4193C17.9197 69.4093 17.9697 69.3793 18.0097 69.3193C18.0497 69.2693 18.0597 69.1993 18.0497 69.1393C18.0397 69.0793 17.9897 69.0193 17.9097 68.9593L17.3997 68.5993C17.3197 68.5493 17.2497 68.5193 17.1797 68.5293C17.1197 68.5393 17.0597 68.5693 17.0197 68.6293C16.9797 68.6893 16.9697 68.7493 16.9797 68.8093C16.9997 68.8793 17.0397 68.9393 17.1197 68.9893Z" fill="#FFCC00"/>
<path d="M32.5299 74.3993L32.0199 74.7593C31.9399 74.8093 31.8699 74.8393 31.8099 74.8293C31.7399 74.8193 31.6899 74.7893 31.6499 74.7293C31.6099 74.6693 31.5899 74.6093 31.6099 74.5493C31.6199 74.4793 31.6699 74.4193 31.7499 74.3693L32.2599 74.0093C32.3399 73.9493 32.4099 73.9293 32.4799 73.9393C32.5399 73.9493 32.5899 73.9793 32.6299 74.0393C32.6699 74.0993 32.6899 74.1593 32.6699 74.2193C32.6599 74.2793 32.6099 74.3393 32.5299 74.3993ZM34.4599 73.0493L33.9499 73.4093C33.8699 73.4593 33.7999 73.4793 33.7399 73.4793C33.6699 73.4693 33.6199 73.4393 33.5799 73.3793C33.5399 73.3193 33.5199 73.2593 33.5399 73.1893C33.5499 73.1293 33.5999 73.0693 33.6799 73.0193L34.1899 72.6593C34.2699 72.5993 34.3399 72.5793 34.4099 72.5893C34.4699 72.5993 34.5199 72.6293 34.5599 72.6893C34.5999 72.7493 34.6199 72.8093 34.5999 72.8693C34.5899 72.9293 34.5399 72.9893 34.4599 73.0493ZM36.3899 71.6993L35.8799 72.0493C35.7999 72.1093 35.7299 72.1293 35.6699 72.1193C35.5999 72.1193 35.5499 72.0793 35.5099 72.0293C35.4699 71.9693 35.4499 71.9093 35.4699 71.8393C35.4799 71.7793 35.5299 71.7193 35.6099 71.6593L36.1199 71.3093C36.1999 71.2493 36.2699 71.2293 36.3399 71.2293C36.3999 71.2393 36.4499 71.2793 36.4999 71.3293C36.5399 71.3893 36.5499 71.4493 36.5399 71.5193C36.5199 71.5793 36.4699 71.6393 36.3899 71.6993ZM38.3199 70.3393L37.8099 70.6993C37.7399 70.7593 37.6599 70.7793 37.5999 70.7693C37.5299 70.7593 37.4799 70.7293 37.4399 70.6693C37.3999 70.6193 37.3799 70.5493 37.3999 70.4893C37.4099 70.4293 37.4599 70.3693 37.5399 70.3093L38.0499 69.9493C38.1299 69.8993 38.1999 69.8793 38.2699 69.8793C38.3299 69.8893 38.3799 69.9293 38.4299 69.9793C38.4699 70.0393 38.4799 70.0993 38.4599 70.1693C38.4499 70.2293 38.3999 70.2893 38.3199 70.3393ZM40.2499 68.9893L39.7399 69.3493C39.6699 69.4093 39.5899 69.4293 39.5299 69.4193C39.4599 69.4093 39.4099 69.3793 39.3699 69.3193C39.3299 69.2693 39.3199 69.1993 39.3299 69.1393C39.3399 69.0793 39.3899 69.0193 39.4699 68.9593L39.9799 68.5993C40.0599 68.5493 40.1299 68.5193 40.1999 68.5293C40.2599 68.5393 40.3099 68.5693 40.3599 68.6293C40.3999 68.6893 40.4099 68.7493 40.3999 68.8093C40.3799 68.8793 40.3299 68.9393 40.2499 68.9893Z" fill="#FFCC00"/>
<path d="M30.2997 73.8802L30.0297 74.4402C29.9897 74.5302 29.9797 74.6002 29.9997 74.6602C30.0197 74.7302 30.0598 74.7702 30.1298 74.8002C30.1898 74.8302 30.2497 74.8402 30.3097 74.8102C30.3697 74.7902 30.4197 74.7302 30.4697 74.6402L30.7298 74.0802C30.7698 73.9902 30.7798 73.9102 30.7598 73.8502C30.7398 73.7902 30.6997 73.7402 30.6397 73.7102C30.5697 73.6802 30.5098 73.6802 30.4498 73.7102C30.3898 73.7302 30.3397 73.7902 30.2997 73.8802ZM31.2997 71.7402L31.0297 72.3102C30.9897 72.3902 30.9797 72.4702 30.9997 72.5302C31.0197 72.5902 31.0598 72.6402 31.1198 72.6702C31.1898 72.7002 31.2497 72.7002 31.3097 72.6802C31.3697 72.6502 31.4198 72.6002 31.4598 72.5102L31.7298 71.9402C31.7698 71.8602 31.7798 71.7802 31.7598 71.7202C31.7398 71.6602 31.6997 71.6102 31.6397 71.5802C31.5697 71.5502 31.5098 71.5502 31.4498 71.5702C31.3898 71.6002 31.3397 71.6502 31.2997 71.7402ZM32.2997 69.6102L32.0297 70.1702C31.9897 70.2602 31.9797 70.3302 31.9997 70.4002C32.0197 70.4602 32.0598 70.5102 32.1298 70.5402C32.1898 70.5702 32.2497 70.5702 32.3097 70.5502C32.3697 70.5202 32.4197 70.4602 32.4697 70.3802L32.7298 69.8102C32.7698 69.7202 32.7798 69.6502 32.7598 69.5802C32.7398 69.5202 32.6997 69.4802 32.6397 69.4502C32.5697 69.4202 32.5098 69.4102 32.4498 69.4402C32.3898 69.4602 32.3397 69.5202 32.2997 69.6102ZM33.2997 67.4702L33.0297 68.0402C32.9897 68.1302 32.9797 68.2002 32.9997 68.2602C33.0197 68.3302 33.0598 68.3702 33.1298 68.4002C33.1898 68.4302 33.2497 68.4402 33.3097 68.4102C33.3697 68.3902 33.4197 68.3302 33.4697 68.2402L33.7298 67.6802C33.7698 67.5902 33.7798 67.5102 33.7598 67.4502C33.7398 67.3902 33.6997 67.3402 33.6397 67.3102C33.5697 67.2802 33.5098 67.2802 33.4498 67.3002C33.3898 67.3302 33.3397 67.3802 33.2997 67.4702ZM34.2997 65.3402L34.0297 65.9102C33.9897 65.9902 33.9797 66.0702 33.9997 66.1302C34.0197 66.1902 34.0598 66.2402 34.1298 66.2702C34.1898 66.3002 34.2497 66.3002 34.3097 66.2802C34.3697 66.2502 34.4197 66.2002 34.4697 66.1102L34.7298 65.5402C34.7698 65.4502 34.7798 65.3802 34.7598 65.3202C34.7398 65.2602 34.6997 65.2102 34.6397 65.1802C34.5697 65.1502 34.5098 65.1502 34.4498 65.1702C34.3898 65.1902 34.3397 65.2502 34.2997 65.3402Z" fill="#FFCC00"/>
<path d="M3.41977 48.1196H2.79977C2.70977 48.1196 2.62977 48.1396 2.57977 48.1796C2.52977 48.2296 2.50977 48.2896 2.50977 48.3596C2.50977 48.4296 2.52977 48.4896 2.57977 48.5296C2.62977 48.5696 2.69977 48.5996 2.79977 48.5996L3.42977 48.5896C3.51977 48.5896 3.59977 48.5696 3.63977 48.5296C3.68977 48.4796 3.70977 48.4196 3.70977 48.3496C3.70977 48.2796 3.68977 48.2296 3.63977 48.1796C3.59977 48.1396 3.51977 48.1196 3.41977 48.1196ZM5.77977 48.1096H5.15977C5.05977 48.1096 4.98977 48.1396 4.93977 48.1796C4.88977 48.2196 4.86977 48.2796 4.86977 48.3496C4.86977 48.4196 4.88977 48.4796 4.93977 48.5196C4.98977 48.5696 5.05977 48.5896 5.15977 48.5896H5.77977C5.87977 48.5896 5.94977 48.5696 5.99977 48.5196C6.04977 48.4796 6.06977 48.4196 6.06977 48.3496C6.06977 48.2796 6.04977 48.2196 5.99977 48.1796C5.94977 48.1296 5.87977 48.1096 5.77977 48.1096ZM8.13977 48.1096H7.50977C7.41977 48.1096 7.34977 48.1296 7.29977 48.1796C7.24977 48.2196 7.21976 48.2796 7.21976 48.3496C7.21976 48.4196 7.24977 48.4796 7.29977 48.5196C7.33977 48.5596 7.41977 48.5896 7.50977 48.5896L8.13977 48.5796C8.23977 48.5796 8.30977 48.5596 8.35977 48.5196C8.39977 48.4696 8.42977 48.4096 8.42977 48.3396C8.42977 48.2696 8.39977 48.2196 8.35977 48.1696C8.30977 48.1296 8.23977 48.1096 8.13977 48.1096ZM10.4898 48.0996H9.86977C9.77977 48.0996 9.69977 48.1296 9.64977 48.1696C9.60977 48.2196 9.57977 48.2696 9.57977 48.3396C9.57977 48.4096 9.60977 48.4696 9.64977 48.5096C9.69977 48.5596 9.76977 48.5796 9.86977 48.5796H10.4998C10.5898 48.5796 10.6598 48.5596 10.7098 48.5096C10.7598 48.4696 10.7898 48.4096 10.7898 48.3396C10.7798 48.2696 10.7598 48.2096 10.7098 48.1696C10.6698 48.1196 10.5898 48.0996 10.4898 48.0996ZM12.8498 48.0996H12.2298C12.1298 48.0996 12.0598 48.1196 12.0098 48.1696C11.9598 48.2096 11.9398 48.2696 11.9398 48.3396C11.9398 48.4096 11.9598 48.4696 12.0098 48.5096C12.0598 48.5496 12.1298 48.5796 12.2298 48.5796H12.8498C12.9498 48.5696 13.0198 48.5496 13.0698 48.5096C13.1198 48.4596 13.1398 48.4096 13.1398 48.3296C13.1398 48.2596 13.1198 48.2096 13.0698 48.1596C13.0198 48.1196 12.9498 48.0996 12.8498 48.0996Z" fill="#FFCC00"/>
<path d="M3.25982 50.4705L2.69982 50.2005C2.60982 50.1605 2.54982 50.1105 2.52982 50.0505C2.49982 49.9905 2.49982 49.9305 2.52982 49.8705C2.55982 49.8005 2.60982 49.7605 2.66982 49.7405C2.72982 49.7205 2.80982 49.7305 2.89982 49.7705L3.45982 50.0305C3.54982 50.0705 3.60982 50.1305 3.62982 50.1905C3.65982 50.2505 3.65982 50.3105 3.62982 50.3705C3.59982 50.4405 3.54982 50.4805 3.48982 50.5005C3.42982 50.5205 3.34982 50.5105 3.25982 50.4705ZM5.39982 51.4605L4.82982 51.2005C4.74982 51.1605 4.68982 51.1105 4.66982 51.0405C4.63982 50.9805 4.63982 50.9205 4.66982 50.8605C4.69982 50.7905 4.74982 50.7505 4.80982 50.7305C4.86982 50.7105 4.94983 50.7205 5.03983 50.7605L5.59982 51.0305C5.68982 51.0705 5.74982 51.1205 5.76982 51.1805C5.79982 51.2405 5.78982 51.3005 5.75982 51.3605C5.72982 51.4305 5.68982 51.4705 5.62982 51.4905C5.56982 51.5105 5.48982 51.5005 5.39982 51.4605ZM7.53983 52.4505L6.96982 52.1905C6.88982 52.1505 6.82982 52.1005 6.79982 52.0405C6.77982 51.9805 6.77982 51.9105 6.80982 51.8505C6.83982 51.7905 6.88982 51.7405 6.94982 51.7205C7.00982 51.7005 7.07982 51.7105 7.16982 51.7605L7.73982 52.0205C7.82982 52.0605 7.87982 52.1105 7.90982 52.1705C7.92982 52.2305 7.92982 52.2905 7.89982 52.3605C7.86982 52.4205 7.82982 52.4605 7.76982 52.4805C7.69982 52.5005 7.62983 52.4905 7.53983 52.4505ZM9.67983 53.4405L9.10983 53.1805C9.01983 53.1405 8.96982 53.0905 8.93982 53.0305C8.91982 52.9705 8.91982 52.9005 8.94982 52.8405C8.97982 52.7805 9.01982 52.7305 9.07982 52.7105C9.14982 52.7005 9.21982 52.7105 9.30982 52.7505L9.87982 53.0105C9.96982 53.0505 10.0198 53.1005 10.0498 53.1605C10.0698 53.2205 10.0698 53.2805 10.0398 53.3505C10.0098 53.4105 9.96982 53.4505 9.89982 53.4705C9.83982 53.4905 9.76983 53.4805 9.67983 53.4405ZM11.8098 54.4305L11.2498 54.1705C11.1598 54.1305 11.1098 54.0805 11.0798 54.0205C11.0498 53.9605 11.0598 53.9005 11.0898 53.8305C11.1098 53.7705 11.1598 53.7305 11.2198 53.7105C11.2898 53.6905 11.3598 53.7005 11.4498 53.7405L12.0098 54.0005C12.0998 54.0405 12.1598 54.0905 12.1798 54.1505C12.2098 54.2105 12.2098 54.2805 12.1798 54.3405C12.1498 54.4005 12.0998 54.4505 12.0398 54.4705C11.9798 54.4905 11.8998 54.4805 11.8098 54.4305Z" fill="#FFCC00"/>
<path d="M2.93973 52.3907L2.57973 51.8807C2.52973 51.8007 2.49973 51.7307 2.50973 51.6707C2.51973 51.6007 2.54973 51.5507 2.60973 51.5107C2.66973 51.4707 2.72973 51.4507 2.78973 51.4707C2.85973 51.4807 2.91973 51.5307 2.96973 51.6107L3.32973 52.1207C3.38973 52.2007 3.40973 52.2707 3.39973 52.3407C3.38973 52.4007 3.35973 52.4507 3.29973 52.5007C3.23973 52.5407 3.17973 52.5507 3.11973 52.5407C3.05973 52.5207 2.99973 52.4707 2.93973 52.3907ZM4.28973 54.3207L3.92973 53.8107C3.87973 53.7407 3.85973 53.6607 3.85973 53.6007C3.86973 53.5307 3.89973 53.4807 3.95973 53.4407C4.01973 53.4007 4.07973 53.3807 4.14973 53.4007C4.20973 53.4107 4.26973 53.4607 4.31973 53.5407L4.67973 54.0507C4.73973 54.1307 4.75973 54.2007 4.74973 54.2707C4.73973 54.3307 4.70973 54.3907 4.64973 54.4307C4.59973 54.4707 4.52973 54.4807 4.46973 54.4707C4.40973 54.4507 4.34973 54.4107 4.28973 54.3207ZM5.63973 56.2507L5.28973 55.7407C5.22973 55.6707 5.20973 55.5907 5.21973 55.5307C5.21973 55.4607 5.25973 55.4107 5.30973 55.3707C5.36973 55.3307 5.42973 55.3207 5.49973 55.3307C5.55973 55.3407 5.61973 55.3907 5.67973 55.4707L6.02973 55.9807C6.08973 56.0607 6.10973 56.1307 6.10973 56.2007C6.09973 56.2607 6.05973 56.3207 5.99973 56.3607C5.94973 56.4007 5.88973 56.4107 5.81973 56.4007C5.75973 56.3807 5.69973 56.3407 5.63973 56.2507ZM6.99973 58.1907L6.63973 57.6707C6.57973 57.6007 6.55973 57.5207 6.56973 57.4607C6.57973 57.3907 6.60973 57.3407 6.65973 57.3007C6.71973 57.2607 6.78973 57.2507 6.84973 57.2607C6.90973 57.2707 6.96973 57.3207 7.02973 57.4007L7.38973 57.9107C7.43973 57.9907 7.45973 58.0607 7.45973 58.1307C7.44973 58.1907 7.40973 58.2507 7.35973 58.2907C7.29973 58.3307 7.23973 58.3407 7.16973 58.3307C7.10973 58.3107 7.04973 58.2707 6.99973 58.1907ZM8.34973 60.1207L7.98973 59.6007C7.92973 59.5307 7.90973 59.4507 7.91973 59.3907C7.92973 59.3207 7.95973 59.2707 8.01973 59.2307C8.06973 59.1907 8.13973 59.1807 8.19973 59.1907C8.25973 59.2007 8.31973 59.2507 8.37973 59.3307L8.73973 59.8407C8.78973 59.9207 8.81973 59.9907 8.80973 60.0607C8.79973 60.1207 8.76973 60.1807 8.70973 60.2207C8.64973 60.2607 8.58973 60.2707 8.52973 60.2607C8.45973 60.2407 8.39973 60.2007 8.34973 60.1207Z" fill="#FFCC00"/>
<path d="M2.93973 44.7095L2.57973 45.2195C2.52973 45.2995 2.49973 45.3695 2.50973 45.4295C2.51973 45.4995 2.54973 45.5495 2.60973 45.5895C2.66973 45.6295 2.72973 45.6495 2.78973 45.6295C2.85973 45.6195 2.91973 45.5695 2.96973 45.4895L3.32973 44.9795C3.38973 44.8995 3.40973 44.8295 3.39973 44.7595C3.38973 44.6995 3.35973 44.6495 3.29973 44.6095C3.23973 44.5695 3.17973 44.5495 3.11973 44.5695C3.05973 44.5795 2.99973 44.6295 2.93973 44.7095ZM4.28973 42.7795L3.92973 43.2895C3.87973 43.3695 3.85973 43.4395 3.85973 43.4995C3.86973 43.5695 3.89973 43.6195 3.95973 43.6595C4.01973 43.6995 4.07973 43.7195 4.14973 43.6995C4.20973 43.6895 4.26973 43.6395 4.31973 43.5595L4.67973 43.0495C4.73973 42.9695 4.75973 42.8995 4.74973 42.8295C4.73973 42.7695 4.70973 42.7195 4.64973 42.6795C4.59973 42.6295 4.52973 42.6195 4.46973 42.6295C4.40973 42.6495 4.34973 42.6995 4.28973 42.7795ZM5.63973 40.8495L5.28973 41.3595C5.22973 41.4295 5.20973 41.5095 5.21973 41.5695C5.21973 41.6395 5.25973 41.6895 5.30973 41.7295C5.36973 41.7695 5.42973 41.7895 5.49973 41.7695C5.55973 41.7595 5.61973 41.7095 5.67973 41.6295L6.02973 41.1195C6.08973 41.0395 6.10973 40.9695 6.10973 40.8995C6.09973 40.8395 6.05973 40.7895 5.99973 40.7395C5.94973 40.6995 5.88973 40.6895 5.81973 40.6995C5.75973 40.7195 5.69973 40.7695 5.63973 40.8495ZM6.99973 38.9195L6.63973 39.4295C6.57973 39.4995 6.55973 39.5795 6.56973 39.6395C6.57973 39.7095 6.60973 39.7595 6.65973 39.7995C6.71973 39.8395 6.78973 39.8495 6.84973 39.8395C6.90973 39.8295 6.96973 39.7795 7.02973 39.6995L7.38973 39.1895C7.43973 39.1095 7.45973 39.0395 7.45973 38.9695C7.44973 38.9095 7.40973 38.8595 7.35973 38.8095C7.29973 38.7695 7.23973 38.7595 7.16973 38.7795C7.10973 38.7895 7.04973 38.8395 6.99973 38.9195ZM8.34973 36.9895L7.98973 37.4995C7.92973 37.5795 7.90973 37.6495 7.91973 37.7095C7.92973 37.7795 7.95973 37.8295 8.01973 37.8695C8.06973 37.9095 8.13973 37.9195 8.19973 37.9095C8.25973 37.8995 8.31973 37.8495 8.37973 37.7695L8.73973 37.2595C8.78973 37.1795 8.81973 37.1095 8.80973 37.0395C8.79973 36.9795 8.76973 36.9195 8.70973 36.8795C8.64973 36.8395 8.58973 36.8295 8.52973 36.8395C8.45973 36.8595 8.39973 36.8995 8.34973 36.9895Z" fill="#FFCC00"/>
<path d="M3.45968 46.9407L2.89967 47.2107C2.80967 47.2507 2.73968 47.2607 2.67968 47.2407C2.60968 47.2207 2.56968 47.1807 2.52968 47.1107C2.50968 47.0507 2.49968 46.9907 2.52968 46.9307C2.54968 46.8707 2.60967 46.8207 2.69967 46.7707L3.25967 46.5107C3.34967 46.4707 3.42968 46.4607 3.48968 46.4807C3.54968 46.5007 3.59967 46.5407 3.62967 46.6007C3.65967 46.6707 3.65967 46.7307 3.62967 46.7907C3.60967 46.8507 3.54968 46.9007 3.45968 46.9407ZM5.59968 45.9407L5.02968 46.2107C4.94968 46.2507 4.86967 46.2607 4.80967 46.2407C4.74967 46.2207 4.69968 46.1807 4.66968 46.1107C4.63968 46.0507 4.63967 45.9907 4.65967 45.9307C4.68967 45.8707 4.73967 45.8207 4.82967 45.7707L5.39967 45.5107C5.47967 45.4707 5.55967 45.4607 5.61967 45.4807C5.67967 45.5007 5.72967 45.5407 5.75967 45.6007C5.78967 45.6707 5.78967 45.7307 5.76967 45.7907C5.73967 45.8507 5.68968 45.9007 5.59968 45.9407ZM7.72967 44.9407L7.16968 45.2107C7.07968 45.2507 7.00967 45.2607 6.93967 45.2407C6.87967 45.2207 6.82967 45.1807 6.79967 45.1107C6.76967 45.0507 6.76968 44.9907 6.78968 44.9307C6.81968 44.8707 6.87968 44.8207 6.95968 44.7707L7.52968 44.5107C7.61968 44.4707 7.68967 44.4607 7.75967 44.4807C7.81967 44.5007 7.85968 44.5407 7.88968 44.6007C7.91968 44.6707 7.92967 44.7307 7.89967 44.7907C7.87967 44.8507 7.81967 44.9007 7.72967 44.9407ZM9.85968 43.9407L9.29967 44.2107C9.20967 44.2507 9.13967 44.2607 9.07967 44.2407C9.00967 44.2207 8.96967 44.1807 8.93967 44.1107C8.90967 44.0507 8.89968 43.9907 8.92968 43.9307C8.94968 43.8707 9.00968 43.8207 9.09968 43.7707L9.65967 43.5107C9.74967 43.4707 9.82968 43.4607 9.88968 43.4807C9.94968 43.5007 9.99968 43.5407 10.0297 43.6007C10.0597 43.6707 10.0597 43.7307 10.0397 43.7907C10.0097 43.8507 9.94968 43.9007 9.85968 43.9407ZM11.9997 42.9407L11.4297 43.2107C11.3497 43.2507 11.2697 43.2607 11.2097 43.2407C11.1497 43.2207 11.0997 43.1807 11.0697 43.1107C11.0397 43.0507 11.0397 42.9907 11.0597 42.9307C11.0897 42.8707 11.1397 42.8207 11.2297 42.7707L11.7997 42.5107C11.8897 42.4707 11.9597 42.4607 12.0197 42.4807C12.0797 42.5007 12.1297 42.5407 12.1597 42.6007C12.1897 42.6707 12.1897 42.7307 12.1697 42.7907C12.1397 42.8507 12.0897 42.9007 11.9997 42.9407Z" fill="#FFCC00"/>
<path d="M53.9397 48.9798H54.5597C54.6497 48.9798 54.7297 48.9598 54.7797 48.9198C54.8297 48.8698 54.8497 48.8198 54.8497 48.7498C54.8497 48.6698 54.8297 48.6198 54.7797 48.5698C54.7297 48.5298 54.6597 48.5098 54.5597 48.5098H53.9297C53.8397 48.5098 53.7597 48.5298 53.7197 48.5698C53.6697 48.6198 53.6497 48.6798 53.6497 48.7498C53.6497 48.8198 53.6697 48.8698 53.7197 48.9198C53.7597 48.9598 53.8397 48.9798 53.9397 48.9798ZM51.5797 48.9898H52.1997C52.2997 48.9898 52.3697 48.9698 52.4197 48.9198C52.4697 48.8798 52.4897 48.8198 52.4897 48.7498C52.4897 48.6798 52.4697 48.6198 52.4197 48.5798C52.3697 48.5298 52.2997 48.5098 52.1997 48.5098H51.5797C51.4797 48.5098 51.4097 48.5298 51.3597 48.5798C51.3097 48.6198 51.2897 48.6798 51.2897 48.7498C51.2897 48.8198 51.3097 48.8798 51.3597 48.9198C51.4097 48.9698 51.4797 48.9898 51.5797 48.9898ZM49.2197 48.9898H49.8497C49.9397 48.9898 50.0097 48.9698 50.0597 48.9298C50.1097 48.8798 50.1397 48.8298 50.1397 48.7498C50.1397 48.6798 50.1097 48.6298 50.0597 48.5798C50.0197 48.5398 49.9397 48.5198 49.8497 48.5198H49.2197C49.1197 48.5198 49.0497 48.5398 48.9997 48.5798C48.9597 48.6298 48.9297 48.6898 48.9297 48.7598C48.9297 48.8298 48.9597 48.8798 48.9997 48.9298C49.0497 48.9698 49.1197 48.9898 49.2197 48.9898ZM46.8697 48.9998H47.4897C47.5797 48.9998 47.6597 48.9798 47.7097 48.9298C47.7497 48.8898 47.7797 48.8298 47.7797 48.7598C47.7797 48.6898 47.7597 48.6298 47.7097 48.5898C47.6597 48.5398 47.5897 48.5198 47.4897 48.5198H46.8697C46.7697 48.5198 46.6997 48.5398 46.6497 48.5898C46.5997 48.6298 46.5697 48.6898 46.5797 48.7598C46.5797 48.8298 46.5997 48.8898 46.6497 48.9298C46.6897 48.9798 46.7697 48.9998 46.8697 48.9998ZM44.5097 48.9998H45.1297C45.2297 48.9998 45.2997 48.9798 45.3497 48.9398C45.3997 48.8898 45.4197 48.8298 45.4197 48.7598C45.4197 48.6898 45.3997 48.6398 45.3497 48.5898C45.2997 48.5498 45.2297 48.5298 45.1297 48.5298H44.5097C44.4097 48.5298 44.3397 48.5498 44.2897 48.5898C44.2397 48.6398 44.2197 48.6998 44.2197 48.7698C44.2197 48.8398 44.2397 48.8898 44.2897 48.9398C44.3397 48.9798 44.4097 48.9998 44.5097 48.9998Z" fill="#FFCC00"/>
<path d="M54.0997 46.6309L54.6597 46.9009C54.7497 46.9409 54.8097 46.9909 54.8297 47.0509C54.8597 47.1109 54.8597 47.1709 54.8297 47.2309C54.7997 47.3009 54.7497 47.3409 54.6897 47.3609C54.6297 47.3809 54.5497 47.3709 54.4597 47.3309L53.8997 47.0709C53.8097 47.0309 53.7497 46.9809 53.7297 46.9109C53.6997 46.8509 53.6997 46.7909 53.7297 46.7309C53.7597 46.6609 53.8097 46.6209 53.8697 46.6009C53.9297 46.5809 54.0097 46.5909 54.0997 46.6309ZM51.9597 45.6409L52.5297 45.9009C52.6097 45.9409 52.6697 46.0009 52.6897 46.0609C52.7197 46.1209 52.7197 46.1809 52.6897 46.2409C52.6597 46.3109 52.6097 46.3509 52.5497 46.3709C52.4897 46.3909 52.4097 46.3809 52.3197 46.3409L51.7597 46.0809C51.6697 46.0309 51.6097 45.9809 51.5897 45.9209C51.5597 45.8609 51.5697 45.8009 51.5997 45.7409C51.6297 45.6709 51.6697 45.6309 51.7297 45.6109C51.7897 45.5909 51.8697 45.6009 51.9597 45.6409ZM49.8197 44.6509L50.3897 44.9109C50.4697 44.9509 50.5297 45.0009 50.5597 45.0609C50.5797 45.1309 50.5797 45.1909 50.5497 45.2509C50.5197 45.3209 50.4697 45.3609 50.4097 45.3809C50.3497 45.4009 50.2797 45.3909 50.1897 45.3509L49.6197 45.0809C49.5297 45.0409 49.4797 44.9909 49.4497 44.9309C49.4297 44.8709 49.4297 44.8109 49.4597 44.7409C49.4897 44.6809 49.5297 44.6409 49.5997 44.6209C49.6597 44.6009 49.7297 44.6109 49.8197 44.6509ZM47.6797 43.6609L48.2497 43.9209C48.3397 43.9609 48.3897 44.0109 48.4197 44.0709C48.4397 44.1309 48.4397 44.2009 48.4097 44.2609C48.3797 44.3209 48.3397 44.3709 48.2797 44.3909C48.2097 44.4109 48.1397 44.4009 48.0497 44.3509L47.4797 44.0909C47.3897 44.0509 47.3397 44.0009 47.3097 43.9409C47.2897 43.8809 47.2897 43.8209 47.3197 43.7509C47.3497 43.6909 47.3897 43.6509 47.4597 43.6309C47.5197 43.6109 47.5897 43.6209 47.6797 43.6609ZM45.5497 42.6709L46.1097 42.9309C46.1997 42.9709 46.2497 43.0209 46.2797 43.0809C46.3097 43.1409 46.2997 43.2009 46.2697 43.2709C46.2497 43.3309 46.1997 43.3709 46.1397 43.3909C46.0797 43.4109 45.9997 43.4009 45.9097 43.3609L45.3497 43.1009C45.2597 43.0609 45.1997 43.0109 45.1797 42.9509C45.1497 42.8909 45.1497 42.8309 45.1797 42.7609C45.2097 42.7009 45.2597 42.6609 45.3197 42.6409C45.3797 42.6209 45.4597 42.6309 45.5497 42.6709Z" fill="#FFCC00"/>
<path d="M54.4198 44.7095L54.7798 45.2195C54.8298 45.2995 54.8598 45.3695 54.8498 45.4295C54.8398 45.4995 54.8098 45.5495 54.7498 45.5895C54.6898 45.6295 54.6298 45.6495 54.5698 45.6295C54.4998 45.6195 54.4398 45.5695 54.3898 45.4895L54.0298 44.9795C53.9698 44.8995 53.9498 44.8295 53.9598 44.7595C53.9698 44.6995 53.9998 44.6495 54.0598 44.6095C54.1198 44.5695 54.1798 44.5495 54.2398 44.5695C54.2998 44.5795 54.3598 44.6295 54.4198 44.7095ZM53.0698 42.7795L53.4298 43.2895C53.4798 43.3695 53.4998 43.4395 53.4998 43.4995C53.4898 43.5695 53.4598 43.6195 53.3998 43.6595C53.3398 43.6995 53.2798 43.7195 53.2098 43.6995C53.1498 43.6895 53.0898 43.6395 53.0398 43.5595L52.6798 43.0495C52.6198 42.9695 52.5998 42.8995 52.6098 42.8295C52.6198 42.7695 52.6498 42.7195 52.7098 42.6795C52.7698 42.6295 52.8298 42.6195 52.8898 42.6295C52.9498 42.6495 53.0098 42.6995 53.0698 42.7795ZM51.7198 40.8495L52.0698 41.3595C52.1298 41.4295 52.1498 41.5095 52.1398 41.5695C52.1398 41.6395 52.0998 41.6895 52.0498 41.7295C51.9898 41.7695 51.9298 41.7895 51.8598 41.7695C51.7998 41.7595 51.7398 41.7095 51.6798 41.6295L51.3298 41.1195C51.2698 41.0395 51.2498 40.9695 51.2498 40.8995C51.2598 40.8395 51.2998 40.7895 51.3598 40.7395C51.4098 40.6995 51.4698 40.6895 51.5398 40.6995C51.5998 40.7195 51.6598 40.7695 51.7198 40.8495ZM50.3598 38.9195L50.7198 39.4295C50.7798 39.4995 50.7998 39.5795 50.7898 39.6395C50.7798 39.7095 50.7498 39.7595 50.6998 39.7995C50.6398 39.8395 50.5798 39.8495 50.5098 39.8395C50.4498 39.8295 50.3898 39.7795 50.3298 39.6995L49.9698 39.1895C49.9198 39.1095 49.8998 39.0395 49.8998 38.9695C49.9098 38.9095 49.9498 38.8595 49.9998 38.8095C50.0598 38.7695 50.1198 38.7595 50.1898 38.7795C50.2498 38.7895 50.3098 38.8395 50.3598 38.9195ZM49.0098 36.9895L49.3698 37.4995C49.4298 37.5795 49.4498 37.6495 49.4398 37.7095C49.4298 37.7795 49.3998 37.8295 49.3398 37.8695C49.2898 37.9095 49.2198 37.9195 49.1598 37.9095C49.0998 37.8995 49.0398 37.8495 48.9798 37.7695L48.6198 37.2595C48.5698 37.1795 48.5398 37.1095 48.5498 37.0395C48.5598 36.9795 48.5898 36.9195 48.6498 36.8795C48.7098 36.8395 48.7698 36.8295 48.8298 36.8395C48.8998 36.8595 48.9598 36.8995 49.0098 36.9895Z" fill="#FFCC00"/>
<path d="M54.4198 52.3907L54.7798 51.8807C54.8298 51.8007 54.8598 51.7307 54.8498 51.6707C54.8398 51.6007 54.8098 51.5507 54.7498 51.5107C54.6898 51.4707 54.6298 51.4507 54.5698 51.4707C54.4998 51.4807 54.4398 51.5307 54.3898 51.6107L54.0298 52.1207C53.9698 52.2007 53.9498 52.2707 53.9598 52.3407C53.9698 52.4007 53.9998 52.4507 54.0598 52.5007C54.1198 52.5407 54.1798 52.5507 54.2398 52.5407C54.2998 52.5207 54.3598 52.4707 54.4198 52.3907ZM53.0698 54.3207L53.4298 53.8107C53.4798 53.7407 53.4998 53.6607 53.4998 53.6007C53.4898 53.5307 53.4598 53.4807 53.3998 53.4407C53.3398 53.4007 53.2798 53.3807 53.2098 53.4007C53.1498 53.4107 53.0898 53.4607 53.0398 53.5407L52.6798 54.0507C52.6198 54.1307 52.5998 54.2007 52.6098 54.2707C52.6198 54.3307 52.6498 54.3907 52.7098 54.4307C52.7698 54.4707 52.8298 54.4807 52.8898 54.4707C52.9498 54.4507 53.0098 54.4107 53.0698 54.3207ZM51.7198 56.2507L52.0698 55.7407C52.1298 55.6707 52.1498 55.5907 52.1398 55.5307C52.1398 55.4607 52.0998 55.4107 52.0498 55.3707C51.9898 55.3307 51.9298 55.3207 51.8598 55.3307C51.7998 55.3407 51.7398 55.3907 51.6798 55.4707L51.3298 55.9807C51.2698 56.0607 51.2498 56.1307 51.2598 56.2007C51.2598 56.2607 51.2998 56.3207 51.3598 56.3607C51.4098 56.4007 51.4698 56.4107 51.5398 56.4007C51.5998 56.3807 51.6598 56.3407 51.7198 56.2507ZM50.3598 58.1907L50.7198 57.6707C50.7798 57.6007 50.7998 57.5207 50.7898 57.4607C50.7798 57.3907 50.7498 57.3407 50.6998 57.3007C50.6398 57.2607 50.5798 57.2507 50.5098 57.2607C50.4498 57.2707 50.3898 57.3207 50.3298 57.4007L49.9698 57.9107C49.9198 57.9907 49.8998 58.0607 49.8998 58.1307C49.9098 58.1907 49.9498 58.2507 49.9998 58.2907C50.0598 58.3307 50.1198 58.3407 50.1898 58.3307C50.2498 58.3107 50.3098 58.2707 50.3598 58.1907ZM49.0098 60.1207L49.3698 59.6007C49.4298 59.5307 49.4498 59.4507 49.4398 59.3907C49.4298 59.3207 49.3998 59.2707 49.3398 59.2307C49.2898 59.1907 49.2198 59.1807 49.1598 59.1907C49.0998 59.2007 49.0398 59.2507 48.9798 59.3307L48.6198 59.8407C48.5698 59.9207 48.5398 59.9907 48.5498 60.0607C48.5598 60.1207 48.5898 60.1807 48.6498 60.2207C48.7098 60.2607 48.7698 60.2707 48.8298 60.2607C48.8998 60.2407 48.9598 60.2007 49.0098 60.1207Z" fill="#FFCC00"/>
<path d="M53.8997 50.1596L54.4597 49.8896C54.5497 49.8496 54.6197 49.8396 54.6797 49.8596C54.7497 49.8796 54.7897 49.9196 54.8297 49.9896C54.8497 50.0496 54.8597 50.1096 54.8297 50.1696C54.8097 50.2296 54.7497 50.2796 54.6597 50.3296L54.0997 50.5896C54.0097 50.6296 53.9297 50.6396 53.8697 50.6196C53.8097 50.5996 53.7597 50.5596 53.7297 50.4996C53.6997 50.4296 53.6997 50.3696 53.7297 50.3096C53.7497 50.2496 53.8097 50.1996 53.8997 50.1596ZM51.7597 51.1596L52.3297 50.8896C52.4097 50.8496 52.4897 50.8396 52.5497 50.8596C52.6097 50.8796 52.6597 50.9196 52.6897 50.9896C52.7197 51.0496 52.7197 51.1096 52.6997 51.1696C52.6697 51.2296 52.6197 51.2896 52.5297 51.3296L51.9597 51.5896C51.8797 51.6296 51.7997 51.6396 51.7397 51.6196C51.6797 51.5996 51.6297 51.5596 51.5997 51.4996C51.5697 51.4396 51.5697 51.3696 51.5897 51.3096C51.6197 51.2496 51.6697 51.1996 51.7597 51.1596ZM49.6297 52.1596L50.1897 51.8996C50.2797 51.8496 50.3497 51.8396 50.4197 51.8596C50.4797 51.8796 50.5297 51.9196 50.5597 51.9896C50.5897 52.0496 50.5897 52.1096 50.5697 52.1696C50.5397 52.2296 50.4797 52.2896 50.3997 52.3296L49.8297 52.5896C49.7397 52.6296 49.6697 52.6396 49.5997 52.6196C49.5397 52.5996 49.4997 52.5596 49.4697 52.4996C49.4397 52.4296 49.4297 52.3696 49.4597 52.3096C49.4797 52.2496 49.5397 52.1996 49.6297 52.1596ZM47.4997 53.1596L48.0597 52.8996C48.1497 52.8496 48.2197 52.8396 48.2797 52.8596C48.3497 52.8796 48.3897 52.9196 48.4197 52.9896C48.4497 53.0496 48.4597 53.1096 48.4297 53.1696C48.4097 53.2296 48.3497 53.2896 48.2597 53.3296L47.6997 53.5896C47.6097 53.6296 47.5297 53.6396 47.4697 53.6196C47.4097 53.6096 47.3597 53.5596 47.3297 53.4996C47.2997 53.4396 47.2997 53.3696 47.3197 53.3096C47.3497 53.2496 47.4097 53.1996 47.4997 53.1596ZM45.3597 54.1596L45.9297 53.8996C46.0097 53.8596 46.0897 53.8396 46.1497 53.8596C46.2097 53.8796 46.2597 53.9196 46.2897 53.9896C46.3197 54.0496 46.3197 54.1096 46.2997 54.1796C46.2697 54.2296 46.2197 54.2896 46.1297 54.3296L45.5597 54.5896C45.4697 54.6296 45.3997 54.6396 45.3397 54.6196C45.2797 54.5996 45.2297 54.5596 45.1997 54.4996C45.1697 54.4296 45.1697 54.3696 45.1897 54.3096C45.2197 54.2496 45.2697 54.1996 45.3597 54.1596Z" fill="#FFCC00"/>
<path d="M8.25988 22.0402C8.20988 22.1402 8.11989 22.2502 7.99989 22.3602C7.89989 22.4502 7.78988 22.5402 7.68988 22.6202L7.55988 22.7402L7.31989 22.9502L7.10989 23.1702L6.89988 23.4002L6.68988 23.6502L6.02988 24.5202C5.35988 24.3002 4.67989 24.0902 3.99989 23.8802L3.20988 25.9202C3.83988 26.2102 4.46989 26.5002 5.10989 26.7802L5.11988 27.1802C5.11988 27.2902 5.10988 27.4402 5.09988 27.6102V27.6402C5.06988 27.9002 5.03988 28.2402 5.04988 28.5102C5.06988 28.9402 5.10988 29.2702 5.16988 29.7002C5.18988 29.8102 5.18988 29.9202 5.18988 30.0002L5.14988 30.3402L3.34988 31.2702L4.23988 33.2702L6.11988 32.5602L6.38988 32.7502C6.51988 32.8302 6.69988 33.0602 6.84988 33.2402L6.97988 33.4002L7.19988 33.6402L7.41988 33.8502L7.63988 34.0502L7.89988 34.2602C7.95988 34.3102 8.02988 34.3602 8.08988 34.4002L8.11988 34.4202C8.23988 34.5102 8.34988 34.5902 8.44988 34.6802L8.74989 34.9602L8.11988 36.9502L10.1499 37.7402L11.0299 35.8602L11.4099 35.8302C11.4799 35.8302 11.5399 35.8302 11.5899 35.8402L11.8199 35.8602C12.0099 35.8802 12.1999 35.8902 12.3799 35.9002C12.5699 35.9102 12.7499 35.9102 12.9299 35.9002C13.0999 35.8902 13.2899 35.8702 13.4799 35.8502C13.6599 35.8302 13.8499 35.8002 14.0499 35.7602L14.5199 35.6702L15.5199 37.6102C16.1899 37.3202 16.8499 37.0202 17.5199 36.7202L16.7799 34.7502L17.0699 34.4502C17.1399 34.3802 17.2299 34.3102 17.3099 34.2502C17.4199 34.1602 17.5299 34.0702 17.6399 33.9802L17.8799 33.7502L18.0899 33.5302L18.2999 33.3102L18.4899 33.0702L19.1699 32.1802L19.6099 32.3302L20.9699 32.7602V32.7502L21.1999 32.8302L21.9799 30.8002L20.0799 29.9202V29.5102C20.0799 29.3602 20.0899 29.2202 20.1099 29.0802L20.1299 28.8202L20.1499 28.4802V28.1802L20.1399 27.8802L20.1099 27.5602L20.0699 27.3302C20.0399 27.1002 19.9999 26.8402 20.0199 26.7002L20.0599 26.3602L21.8599 25.4302L20.9699 23.4502L19.0799 24.1502L18.7999 23.9602C18.6799 23.8702 18.4999 23.6502 18.3499 23.4802L18.2199 23.3102C18.1399 23.2302 18.0699 23.1502 17.9999 23.0702L17.7799 22.8602L17.5499 22.6602C17.3299 22.4702 17.1499 22.3402 16.9199 22.1702C16.8599 22.1202 16.7999 22.0702 16.7399 22.0202L16.4499 21.7402C16.6599 21.0802 16.8699 20.4102 17.0799 19.7502L15.0399 18.9602C14.9299 19.2102 14.8099 19.4602 14.6999 19.7002C14.6899 19.7602 14.6899 19.8002 14.6599 19.8802L14.6499 19.9202C14.6299 19.9702 14.5999 20.0102 14.5799 20.0402L14.5299 20.1102L14.1399 20.9102L13.0799 20.8202L12.7499 20.8102L12.4499 20.8002L12.1499 20.8202C11.9199 20.8402 11.7099 20.8502 11.4799 20.8902L11.4399 20.9002C11.3499 20.9202 11.2599 20.9402 11.1599 20.9402C11.0599 20.9502 10.9399 20.9402 10.8199 20.9002C10.7799 20.8802 10.7599 20.8702 10.7199 20.8502C10.5099 20.7302 10.0999 19.9202 9.75988 19.2702L9.67989 19.1102L7.68988 19.9902L7.75988 20.1802C7.97988 20.7502 8.33989 21.6802 8.28989 21.9302C8.27989 21.9802 8.26988 21.9902 8.25988 22.0402ZM6.87988 21.6302C6.90988 21.6002 6.93988 21.5802 6.96988 21.5602L6.84988 21.3002C6.74988 21.1002 6.63988 20.8502 6.54988 20.6402C6.50988 20.5202 6.39988 20.1802 6.33988 20.0702C6.26988 19.9202 6.23988 19.8302 6.23988 19.6902C6.22988 19.4502 6.26988 19.3102 6.36988 19.2102C6.45988 19.1002 6.56988 19.0602 6.71988 19.0102C7.80988 18.6202 9.14989 17.9302 10.2499 17.4502L10.5399 17.9502L10.6799 18.2302L10.9099 18.6802C11.0399 18.9402 11.1599 19.2102 11.2399 19.4202L11.3199 19.6102L11.6799 19.5602L12.0599 19.5302L12.4299 19.5202H12.7899C12.9899 19.5202 13.1699 19.5302 13.3599 19.5502C13.4199 19.4502 13.4499 19.3902 13.4799 19.2802L13.5599 19.1002C13.6699 18.8602 13.7799 18.6202 13.8899 18.3802C13.9299 18.2702 13.9799 18.1602 14.0399 18.0402C14.0999 17.9202 14.1599 17.8102 14.2199 17.7402L14.4899 17.4102L14.8999 17.5402C15.0399 17.5802 15.2899 17.6702 15.5799 17.7802L18.5099 18.9302V19.3702C18.5099 19.5402 18.2299 20.4102 18.0999 20.8002L17.9399 21.3102L18.1099 21.4502L18.3999 21.6802L18.6599 21.9202C18.7499 22.0002 18.8299 22.0802 18.9199 22.1702C18.9999 22.2602 19.0899 22.3502 19.1799 22.4602C19.2399 22.5302 19.2999 22.6002 19.3599 22.6702L21.3599 21.9302L21.6299 22.0902C21.8599 22.2302 21.9799 22.5402 22.0499 22.7102C22.1299 22.8802 22.2099 23.0502 22.2799 23.2202C22.6299 24.0102 23.2599 25.4002 23.3099 25.5702L23.4299 26.0702L21.3499 27.1402L21.3899 27.4202C21.3999 27.5502 21.4099 27.6802 21.4199 27.8002C21.4299 27.9202 21.4299 28.0402 21.4399 28.1602V28.5202L21.4199 28.8902L21.3999 29.1102L23.6199 30.1402L22.0199 34.2802L21.5599 34.2602C21.4599 34.2602 21.3599 34.2302 21.2499 34.2002C21.1499 34.1702 21.0499 34.1402 20.9699 34.1102C20.5299 33.9602 20.0799 33.8302 19.6399 33.6902C19.5199 33.8502 19.3999 33.9902 19.2699 34.1502L19.0399 34.4102C18.9599 34.5002 18.8699 34.5902 18.7799 34.6702C18.6999 34.7602 18.5999 34.8402 18.4999 34.9402L18.2899 35.1202L19.1399 37.3902C18.5799 37.6502 18.0199 37.9102 17.4499 38.1702L16.5199 38.5802L15.8499 38.8702C15.6799 38.9502 15.5399 39.0102 15.4399 39.0402L14.9099 39.2302L13.8099 37.1102L13.4599 37.1502C13.2999 37.1702 13.1399 37.1802 12.9799 37.1802C12.7699 37.1902 12.5599 37.2002 12.3399 37.1902C12.1799 37.1802 12.0099 37.1802 11.8399 37.1602L10.8199 39.3802L6.66988 37.7802L6.68988 37.3202C6.69988 37.1302 6.79989 36.8402 6.85989 36.6602L7.25988 35.4002L7.08988 35.2602L6.79988 35.0302L6.53989 34.7902C6.44989 34.7102 6.36988 34.6302 6.27988 34.5402L6.01988 34.2502L5.83988 34.0402L3.54988 34.9002L1.68988 30.6802L3.84988 29.5602L3.80988 29.2902C3.78988 29.0302 3.76988 28.8002 3.75988 28.5402C3.74988 28.2202 3.77988 27.8802 3.79988 27.6102L2.70988 27.1102C2.51988 27.0202 2.34988 26.9402 2.22988 26.8802C2.09988 26.8102 2.00988 26.7602 1.96988 26.7302L1.62988 26.4302C2.16988 25.0502 2.69988 23.6802 3.22988 22.3002C3.99988 22.5402 4.78988 22.7702 5.55988 23.0202C5.67988 22.8502 5.79989 22.7202 5.92989 22.5602L6.15988 22.3002L6.41988 22.0402C6.50988 21.9502 6.59988 21.8602 6.69988 21.7702C6.74988 21.7402 6.82988 21.6602 6.87988 21.6302ZM10.7099 24.5202C10.4899 24.6302 10.2999 24.7402 10.1199 24.8702C9.93988 24.9902 9.77988 25.1302 9.62988 25.2702C9.47988 25.4102 9.34988 25.5602 9.21988 25.7302C9.08988 25.8902 8.97988 26.0702 8.86988 26.2502C8.69988 26.5402 8.56988 26.8702 8.46988 27.2102C8.37988 27.5402 8.32989 27.8902 8.31989 28.2502C8.30989 28.5902 8.33988 28.9402 8.41988 29.2902C8.48988 29.6102 8.60988 29.9502 8.76988 30.2702C9.02988 30.7802 9.37988 31.2302 9.79988 31.5902C10.2199 31.9602 10.7199 32.2402 11.2599 32.4202C11.7799 32.5902 12.3399 32.6702 12.9099 32.6302C13.4499 32.5902 13.9899 32.4402 14.5199 32.1802L14.6499 32.1102C15.0999 31.8702 15.4899 31.5502 15.8199 31.1702C16.1899 30.7502 16.4699 30.2702 16.6499 29.7402C16.8299 29.2102 16.9099 28.6502 16.8699 28.0702C16.8399 27.5302 16.6899 26.9802 16.4299 26.4502L16.4099 26.4002C16.3199 26.2202 16.2199 26.0502 16.0999 25.8902C15.9799 25.7202 15.8399 25.5502 15.6899 25.4002C15.5499 25.2402 15.3899 25.1002 15.2199 24.9702C15.0599 24.8402 14.8899 24.7302 14.7099 24.6302C14.3999 24.4602 14.0699 24.3202 13.7199 24.2302C13.3799 24.1302 13.0299 24.0802 12.6799 24.0702C12.3299 24.0602 11.9899 24.1002 11.6499 24.1702C11.3299 24.2402 11.0099 24.3602 10.7099 24.5202ZM8.73988 24.3402C8.92988 24.1502 9.14988 23.9802 9.36988 23.8202C9.59988 23.6602 9.84988 23.5102 10.1199 23.3702C10.5199 23.1602 10.9399 23.0102 11.3699 22.9102C11.8099 22.8102 12.2599 22.7702 12.7099 22.7902C13.1699 22.8002 13.6199 22.8602 14.0599 22.9802C14.4999 23.1102 14.9299 23.2802 15.3299 23.5002C15.5699 23.6302 15.7999 23.7802 16.0099 23.9502C16.2299 24.1202 16.4399 24.3002 16.6299 24.5102C16.8199 24.7102 16.9899 24.9202 17.1499 25.1502C17.2799 25.3302 17.3999 25.5202 17.5099 25.7202L17.5899 25.8702C17.9299 26.5602 18.1199 27.2802 18.1599 27.9902C18.2099 28.7302 18.1099 29.4702 17.8699 30.1602C17.6299 30.8402 17.2699 31.4802 16.7899 32.0202C16.3499 32.5302 15.8099 32.9602 15.1999 33.2802L15.0899 33.3402C14.4099 33.6802 13.6999 33.8602 12.9999 33.9102C12.2599 33.9702 11.5299 33.8702 10.8499 33.6402C10.1599 33.4102 9.50988 33.0402 8.94988 32.5602C8.40988 32.0902 7.94988 31.5102 7.61988 30.8402C7.40988 30.4202 7.25988 29.9902 7.15988 29.5702C7.05988 29.1102 7.01988 28.6602 7.02988 28.2202C7.03988 27.7502 7.11988 27.2902 7.22988 26.8602C7.35988 26.4102 7.52989 25.9902 7.74989 25.6102C7.88989 25.3702 8.03988 25.1502 8.19988 24.9302C8.36988 24.7202 8.54988 24.5202 8.73988 24.3402Z" fill="#FFCC00"/>
<path d="M28.6801 47.75C30.7701 47.75 32.6701 48.6 34.0401 49.97C35.4101 51.34 36.2601 53.23 36.2601 55.32C36.2601 57.42 35.4101 59.31 34.0401 60.68C32.6701 62.06 30.7701 62.9 28.6801 62.9C26.5901 62.9 24.6901 62.06 23.3201 60.68C21.9501 59.31 21.1001 57.42 21.1001 55.32C21.1001 53.23 21.9501 51.34 23.3201 49.97C24.6901 48.6 26.5901 47.75 28.6801 47.75ZM33.3701 50.64C32.1701 49.44 30.5101 48.7 28.6801 48.7C26.8501 48.7 25.1901 49.44 23.9901 50.64C22.7901 51.84 22.0501 53.49 22.0501 55.32C22.0501 57.16 22.7901 58.81 23.9901 60.01C25.1901 61.21 26.8501 61.95 28.6801 61.95C30.5101 61.95 32.1701 61.21 33.3701 60.01C34.5701 58.81 35.3101 57.16 35.3101 55.32C35.3101 53.49 34.5701 51.84 33.3701 50.64Z" fill="#FFCC00"/>
<path d="M20.0598 2.56055H37.4998L39.5198 4.58054V15.5405C39.5198 16.1505 39.2698 16.7005 38.8698 17.1005C38.4698 17.5005 37.9098 17.7505 37.2998 17.7505H20.0598C19.4498 17.7505 18.8898 17.5005 18.4898 17.1005C18.0898 16.7005 17.8398 16.1505 17.8398 15.5405V4.58054L19.8598 2.56055H20.0598ZM37.0998 3.51054H20.2598L18.7898 4.97054V15.5405C18.7898 15.8805 18.9298 16.2005 19.1598 16.4305C19.3898 16.6605 19.7098 16.8005 20.0598 16.8005H37.2998C37.6498 16.8005 37.9698 16.6605 38.1998 16.4305C38.4298 16.2005 38.5698 15.8805 38.5698 15.5405V4.97054L37.0998 3.51054Z" fill="#FFCC00"/>
<path d="M20.8199 12.2405C20.5799 12.4605 20.1999 12.4305 19.9799 12.1905C19.7599 11.9405 19.7898 11.5705 20.0298 11.3505C21.2198 10.2905 22.5899 9.47055 24.0499 8.91055C25.5199 8.35055 27.0799 8.06055 28.6799 8.06055C30.2699 8.06055 31.8398 8.35055 33.3098 8.91055C34.7698 9.47055 36.1399 10.3005 37.3299 11.3605C37.5699 11.5805 37.5899 11.9505 37.3799 12.2005C37.1599 12.4405 36.7799 12.4605 36.5399 12.2505C35.4599 11.2805 34.2199 10.5305 32.8799 10.0205C31.5499 9.51055 30.1299 9.25054 28.6799 9.25054C27.2299 9.25054 25.7999 9.51055 24.4699 10.0205C23.1399 10.5305 21.8999 11.2805 20.8199 12.2405Z" fill="#FFCC00"/>
<path d="M29.4597 15.2011C29.6397 15.4711 29.5597 15.8411 29.2897 16.0111C29.0097 16.1911 28.6497 16.1111 28.4697 15.8411L25.5297 11.3111C25.3497 11.0311 25.4297 10.6711 25.7097 10.4911C25.9797 10.3111 26.3497 10.3911 26.5197 10.6611L29.4597 15.2011Z" fill="#FFCC00"/>
<path d="M23.5601 6.19055C23.4901 6.01055 23.5901 5.80056 23.7701 5.74056C23.9601 5.67056 24.1601 5.76055 24.2301 5.94055L24.9101 7.77056C24.9801 7.96056 24.8801 8.16055 24.7001 8.23055C24.5201 8.30055 24.3101 8.21056 24.2401 8.02056L23.5601 6.19055Z" fill="#FFCC00"/>
<path d="M28.3398 5.28969C28.3398 5.08969 28.4998 4.92969 28.6898 4.92969C28.8898 4.92969 29.0498 5.08969 29.0498 5.28969V7.22969C29.0498 7.42969 28.8898 7.58969 28.6898 7.58969C28.4898 7.58969 28.3398 7.42969 28.3398 7.22969V5.28969Z" fill="#FFCC00"/>
<path d="M33.1499 5.95044C33.2199 5.76044 33.4299 5.67044 33.6099 5.74044C33.7899 5.80044 33.8899 6.01043 33.8199 6.19043L33.1299 8.03044C33.0699 8.21044 32.8599 8.30044 32.6799 8.24044C32.4899 8.17044 32.3999 7.96044 32.4699 7.78044L33.1499 5.95044Z" fill="#FFCC00"/>
<path d="M37.42 8.0805C37.54 7.9205 37.76 7.9005 37.92 8.0205C38.07 8.1505 38.09 8.3705 37.97 8.5205L36.72 10.0605C36.59 10.2205 36.37 10.2405 36.22 10.1205C36.07 9.9905 36.04 9.7705 36.17 9.6205L37.42 8.0805Z" fill="#FFCC00"/>
<path d="M19.3699 8.56081C19.2399 8.41081 19.2599 8.18081 19.4099 8.06081C19.5599 7.93081 19.7799 7.95081 19.9099 8.10081L21.1899 9.60081C21.3199 9.75081 21.2999 9.97081 21.1499 10.1008C20.9999 10.2308 20.7799 10.2108 20.6499 10.0608L19.3699 8.56081Z" fill="#FFCC00"/>
<path fill-rule="evenodd" clip-rule="evenodd" d="M18.8198 20.1809L19.6698 18.7109H21.3598L22.2098 20.1809L21.3598 21.6509H19.6698L18.8198 20.1809ZM19.8498 20.1809C19.8498 19.8109 20.1498 19.5209 20.5098 19.5209C20.8798 19.5209 21.1698 19.8109 21.1698 20.1809C21.1698 20.5409 20.8798 20.8409 20.5098 20.8409C20.1498 20.8409 19.8498 20.5409 19.8498 20.1809Z" fill="#FFCC00"/>
<path fill-rule="evenodd" clip-rule="evenodd" d="M22.8501 20.1809L23.7001 18.7109H25.4001L26.2401 20.1809L25.4001 21.6509H23.7001L22.8501 20.1809ZM23.8901 20.1809C23.8901 19.8109 24.1801 19.5209 24.5501 19.5209C24.9101 19.5209 25.2101 19.8109 25.2101 20.1809C25.2101 20.5409 24.9101 20.8409 24.5501 20.8409C24.1801 20.8409 23.8901 20.5409 23.8901 20.1809Z" fill="#FFCC00"/>
<path fill-rule="evenodd" clip-rule="evenodd" d="M32.0499 28.2298C32.0799 28.7698 31.9699 29.3298 31.6999 29.8598C30.8899 31.4298 28.9599 32.0398 27.3799 31.2298C25.8099 30.4198 25.1999 28.4898 25.9999 26.9198C26.2699 26.3998 26.6699 25.9798 27.1299 25.6898L31.8799 22.5098L32.0499 28.2298ZM29.8899 26.3798C30.9699 26.9398 31.3999 28.2698 30.8399 29.3598C30.2799 30.4398 28.9499 30.8698 27.8599 30.3098C26.7699 29.7498 26.3499 28.4198 26.9099 27.3298C27.4699 26.2498 28.7999 25.8198 29.8899 26.3798Z" fill="#FFCC00"/>
<path d="M23.5898 33.0293H37.3998C37.9798 33.0293 38.5098 33.2693 38.8998 33.6493C39.2798 34.0293 39.5198 34.5593 39.5198 35.1493V44.2193H17.8398C17.8398 42.4793 17.8398 40.7393 17.8398 38.9893C17.8398 38.2893 18.7898 38.3693 18.7898 38.9893V43.2693H38.5698V35.1493C38.5698 34.8193 38.4398 34.5293 38.2298 34.3193C38.0098 34.1093 37.7198 33.9793 37.3998 33.9793H23.5898C23.0598 33.9793 23.0598 33.0293 23.5898 33.0293Z" fill="#FFCC00"/>
<path d="M28.6801 34.6504C29.1901 34.6504 29.6501 34.8604 29.9901 35.1904C30.3201 35.5304 30.5301 35.9904 30.5301 36.5004C30.5301 37.0104 30.3201 37.4704 29.9901 37.8104C29.6501 38.1504 29.1901 38.3504 28.6801 38.3504C28.1701 38.3504 27.7101 38.1504 27.3701 37.8104C27.0401 37.4704 26.8301 37.0104 26.8301 36.5004C26.8301 35.9904 27.0401 35.5304 27.3701 35.1904C27.7101 34.8604 28.1701 34.6504 28.6801 34.6504ZM29.4901 35.7004C29.2801 35.4904 29.0001 35.3604 28.6801 35.3604C28.3601 35.3604 28.0801 35.4904 27.8801 35.7004C27.6701 35.9004 27.5401 36.1904 27.5401 36.5004C27.5401 36.8204 27.6701 37.1004 27.8701 37.3104C28.0801 37.5104 28.3601 37.6404 28.6801 37.6404C29.0001 37.6404 29.2801 37.5104 29.4901 37.3104C29.6901 37.1004 29.8201 36.8204 29.8201 36.5004C29.8201 36.1904 29.6901 35.9004 29.4901 35.7004Z" fill="#FFCC00"/>
<path d="M28.18 37.0407C28.07 37.1007 27.92 37.0707 27.86 36.9507C27.79 36.8407 27.83 36.6907 27.94 36.6307L29.18 35.9107C29.29 35.8507 29.44 35.8907 29.5 36.0007C29.57 36.1207 29.53 36.2607 29.42 36.3307L28.18 37.0407Z" fill="#FFCC00"/>
<path d="M19.13 0H38.23C38.78 0 39.3 0.110005 39.78 0.310005C40.28 0.510005 40.72 0.810002 41.1 1.19C41.47 1.56 41.78 2.01 41.98 2.51C42.18 2.99 42.29 3.51001 42.29 4.06001V19.89C43.22 19.91 44.12 20.1 44.93 20.44C45.83 20.81 46.63 21.36 47.31 22.03C47.98 22.7 48.53 23.51 48.9 24.41C49.25 25.27 49.45 26.21 49.45 27.19V29.39C51.94 32 53.94 35.08 55.3 38.48C56.63 41.78 57.36 45.39 57.36 49.16C57.36 53.04 56.59 56.75 55.19 60.12C53.73 63.64 51.6 66.79 48.96 69.44C46.32 72.08 43.16 74.21 39.65 75.66C36.27 77.07 32.56 77.84 28.68 77.84C24.8 77.84 21.09 77.06 17.71 75.66C14.2 74.21 11.04 72.08 8.39999 69.44C5.75999 66.79 3.63 63.64 2.17 60.12C0.769998 56.75 0 53.04 0 49.16C0 46.76 0.300001 44.42 0.860001 42.19C1.43 39.89 2.28 37.7 3.37 35.65H3.38C3.58 35.3 3.92 35.18 4.23 35.21C4.34 35.22 4.45 35.25 4.55 35.3C4.64 35.35 4.73 35.42 4.8 35.5C4.96 35.69 5.01 35.94 4.87 36.21C3.81 38.16 2.98 40.26 2.42 42.47C1.87 44.61 1.57999 46.85 1.57999 49.16C1.57999 52.83 2.31 56.33 3.63 59.52C5.01 62.84 7.02 65.82 9.52 68.32C12.02 70.82 15 72.83 18.32 74.2C21.51 75.53 25.01 76.26 28.68 76.26C32.35 76.26 35.85 75.53 39.04 74.2C42.36 72.83 45.34 70.82 47.84 68.32C50.34 65.82 52.35 62.84 53.73 59.52C55.05 56.33 55.78 52.83 55.78 49.16C55.78 45.81 55.17 42.61 54.06 39.65C52.98 36.75 51.41 34.09 49.45 31.76V48.74C49.45 49.81 49.24 50.84 48.85 51.78C48.44 52.75 47.85 53.63 47.11 54.37C46.38 55.1 45.5 55.69 44.53 56.1C43.59 56.49 42.56 56.71 41.49 56.71H36.6C36.51 56.84 36.38 56.96 36.24 57.05C36.07 57.15 35.87 57.21 35.65 57.21H34.5C34.36 57.65 34.17 58.06 33.94 58.45C33.68 58.89 33.36 59.29 33 59.65C32.44 60.21 31.77 60.67 31.02 60.98C30.3 61.28 29.51 61.44 28.68 61.44C27.85 61.44 27.06 61.28 26.34 60.98C25.59 60.67 24.92 60.21 24.36 59.65C23.79 59.09 23.34 58.41 23.03 57.66C22.73 56.94 22.56 56.15 22.56 55.33C22.56 54.5 22.73 53.71 23.03 52.99C23.34 52.24 23.79 51.56 24.36 51C24.92 50.44 25.59 49.98 26.34 49.67C27.06 49.37 27.85 49.21 28.68 49.21C29.51 49.21 30.3 49.37 31.02 49.67C31.77 49.98 32.44 50.44 33 51C33.36 51.36 33.67 51.76 33.94 52.2C34.17 52.59 34.36 53 34.5 53.44H35.65C35.87 53.44 36.08 53.51 36.26 53.62C36.41 53.71 36.53 53.84 36.63 53.98H41.49C42.19 53.98 42.87 53.84 43.48 53.58C44.13 53.32 44.7 52.92 45.19 52.44C45.67 51.96 46.06 51.38 46.33 50.74C46.59 50.12 46.73 49.44 46.73 48.74V28.95C46.01 28.31 45.27 27.71 44.49 27.15C43.78 26.64 43.05 26.16 42.29 25.72V43.28C42.29 43.82 42.18 44.35 41.98 44.83C41.78 45.32 41.47 45.77 41.1 46.14C40.72 46.52 40.28 46.82 39.78 47.03C39.3 47.23 38.78 47.34 38.23 47.34H19.13C18.58 47.34 18.06 47.23 17.58 47.03C17.08 46.82 16.63 46.52 16.26 46.14C15.89 45.77 15.58 45.32 15.38 44.83C15.18 44.35 15.07 43.82 15.07 43.28V40.56C15.07 40.24 15.28 40.04 15.55 39.95C15.65 39.92 15.75 39.91 15.85 39.91C15.96 39.91 16.06 39.92 16.16 39.95C16.43 40.04 16.65 40.24 16.65 40.56V43.28C16.65 43.61 16.72 43.93 16.84 44.22C16.96 44.52 17.15 44.8 17.38 45.03C17.61 45.26 17.88 45.44 18.18 45.57C18.47 45.69 18.79 45.75 19.13 45.75H38.23C38.57 45.75 38.89 45.69 39.18 45.57C39.48 45.44 39.75 45.26 39.98 45.03C40.21 44.8 40.4 44.52 40.52 44.22C40.64 43.93 40.71 43.61 40.71 43.28V22.64L38.53 23.06C38.29 23.33 37.99 23.55 37.65 23.71C37.31 23.86 36.92 23.95 36.52 23.95C35.77 23.95 35.09 23.65 34.6 23.16C34.11 22.66 33.8 21.98 33.8 21.23C33.8 20.48 34.11 19.8 34.6 19.31C35.09 18.82 35.77 18.51 36.52 18.51C36.88 18.51 37.22 18.58 37.54 18.71C37.84 18.83 38.12 19.01 38.36 19.23L40.71 19.69V4.06001C40.71 3.72001 40.64 3.4 40.52 3.11C40.4 2.81 40.21 2.54001 39.98 2.31001C39.75 2.08001 39.48 1.89 39.18 1.77C38.89 1.65 38.57 1.58 38.23 1.58H19.13C18.79 1.58 18.47 1.65 18.18 1.77C17.88 1.89 17.61 2.08001 17.38 2.31001C17.15 2.54001 16.96 2.81 16.84 3.11C16.72 3.4 16.65 3.72001 16.65 4.06001V16.69C16.65 17.03 16.44 17.25 16.17 17.34C16.08 17.38 15.97 17.39 15.87 17.39C15.76 17.39 15.66 17.38 15.56 17.34C15.28 17.25 15.07 17.03 15.07 16.69V4.06001C15.07 3.51001 15.18 2.99 15.38 2.51C15.58 2.01 15.89 1.57 16.26 1.19C16.64 0.810002 17.08 0.510005 17.58 0.310005C18.06 0.110005 18.58 0 19.13 0ZM42.29 22.61V23.91C43.12 24.36 43.93 24.85 44.7 25.37C45.4 25.84 46.07 26.34 46.72 26.86C46.68 26.36 46.57 25.89 46.38 25.45C46.15 24.89 45.81 24.38 45.38 23.96C44.96 23.53 44.45 23.19 43.89 22.96C43.4 22.75 42.86 22.63 42.29 22.61ZM31.26 53.44H33.07C32.97 53.21 32.85 52.98 32.71 52.77C32.52 52.47 32.3 52.2 32.05 51.95C31.61 51.51 31.09 51.15 30.51 50.91C29.94 50.68 29.33 50.55 28.68 50.55C28.03 50.55 27.41 50.68 26.85 50.91C26.27 51.15 25.74 51.51 25.31 51.95C25.07 52.18 24.86 52.44 24.68 52.72C24.56 52.9 24.46 53.09 24.37 53.28H25.14C25.28 53.28 25.42 53.31 25.55 53.36C25.68 53.42 25.8 53.5 25.9 53.59L25.96 53.65L26.07 53.49C26.17 53.34 26.29 53.19 26.42 53.07C26.72 52.77 27.07 52.54 27.46 52.37C27.84 52.22 28.25 52.13 28.68 52.13C29.11 52.13 29.52 52.22 29.9 52.37C30.29 52.54 30.65 52.77 30.94 53.07C31.01 53.14 31.08 53.21 31.14 53.29L31.26 53.44ZM33.07 57.21H31.26L31.14 57.36C31.08 57.44 31.01 57.51 30.94 57.58C30.65 57.88 30.29 58.11 29.9 58.28C29.52 58.43 29.11 58.52 28.68 58.52C28.25 58.52 27.84 58.43 27.46 58.28C27.07 58.11 26.72 57.88 26.42 57.58C26.29 57.45 26.17 57.31 26.07 57.16L25.96 56.99L25.9 57.05C25.8 57.15 25.68 57.23 25.55 57.29C25.42 57.34 25.28 57.37 25.14 57.37H24.37C24.46 57.57 24.56 57.75 24.68 57.93C24.86 58.21 25.07 58.47 25.3 58.7C25.75 59.14 26.27 59.5 26.85 59.74C27.42 59.97 28.03 60.1 28.68 60.1C29.33 60.1 29.94 59.97 30.51 59.74C31.09 59.5 31.61 59.14 32.05 58.7C32.3 58.45 32.52 58.18 32.71 57.88C32.85 57.67 32.97 57.44 33.07 57.21ZM25.11 54.38H24.36V56.27H25.11V54.38Z" fill="#FFCC00"/>
</svg>
