<svg width="50" height="90" viewBox="0 0 122 117" fill="none" xmlns="http://www.w3.org/2000/svg">
<path d="M58.8367 9.41992C61.4066 9.41992 63.7446 9.56714 65.4257 9.79846C67.4739 10.0718 68.7298 10.6396 68.7298 11.4177C68.7298 12.1957 67.4739 12.7635 65.4257 13.0369C63.7446 13.2682 61.4066 13.4154 58.8367 13.4154C56.2668 13.4154 53.9288 13.2682 52.2285 13.0369C50.1996 12.7635 48.9243 12.1957 48.9243 11.4177C48.9243 10.6396 50.1996 10.0718 52.2285 9.79846C53.9288 9.56714 56.2668 9.41992 58.8367 9.41992ZM65.2711 11.2915C63.6287 11.0602 61.3487 10.934 58.8367 10.934C56.3248 10.934 54.0448 11.0602 52.4023 11.2915C51.9966 11.3756 51.8613 11.4597 52.4023 11.5439C54.0448 11.7752 56.3248 11.9013 58.8367 11.9013C61.3487 11.9013 63.6287 11.7752 65.2711 11.5439C65.5803 11.4597 65.6576 11.3756 65.2711 11.2915Z" fill="#FFEEA8"/>
<path d="M99.7232 28.9987V37.5154L103.82 37.2841L104.844 37.221C106.853 37.0738 109.017 36.9266 110.911 37.7467C111.413 37.978 111.896 38.2514 112.341 38.5668C112.785 38.8823 113.21 39.2397 113.597 39.6393C113.983 40.0599 114.331 40.5015 114.64 40.9641C114.949 41.4478 115.22 41.9525 115.452 42.4992C115.664 43.0249 115.838 43.5717 115.954 44.1395C116.089 44.6862 116.147 45.254 116.186 45.8638C116.186 45.99 116.205 46.1582 116.205 46.2844C116.341 46.3685 116.456 46.4737 116.592 46.5578C116.804 46.726 117.017 46.9153 117.191 47.1256H117.21C117.674 47.6303 118.041 48.2191 118.292 48.892C118.524 49.5229 118.679 50.2168 118.679 50.9318V87.6692C118.679 88.3842 118.524 89.0782 118.292 89.709C118.041 90.3819 117.654 90.9707 117.21 91.4754C116.901 91.7909 116.572 92.0853 116.205 92.3166C116.205 92.8002 116.205 93.3049 116.186 93.7886C116.147 94.3564 116.07 94.9242 115.954 95.492C115.819 96.0387 115.645 96.5854 115.432 97.1112C115.22 97.6369 114.949 98.1416 114.659 98.6042C114.35 99.0668 114.003 99.5084 113.635 99.908C113.249 100.329 112.824 100.707 112.36 101.023C111.916 101.338 111.433 101.632 110.93 101.843C110.428 102.074 109.925 102.242 109.384 102.368C108.863 102.474 108.341 102.537 107.8 102.537C107.046 102.474 106.293 102.431 105.559 102.389L103.8 102.263L102.1 102.095L99.7232 101.864V105.081C99.7232 108.046 97.3272 110.401 93.3468 112.189C89.0572 114.102 82.874 115.406 75.86 116.1C73.3481 116.374 70.7395 116.563 68.0924 116.668C65.3679 116.794 62.6048 116.857 59.803 116.857C57.0399 116.857 54.2575 116.773 51.533 116.647C48.8279 116.521 46.1614 116.311 43.5915 116.058C36.1137 115.301 29.4281 113.955 24.7907 112.042C20.4625 110.275 17.8346 107.941 17.8346 105.081V101.969L16.5787 102.095L14.8783 102.263L13.12 102.389C12.3857 102.431 11.6321 102.474 10.8786 102.537C10.3375 102.537 9.79649 102.474 9.27479 102.368C8.75308 102.242 8.23137 102.074 7.74831 101.843C7.2266 101.632 6.76287 101.338 6.31845 101.023C5.85471 100.707 5.42961 100.329 5.04316 99.908C4.67604 99.5084 4.32823 99.0668 4.01907 98.6042C3.72924 98.1416 3.45872 97.6369 3.24617 97.1112C3.03363 96.5854 2.85973 96.0387 2.72447 95.492C2.60854 94.9242 2.53124 94.3564 2.4926 93.7886C2.45395 93.3049 2.47329 92.8002 2.47329 92.3166C2.33803 92.2325 2.20276 92.1273 2.08683 92.0432C1.87428 91.875 1.66174 91.6857 1.46851 91.4754C1.00477 90.9707 0.63765 90.3819 0.386458 89.709C0.135266 89.0782 0 88.3842 0 87.6692V50.9318C0 50.2168 0.135266 49.5229 0.386458 48.892C0.63765 48.2191 1.00477 47.6303 1.46851 47.1256C1.66174 46.9363 1.85496 46.7471 2.08683 46.5578C2.20276 46.4737 2.33803 46.3685 2.47329 46.2844C2.47329 46.1582 2.4926 45.99 2.4926 45.8638C2.51192 45.275 2.58921 44.6862 2.70515 44.1395C2.8404 43.5717 3.01431 43.0249 3.22686 42.4992C3.45873 41.9525 3.70992 41.4478 4.01907 40.9641C4.32823 40.5015 4.69537 40.0599 5.08182 39.6393C5.44894 39.2397 5.87404 38.8823 6.33778 38.5668C6.7822 38.2514 7.26525 37.978 7.76764 37.7467C9.66124 36.9266 11.8254 37.0738 13.8349 37.221L14.8396 37.2841L17.8346 37.4523V28.7253C17.8346 26.5594 19.0519 24.5616 21.274 22.8372C23.4768 21.0918 26.6843 19.5988 30.6647 18.3791C31.8048 18.0427 32.9834 17.7272 34.2201 17.4328C35.3021 17.1805 36.4615 16.9281 37.6402 16.6968V11.1242C37.7368 9.88345 38.4131 8.78997 39.5724 7.82264C40.7704 6.81326 42.5287 5.95108 44.6929 5.29918C46.5478 4.75243 48.7699 4.28979 51.2238 3.97436C53.5812 3.67995 56.1511 3.51172 58.8369 3.51172C61.5227 3.51172 64.0926 3.67995 66.4499 3.97436C68.9039 4.28979 71.1067 4.75243 72.9809 5.29918C75.145 5.95108 76.8841 6.81326 78.1014 7.82264C79.338 8.85305 80.0336 10.0727 80.0336 11.4186C80.0336 11.5447 80.0336 11.6709 80.0143 11.8181V16.7178C81.1543 16.9492 82.275 17.1805 83.3764 17.4539C84.613 17.7483 85.7917 18.0637 86.8738 18.3791C90.8542 19.5988 94.0811 21.0918 96.2838 22.8372C98.4866 24.5616 99.7039 26.5383 99.7232 28.6833V28.9987ZM99.7232 96.6065V98.457L102.196 98.7094L104.032 98.8776L105.81 99.0038C106.447 99.0458 107.162 99.151 107.8 99.1299C108.128 99.1299 108.476 99.0879 108.785 99.0248C109.133 98.9617 109.442 98.8566 109.752 98.7094C110.061 98.5832 110.351 98.3939 110.64 98.2047C110.93 97.9944 111.201 97.7631 111.433 97.5107C111.664 97.2584 111.877 96.964 112.07 96.6696C112.263 96.3752 112.437 96.0597 112.573 95.7233C112.708 95.3868 112.824 95.0503 112.901 94.6928C112.978 94.3354 113.036 93.9779 113.056 93.5993V93.368V93.0526C112.495 93.0526 111.916 93.0736 111.336 93.0526V93.5152C111.336 93.7676 111.297 94.0199 111.239 94.2512C111.181 94.5036 111.104 94.7349 111.027 94.9662C110.93 95.1975 110.814 95.4078 110.679 95.6181C110.544 95.8074 110.409 95.9966 110.235 96.1859C110.061 96.3541 109.887 96.5223 109.713 96.6485C109.52 96.7747 109.326 96.9009 109.114 96.985L108.998 97.027C108.824 97.1112 108.65 97.1532 108.457 97.1953C108.264 97.2373 108.051 97.2794 107.839 97.2794C107.162 97.2794 106.467 97.1953 105.79 97.1532L104.09 97.027L102.428 96.8798L99.7232 96.6065ZM17.8346 98.5832V96.7116L16.2309 96.8798L14.5885 97.027L12.0959 97.2163L12.1732 97.2794H10.8786C10.666 97.2794 10.4341 97.2373 10.2216 97.1953C10.0284 97.1532 9.85446 97.1112 9.68056 97.027L9.56463 96.985C9.35208 96.9009 9.13954 96.7747 8.96563 96.6485C8.77241 96.5013 8.5985 96.3541 8.44392 96.1859C8.27002 96.0177 8.13477 95.8074 7.99951 95.6181C7.86425 95.4078 7.74832 95.1975 7.65171 94.9662C7.55509 94.7349 7.4778 94.5036 7.43916 94.2512C7.38119 94.0199 7.34254 93.7676 7.32321 93.5152C7.32321 93.368 7.32321 93.1788 7.32321 93.0526C6.76286 93.0736 6.18319 93.0526 5.60352 93.0526L5.62284 93.5993C5.64216 93.9779 5.70014 94.3354 5.77743 94.6928C5.85472 95.0503 5.95132 95.3868 6.08658 95.7233C6.24116 96.0597 6.39574 96.3752 6.58897 96.6696C6.78219 96.964 7.01405 97.2584 7.24592 97.5107C7.47779 97.7631 7.74831 97.9944 8.03815 98.2047C8.32799 98.3939 8.61782 98.5832 8.92698 98.7094C9.23614 98.8566 9.5453 98.9617 9.87378 99.0248C10.2023 99.0879 10.5307 99.1299 10.8786 99.1299C11.5162 99.1299 12.2118 99.0458 12.8494 99.0038L14.6271 98.8776L16.4821 98.7094L17.8346 98.5832ZM17.8346 93.326V46.0952C15.5739 45.969 13.3132 45.8428 11.0718 45.7377C10.9558 45.7377 10.8399 45.7166 10.7433 45.7587L10.666 45.8008L10.608 45.8638L10.5501 45.9269L10.4921 46.0321L10.4535 46.1582C10.4728 46.4737 10.4728 46.7681 10.4728 47.0835L10.5114 47.1256C10.9752 47.6303 11.3423 48.2191 11.6128 48.892C11.8447 49.5229 11.9799 50.2168 11.9799 50.9318V87.6692C11.9799 88.3842 11.8447 89.0782 11.6128 89.709C11.3423 90.3819 10.9752 90.9707 10.5114 91.4754L10.4728 91.5175C10.4728 92.1484 10.4728 92.7792 10.4535 93.3891C10.4728 93.4732 10.4921 93.4942 10.5114 93.5573L10.5694 93.6835L10.6274 93.7676L10.6853 93.8096C10.7433 93.8517 10.7626 93.8517 10.8013 93.8727H10.9945L12.6369 93.7676L14.3566 93.6414L16.1343 93.4942L17.8346 93.326ZM17.8346 42.7095V40.859C15.6126 40.7118 13.3905 40.6066 11.1491 40.5015L10.9172 40.4805C10.5694 40.5015 10.2216 40.5225 9.8931 40.5856C9.56462 40.6697 9.23614 40.7749 8.92698 40.901C8.61782 41.0482 8.30866 41.2165 8.03815 41.4057C7.74831 41.616 7.47779 41.8473 7.24592 42.0786C6.99473 42.352 6.78219 42.6254 6.58897 42.9198C6.39574 43.2142 6.22183 43.5507 6.08658 43.8661C5.95132 44.2026 5.83539 44.539 5.7581 44.9175C5.71945 45.1278 5.6808 45.3171 5.66148 45.5484C6.24115 45.5484 6.80152 45.5064 7.38119 45.5484L7.41983 45.3591C7.4778 45.1068 7.55509 44.8755 7.65171 44.6442C7.729 44.4128 7.84493 44.2026 7.98018 43.9923C8.11544 43.782 8.27001 43.5927 8.42459 43.4245C8.5985 43.2562 8.77241 43.088 8.96563 42.9618C9.15886 42.8146 9.37141 42.7095 9.58395 42.6044C9.77718 42.5202 10.009 42.4572 10.2409 42.3941C10.4535 42.352 10.6853 42.331 10.9172 42.331H12.4823V42.4151C14.2793 42.4992 16.057 42.6044 17.8346 42.7095ZM4.94656 89.6669C5.56488 89.6039 6.41506 89.6669 7.07203 89.6669C7.20728 89.6669 7.34254 89.6249 7.4778 89.6039C7.61305 89.5618 7.74832 89.4987 7.86425 89.4356C8.03816 89.3095 8.15408 89.2464 8.30866 89.0781C8.48257 88.8889 8.61782 88.6786 8.71443 88.4263C8.79172 88.1949 8.84969 87.9426 8.84969 87.6692V50.9318C8.84969 50.6584 8.79172 50.4061 8.71443 50.1748C8.61782 49.9224 8.48257 49.7121 8.30866 49.5229C8.19273 49.3967 8.01882 49.2705 7.88357 49.1654C7.74831 49.1023 7.61305 49.0392 7.4778 48.9971C7.34254 48.9551 7.20728 48.9341 7.07203 48.9341C6.97541 48.9551 4.9852 48.9551 4.94656 48.9341C4.71469 48.9341 4.48282 48.9971 4.27028 49.1023C4.05773 49.1864 3.84518 49.3336 3.6906 49.5229C3.51669 49.7121 3.38144 49.9224 3.28483 50.1748C3.18821 50.4061 3.14957 50.6584 3.14957 50.9318V87.6692C3.14957 87.9426 3.18821 88.1949 3.28483 88.4263C3.38144 88.6786 3.51669 88.8889 3.6906 89.0781C3.84518 89.2674 4.05773 89.4146 4.27028 89.4987C4.48282 89.6039 4.71469 89.6669 4.94656 89.6669ZM99.7232 40.922V42.7726C101.868 42.6464 104.032 42.5202 106.177 42.4151V42.331H107.761C107.993 42.331 108.225 42.352 108.438 42.3941C108.67 42.4572 108.882 42.5202 109.095 42.6044C109.307 42.7095 109.52 42.8146 109.713 42.9618C109.906 43.088 110.08 43.2562 110.254 43.4245C110.409 43.5927 110.563 43.782 110.698 43.9923C110.814 44.2026 110.93 44.4128 111.027 44.6442C111.123 44.8755 111.201 45.1068 111.259 45.3591L111.297 45.5484C111.858 45.5274 112.437 45.5484 113.017 45.5484C112.998 45.3171 112.959 45.1278 112.92 44.9175C112.843 44.5601 112.727 44.2026 112.592 43.8661C112.457 43.5296 112.283 43.2142 112.09 42.9198C111.896 42.6254 111.664 42.352 111.433 42.0997C111.181 41.8473 110.93 41.616 110.64 41.4057C110.351 41.2165 110.061 41.0482 109.752 40.901C109.442 40.7749 109.114 40.6697 108.766 40.5856C108.457 40.5225 108.109 40.5015 107.761 40.5015H107.51C104.921 40.6276 102.312 40.7538 99.7232 40.922ZM111.626 90.2347H111.645H111.665H111.684H113.674H113.693H113.713H113.732H113.751C114.138 90.2137 114.486 90.1085 114.814 89.9193H114.833C114.891 89.8772 114.949 89.8352 115.007 89.7931L115.065 89.7511C115.181 89.6669 115.278 89.5828 115.355 89.4777C115.799 89.0151 116.051 88.3632 116.051 87.6692V50.9318C116.051 50.2378 115.799 49.586 115.355 49.1233C115.278 49.0182 115.181 48.934 115.065 48.8499L115.007 48.8079C114.949 48.7658 114.891 48.7238 114.833 48.6817H114.814C114.486 48.4924 114.138 48.3873 113.751 48.3663H113.732H113.713H113.693H113.674H111.684H111.665H111.645H111.626C110.988 48.3873 110.409 48.6607 110.003 49.1233C109.558 49.586 109.307 50.2378 109.307 50.9318V87.6692C109.307 88.3632 109.558 89.0151 110.003 89.4777C110.409 89.9403 110.988 90.2137 111.626 90.2347ZM99.7232 46.1582V93.1998C100.651 93.3049 101.598 93.389 102.544 93.4942L104.322 93.6414L106.042 93.7676L107.684 93.8727H107.858C107.916 93.8517 107.935 93.8517 107.974 93.8096L108.032 93.7676L108.109 93.6835L108.167 93.5783L108.206 93.3891C108.186 92.7792 108.206 92.1484 108.206 91.5175L108.148 91.4754C107.703 90.9707 107.317 90.3819 107.066 89.709C106.834 89.0782 106.699 88.3842 106.699 87.6692V50.9318C106.699 50.2168 106.834 49.5229 107.066 48.871C107.317 48.2191 107.703 47.6303 108.148 47.1256L108.206 47.0835C108.206 46.7681 108.206 46.4737 108.206 46.1582L108.167 46.0321L108.128 45.9269L108.071 45.8638L107.993 45.8008L107.935 45.7587C107.819 45.7166 107.723 45.7377 107.607 45.7377C104.979 45.8638 102.351 46.011 99.7232 46.1582ZM21.6605 36.7794C22.8778 37.6416 24.4236 38.4617 26.2786 39.2187C28.3074 40.0388 30.7034 40.7959 33.3699 41.4478C36.9059 42.3099 40.9443 42.9829 45.2918 43.4455C49.5235 43.8871 54.0642 44.1395 58.7789 44.1395C63.5323 44.1395 68.131 43.8871 72.3819 43.4245C76.7875 42.9618 80.8452 42.2679 84.4005 41.3847C87.009 40.7538 89.3471 39.9968 91.3566 39.1977C93.1729 38.4407 94.6994 37.6416 95.878 36.7794V34.9078C93.3275 36.8214 89.8688 38.1462 86.8738 39.0505C83.2025 40.165 78.797 41.0692 73.9471 41.6791C69.2517 42.2469 64.1313 42.5833 58.7789 42.5833C53.4266 42.5833 48.2868 42.2469 43.6108 41.6791C38.7415 41.0692 34.3553 40.165 30.6647 39.0505C27.6891 38.1462 24.2304 36.8214 21.6605 34.9078V36.7794ZM95.878 39.8496C94.6607 40.5646 93.2502 41.2375 91.6464 41.8684C89.6755 42.6464 87.4148 43.3614 84.9415 43.9713C81.2703 44.8545 77.1159 45.5694 72.6331 46.0531C68.2663 46.5368 63.5902 46.7891 58.7789 46.7891C54.0063 46.7891 49.3882 46.5368 45.0407 46.0741C40.5965 45.5905 36.4808 44.8965 32.8289 44.0133C30.3169 43.4034 28.0176 42.6885 25.9887 41.9104C24.3656 41.2795 22.8971 40.5856 21.6605 39.8496V105.081C21.6605 106.469 23.7666 107.773 27.2447 108.908C31.3604 110.254 37.2924 111.264 43.9393 111.937C46.4512 112.189 49.0597 112.378 51.7069 112.525C54.3927 112.651 57.1172 112.715 59.803 112.715C62.5275 112.736 65.2519 112.673 67.9184 112.546C70.527 112.42 73.0775 112.252 75.5122 112C81.6954 111.369 87.125 110.38 90.8542 109.035C94.0038 107.92 95.878 106.574 95.878 105.081V39.8496ZM57.407 15.1617H58.8369C61.3681 15.1617 63.7834 15.0145 65.9669 14.7411C68.2276 14.4677 70.2565 14.0472 71.9375 13.5425C73.3674 13.1219 74.5074 12.6593 75.261 12.2177C75.86 11.8812 76.1885 11.6078 76.1885 11.4186V11.3345C76.1112 11.1452 75.802 10.9139 75.2803 10.6195C74.5074 10.1779 73.3867 9.71523 71.9568 9.29465C70.2758 8.78996 68.2469 8.36937 65.9669 8.09599C63.7834 7.82262 61.3681 7.67542 58.8369 7.67542C56.2863 7.67542 53.8903 7.82262 51.7069 8.09599C49.4269 8.36937 47.398 8.78996 45.7169 9.29465C44.2871 9.71523 43.1471 10.1779 42.3742 10.6195C41.7945 10.9559 41.466 11.2293 41.466 11.4186C41.466 11.6078 41.7945 11.8812 42.3742 12.2177C43.1471 12.6593 44.2871 13.1219 45.7169 13.5425C47.1855 13.9841 48.9052 14.3626 50.8374 14.636C52.6924 14.9093 54.7405 15.0776 56.8853 15.1407L57.407 15.1617ZM57.0206 19.2834V21.1339C57.0206 21.5545 56.8467 21.954 56.5568 22.2274C56.2863 22.5008 55.9192 22.648 55.5328 22.648C55.1463 22.648 54.7985 22.5218 54.5473 22.2905C54.3927 22.1433 54.2768 21.9961 54.1802 21.8068H54.0256V19.8511C54.0256 19.767 53.987 19.6619 53.9097 19.5988C53.8324 19.5147 53.7164 19.4726 53.5812 19.4726C53.4459 19.4726 53.3493 19.5147 53.2527 19.5988C53.1947 19.6619 53.1561 19.767 53.1561 19.8511V22.4167C53.1561 22.8583 52.9629 23.2368 52.6924 23.5102C52.4218 23.7835 52.0547 23.9518 51.6489 23.9518C51.2432 23.9518 50.876 23.7835 50.6055 23.5102C50.335 23.2368 50.1418 22.8583 50.1418 22.4167V20.1666C50.1418 20.0614 50.1031 19.9773 50.0452 19.9142C49.9679 19.8301 49.8519 19.767 49.7167 19.767C49.5814 19.767 49.4655 19.8301 49.3882 19.9142C49.3109 19.9773 49.2723 20.0614 49.2723 20.1456V23.2157C49.2723 23.6363 49.0984 24.0359 48.8085 24.3093C48.538 24.5826 48.1709 24.7509 47.7844 24.7509C47.3787 24.7509 47.0115 24.5826 46.741 24.3093C46.4512 24.0359 46.2773 23.6363 46.2773 23.2157V19.8301C46.2773 19.725 46.2387 19.6409 46.1614 19.5778C46.0841 19.4936 45.9681 19.4516 45.8329 19.4516C45.7169 19.4516 45.5817 19.4936 45.5044 19.5778C45.4464 19.6409 45.4078 19.725 45.4078 19.8301V21.933C45.4078 22.3115 45.2919 22.8162 44.9634 23.1737C44.7122 23.4471 44.345 23.6364 43.8427 23.6364C43.4369 23.6364 43.0698 23.4681 42.7992 23.2157C42.5094 22.9424 42.3355 22.5428 42.3355 22.1223V18.7156C42.3355 18.5894 42.2969 18.4633 42.2196 18.3791C42.1423 18.295 42.0264 18.2529 41.9104 18.2529C41.7752 18.2529 41.6786 18.295 41.6013 18.3791C41.524 18.4633 41.466 18.5684 41.466 18.6946C41.5433 20.0404 41.466 21.7648 41.466 23.0896V23.6784C41.466 23.9728 42.3742 24.3513 43.8427 24.7509C45.7556 25.2766 48.4994 25.7182 51.591 26.0126C52.8083 26.1388 54.0836 26.2439 55.3975 26.307C56.7114 26.3701 58.0254 26.3911 59.3393 26.4121C60.6725 26.4121 62.0058 26.3701 63.3004 26.307C64.5757 26.2649 65.8316 26.1598 67.0103 26.0547C69.87 25.7603 72.3626 25.3397 74.0823 24.814C75.4156 24.4144 76.2078 24.0148 76.2078 23.6784V23.0896L76.1885 16.2552C75.86 16.4234 75.5315 16.5917 75.1644 16.7389C74.5074 17.0333 73.7732 17.2856 72.9809 17.538C71.1067 18.0847 68.9039 18.5474 66.4499 18.8628C64.0926 19.1572 61.5227 19.3254 58.8369 19.3254C58.3925 19.3254 57.8708 19.3044 57.3104 19.3044L57.0206 19.2834ZM21.7764 28.0945C21.7185 28.3468 21.6798 28.452 21.6605 28.7253C21.6605 29.7347 22.53 30.7862 24.0951 31.8166C25.8728 32.9732 28.462 34.0877 31.6888 35.055C35.2055 36.1275 39.3985 36.9686 44.0939 37.5574C48.596 38.1252 53.5619 38.4407 58.7789 38.4407C63.996 38.4407 68.9425 38.1252 73.464 37.5574C78.14 36.9686 82.3523 36.1275 85.869 35.055C89.0959 34.0877 91.6851 32.9732 93.4434 31.8166C95.0279 30.7862 95.878 29.7347 95.878 28.7253V28.494L95.7814 28.0945C95.453 27.1482 94.4289 26.1808 92.8444 25.2345C91.1247 24.2251 88.7481 23.2368 85.869 22.3746C84.8836 22.0802 83.8595 21.8068 82.7967 21.5545C81.9272 21.3442 80.9998 21.1339 80.0143 20.9446L80.0336 23.0896V23.6784C80.0336 25.4869 78.739 26.9168 76.5556 27.9683C74.3142 29.0618 71.0487 29.7978 67.3581 30.1553C66.1021 30.2815 64.8075 30.3866 63.4743 30.4497C62.1217 30.5128 60.7305 30.5338 59.3393 30.5338C57.9481 30.5338 56.5762 30.4917 55.2236 30.4287C53.871 30.3656 52.5378 30.2604 51.2432 30.1343C47.34 29.7347 43.8427 28.9987 41.408 27.9052C39.0507 26.8538 37.6402 25.4448 37.6402 23.6784V23.0896V20.9026C36.6547 21.1129 35.7079 21.3021 34.8191 21.5335C33.737 21.7858 32.6936 22.0802 31.6888 22.3746C28.8098 23.2368 26.4524 24.2041 24.7134 25.2345C23.129 26.1808 22.1049 27.1482 21.7764 28.0945Z" fill="#FFEEA8"/>
<path d="M32.9644 51.373L32.9836 51.3941L32.9644 51.373Z" fill="#FFD93F" fill-opacity="0.501961"/>
<path fill-rule="evenodd" clip-rule="evenodd" d="M59.1261 89.1211L53.1748 100.329C58.4885 103.673 65.0388 103.673 70.3331 100.329L64.3818 89.1211C63.6089 89.6048 62.7201 89.8781 61.754 89.8781C60.8072 89.8781 59.899 89.6048 59.1261 89.1211Z" fill="#FFCC00"/>
<path fill-rule="evenodd" clip-rule="evenodd" d="M61.7541 80.1406C63.8023 80.1406 65.464 81.9281 65.464 84.1571C65.464 86.3862 63.8023 88.1736 61.7541 88.1736C59.7252 88.1736 58.0635 86.3862 58.0635 84.1571C58.0635 81.9281 59.7252 80.1406 61.7541 80.1406Z" fill="#FFCC00"/>
<path fill-rule="evenodd" clip-rule="evenodd" d="M64.5176 78.8372L70.2757 67.9863C75.5893 71.3299 78.8548 77.4914 78.8548 84.1575H67.3773C67.3773 81.8654 66.218 79.8887 64.5176 78.8372Z" fill="#FFCC00"/>
<path fill-rule="evenodd" clip-rule="evenodd" d="M58.914 78.9003L53.1173 67.9863C47.8036 71.3299 44.5381 77.4914 44.5381 84.1575H56.1509C56.1509 81.9285 57.2523 79.9728 58.914 78.9003Z" fill="#FFCC00"/>
<path d="M102.1 97.5102C100.052 100.538 94.7768 103.104 87.5308 104.891C80.4202 106.658 71.3579 107.709 61.6387 107.709C52.0162 107.709 43.0505 106.679 35.9399 104.954C28.7519 103.188 23.4576 100.664 21.2935 97.6784L22.3755 96.7531C24.3271 99.4658 29.3509 101.8 36.249 103.482C43.2438 105.186 52.1128 106.195 61.6387 106.195C71.2613 106.195 80.2269 105.165 87.241 103.44C94.1584 101.716 99.1436 99.3397 100.999 96.627L102.1 97.5102Z" fill="#FFCC00"/>
<path d="M61.7544 5.9082C64.3049 5.9082 66.6236 6.03437 68.3047 6.26569C70.3529 6.53906 71.6088 7.10684 71.6088 7.90594C71.6088 8.68401 70.3529 9.25179 68.3047 9.52517C66.6236 9.75649 64.3049 9.88266 61.7544 9.88266C59.2038 9.88266 56.8851 9.75649 55.1847 9.52517C53.1559 9.25179 51.8999 8.68401 51.8999 7.90594C51.8999 7.10684 53.1559 6.53906 55.1847 6.26569C56.8851 6.03437 59.2038 5.9082 61.7544 5.9082ZM68.1501 7.75875C66.5077 7.54846 64.247 7.40127 61.7544 7.40127C59.2424 7.40127 56.9817 7.54846 55.3586 7.75875C54.9529 7.84287 54.8176 7.94799 55.3586 8.03211C56.9817 8.24239 59.2424 8.38962 61.7544 8.38962C64.247 8.38962 66.5077 8.24239 68.1501 8.03211C68.4593 7.94799 68.5365 7.84287 68.1501 7.75875Z" fill="#FFCC00"/>
<path fill-rule="evenodd" clip-rule="evenodd" d="M24.1143 34.5302V40.2711V44.4769V55.5381C24.1143 57.8092 25.9885 59.6597 28.2686 59.6597C30.4134 59.6597 32.191 58.0195 32.4036 55.9586H32.4229V55.5381V50.0285C32.4229 47.7574 34.2972 45.9068 36.5966 45.9068C38.8766 45.9068 40.7509 47.7574 40.7509 50.0285V55.9586V61.1107C40.7509 63.3608 42.6252 65.2113 44.9245 65.2113C47.2046 65.2113 49.0789 63.3608 49.0789 61.1107V57.2624V51.3323C49.0789 49.0612 50.9532 47.2106 53.2332 47.2106C55.5326 47.2106 57.4069 49.0612 57.4069 51.3323V57.2624V67.6717C57.4069 69.9218 59.2811 71.7723 61.5612 71.7723C63.8605 71.7723 65.7155 69.9218 65.7155 67.6507V62.8982V56.968C65.7155 54.6969 67.5898 52.8464 69.8892 52.8464C72.1692 52.8464 74.0435 54.6969 74.0435 56.968V62.8982C74.0435 64.8538 74.913 67.7979 78.4683 67.7979C80.7677 67.7979 82.642 65.9473 82.642 63.6762V49.1453V47.2947C82.642 44.8133 84.4969 42.7945 86.7963 42.7945C89.0764 42.7945 90.9506 44.8133 90.9506 47.2947V49.1453V50.8696C90.9506 53.351 92.8249 55.3908 95.1243 55.3908C97.4043 55.3908 99.2786 53.351 99.2786 50.8696V49.1453V34.1517C93.5012 38.4626 79.3185 41.5118 62.6432 41.6169H61.8317H61.6964H60.7883H60.7496L59.8222 41.5959H59.7642L58.8754 41.5749C42.8764 41.2384 29.4666 38.1682 24.1143 33.9414V34.5302Z" fill="#FFCC00"/>
<path d="M102.409 25.4659V34.0037L106.505 33.7723L107.51 33.7093C109.52 33.5621 111.664 33.4149 113.539 34.235C114.041 34.4453 114.524 34.7187 114.969 35.0341C115.413 35.3705 115.838 35.728 116.225 36.1276C116.611 36.5271 116.959 36.9687 117.268 37.4524C117.577 37.915 117.828 38.4407 118.06 38.9665C118.273 39.4922 118.447 40.0389 118.563 40.6067C118.698 41.1745 118.775 41.7423 118.794 42.3311C118.794 42.4783 118.814 42.6255 118.814 42.7727C118.949 42.8568 119.065 42.9409 119.2 43.0461C119.413 43.2143 119.606 43.4036 119.799 43.5928L119.818 43.6139C120.263 44.1186 120.63 44.7073 120.881 45.3592C121.132 45.9901 121.268 46.6841 121.268 47.4201V84.1364C121.268 84.8725 121.132 85.5664 120.881 86.1973C120.63 86.8702 120.263 87.459 119.799 87.9427C119.509 88.2791 119.181 88.5525 118.814 88.7838C118.814 89.2675 118.833 89.7722 118.794 90.2559C118.756 90.8447 118.678 91.4124 118.563 91.9592C118.427 92.527 118.253 93.0737 118.041 93.5784C117.828 94.1252 117.558 94.6088 117.268 95.0925C116.978 95.5551 116.63 95.9967 116.244 96.3963C115.857 96.8169 115.452 97.1743 114.988 97.5108C114.543 97.8262 114.08 98.0996 113.577 98.3309C113.075 98.5622 112.553 98.7305 112.032 98.8356C111.529 98.9408 110.988 99.0039 110.447 99.0039C109.713 98.9408 108.959 98.9198 108.225 98.8777L106.486 98.7305L104.786 98.5833L102.409 98.352V101.548C102.409 104.513 100.032 106.869 96.0712 108.656C91.8202 110.591 85.6757 111.874 78.681 112.588C76.1884 112.841 73.5992 113.03 70.952 113.156C68.2662 113.282 65.5031 113.346 62.7206 113.325C59.9575 113.325 57.1944 113.261 54.4893 113.114C51.8034 112.988 49.1563 112.799 46.6057 112.546C39.1472 111.789 32.5003 110.444 27.9016 108.53C23.5733 106.742 20.9648 104.429 20.9648 101.548V98.4571L19.7282 98.5833L18.0278 98.7305L16.2888 98.8777C15.5545 98.9198 14.8009 98.9408 14.0667 99.0039C13.5257 99.0039 12.9846 98.9408 12.4629 98.8356C11.9412 98.7305 11.4195 98.5622 10.9364 98.3309C10.4341 98.0996 9.951 97.8262 9.50658 97.5108C9.06216 97.1743 8.63707 96.8169 8.25062 96.3963C7.88349 95.9967 7.53569 95.5551 7.22653 95.0925C6.93669 94.6088 6.6855 94.1252 6.45363 93.5784C6.24108 93.0737 6.06718 92.527 5.95124 91.9592C5.81598 91.4124 5.7387 90.8447 5.71938 90.2559C5.68074 89.7722 5.70005 89.2675 5.70005 88.7838C5.5648 88.6997 5.42953 88.6156 5.3136 88.5105C5.10105 88.3422 4.8885 88.153 4.69528 87.9637V87.9427C4.23154 87.459 3.86442 86.8492 3.61323 86.1973C3.38136 85.5664 3.24609 84.8725 3.24609 84.1364V47.4201C3.24609 46.6841 3.38136 45.9901 3.61323 45.3592C3.86442 44.7073 4.23154 44.0975 4.69528 43.6139V43.5928C4.8885 43.4036 5.08173 43.2143 5.3136 43.0461C5.42953 42.9409 5.5648 42.8568 5.70005 42.7727C5.70005 42.6255 5.70006 42.4783 5.71938 42.3311C5.7387 41.7423 5.81599 41.1745 5.93193 40.6277C6.04786 40.0389 6.22176 39.4922 6.45363 38.9665C6.66618 38.4407 6.93668 37.9361 7.24584 37.4524C7.555 36.9687 7.90281 36.5271 8.28926 36.1276C8.65638 35.728 9.08148 35.3705 9.54522 35.0341C9.98964 34.7187 10.4534 34.4453 10.9558 34.235C12.83 33.4149 14.9941 33.5621 16.9844 33.7093L18.0085 33.7723L20.9648 33.9406V25.1926C20.9648 23.0266 22.1821 21.0499 24.3849 19.3045C26.5876 17.5801 29.7758 16.066 33.7369 14.8674C34.8576 14.5309 36.0363 14.2155 37.2729 13.9211C38.355 13.6477 39.495 13.4164 40.6737 13.1851V7.59142C40.7703 6.37175 41.4466 5.2572 42.5866 4.28987C43.7846 3.30152 45.543 2.43933 47.6877 1.78743C49.5427 1.21965 51.7455 0.77807 54.1801 0.462637C56.5181 0.168233 59.088 0 61.7545 0C64.421 0 66.9716 0.168233 69.3289 0.462637C71.7635 0.77807 73.9663 1.21965 75.8213 1.78743C77.966 2.43933 79.7244 3.28049 80.9224 4.28987C82.159 5.34132 82.8353 6.53996 82.8353 7.90684C82.8353 8.03301 82.8353 8.15919 82.816 8.30639V13.2061C83.956 13.4164 85.0767 13.6687 86.1588 13.9211C87.3954 14.2155 88.5741 14.5309 89.6561 14.8674C93.5979 16.066 96.8055 17.5801 98.9889 19.3045C101.192 21.0288 102.409 23.0266 102.409 25.1715V25.4659ZM102.409 93.0948V94.9453L104.882 95.1976L106.718 95.3448L108.476 95.492C109.114 95.5341 109.829 95.6182 110.447 95.6182C110.795 95.6182 111.123 95.5762 111.433 95.5131C111.78 95.429 112.09 95.3238 112.379 95.1976C112.688 95.0504 112.998 94.8822 113.268 94.6719C113.558 94.4827 113.829 94.2303 114.06 93.978C114.292 93.7256 114.524 93.4522 114.717 93.1578C114.891 92.8424 115.065 92.527 115.2 92.1905C115.336 91.8751 115.452 91.5176 115.529 91.1601C115.606 90.8236 115.664 90.4451 115.683 90.0876V89.8563V89.5409C115.123 89.5409 114.543 89.5619 113.983 89.5198V89.9825C113.964 90.2348 113.925 90.4872 113.886 90.7395C113.829 90.9919 113.751 91.2232 113.655 91.4335C113.558 91.6648 113.442 91.8961 113.326 92.0854C113.191 92.2956 113.036 92.4849 112.882 92.6531C112.708 92.8424 112.534 92.9896 112.36 93.1158C112.167 93.263 111.974 93.3681 111.761 93.4733L111.645 93.5153C111.471 93.5784 111.297 93.6415 111.104 93.6836C110.911 93.7256 110.698 93.7466 110.486 93.7466C109.829 93.7677 109.133 93.6836 108.457 93.6415L106.756 93.5153L105.114 93.3681L102.409 93.0948ZM20.9648 95.0504V93.1999L19.3804 93.3681L17.7379 93.5153L15.284 93.6836L15.342 93.7466H14.0667C13.8348 93.7466 13.6223 93.7256 13.3904 93.6836C13.2165 93.6415 13.0233 93.5784 12.8494 93.5153L12.7334 93.4733C12.5402 93.3681 12.3276 93.263 12.1537 93.1158C11.9605 92.9896 11.7866 92.8214 11.632 92.6531C11.4775 92.4849 11.3229 92.2956 11.1876 92.0854C11.0524 91.8961 10.9364 91.6648 10.8398 91.4335C10.7625 91.2232 10.6852 90.9919 10.6273 90.7395C10.5693 90.4872 10.5307 90.2348 10.5307 89.9825C10.5113 89.8563 10.5307 89.667 10.5307 89.5198C9.95099 89.5619 9.39064 89.5409 8.81097 89.5409L8.8303 90.0876C8.84962 90.4451 8.88826 90.8236 8.96555 91.1601C9.04284 91.5176 9.15878 91.8751 9.29403 92.1905C9.42929 92.527 9.6032 92.8424 9.79642 93.1578C9.98964 93.4522 10.2022 93.7256 10.4341 93.978C10.6852 94.2303 10.9364 94.4827 11.2263 94.6719C11.5161 94.8822 11.806 95.0504 12.1151 95.1976C12.4049 95.3238 12.7334 95.429 13.0619 95.5131C13.3904 95.5762 13.7189 95.6182 14.0667 95.6182C14.685 95.6182 15.3806 95.5341 16.0182 95.492L17.7959 95.3448L19.6315 95.1976L20.9648 95.0504ZM20.9648 89.7932V42.5834C18.7234 42.4362 16.482 42.3311 14.2406 42.2049C14.1246 42.2049 14.028 42.2049 13.9314 42.247L13.8541 42.289L13.7768 42.3521L13.7189 42.4152L13.6802 42.4993L13.6416 42.6465C13.6416 42.9409 13.6416 43.2563 13.6416 43.5507L13.6996 43.6139C14.1633 44.0975 14.5304 44.7073 14.7816 45.3592C15.0135 45.9901 15.1487 46.6841 15.1487 47.4201V84.1364C15.1487 84.8725 15.0135 85.5664 14.7816 86.1973C14.5304 86.8702 14.1633 87.459 13.6996 87.9427L13.6416 88.0057C13.6416 88.6156 13.6609 89.2465 13.6416 89.8773C13.6609 89.9404 13.6609 89.9614 13.6802 90.0455L13.7382 90.1507L13.8155 90.2348L13.8734 90.2979C13.9121 90.3189 13.9314 90.34 13.9894 90.361H14.1633L15.8057 90.2559L17.5061 90.1297L19.2837 89.9614L20.9648 89.7932ZM20.9648 39.1768V37.3262C18.762 37.2 16.54 37.0739 14.3372 36.9687H14.086C13.7382 36.9687 13.4097 37.0108 13.0812 37.0739C12.7528 37.137 12.4243 37.2421 12.1151 37.3893C11.806 37.5155 11.5161 37.6837 11.2263 37.894C10.9364 38.0833 10.6852 38.3146 10.4341 38.5669C10.2022 38.8193 9.97032 39.0927 9.77709 39.4081C9.58387 39.7025 9.42929 40.0179 9.29403 40.3544C9.15878 40.6698 9.04284 41.0273 8.96555 41.3848C8.92691 41.5951 8.88826 41.8054 8.86894 42.0156C9.42929 42.0156 10.009 41.9946 10.5693 42.0367L10.608 41.8264C10.6659 41.5951 10.7432 41.3427 10.8398 41.1324C10.9364 40.9011 11.0524 40.6698 11.1683 40.4806C11.3036 40.2703 11.4581 40.081 11.6127 39.9128C11.7866 39.7235 11.9605 39.5763 12.1537 39.4501C12.347 39.3029 12.5402 39.1768 12.7528 39.0926C12.9653 39.0085 13.1972 38.9244 13.4097 38.8824C13.6416 38.8403 13.8734 38.8193 14.086 38.8193H15.6511V38.8824C17.4288 38.9875 19.2065 39.0716 20.9648 39.1768ZM8.154 86.1342C8.77232 86.0921 9.62251 86.1342 10.2602 86.1342C10.3954 86.1342 10.5307 86.1132 10.6659 86.0711C10.8012 86.029 10.9364 85.987 11.0524 85.9029C11.2263 85.7767 11.3422 85.7346 11.4968 85.5454C11.6707 85.3771 11.8059 85.1459 11.9026 84.9145C11.9799 84.6622 12.0378 84.4098 12.0378 84.1364V47.4201C12.0378 47.1467 11.9799 46.8944 11.9026 46.663C11.8059 46.4107 11.6707 46.2004 11.4968 46.0111C11.3809 45.885 11.2263 45.7377 11.0717 45.6536C10.9364 45.5905 10.8012 45.5275 10.6659 45.4854C10.5307 45.4434 10.3954 45.4223 10.2602 45.4223C10.1635 45.4433 8.19264 45.4223 8.154 45.4223C7.92213 45.4223 7.69026 45.4854 7.47772 45.5695C7.26517 45.6747 7.07195 45.8219 6.89805 46.0111C6.72415 46.1794 6.58888 46.4107 6.49227 46.663C6.41498 46.8944 6.35701 47.1467 6.35701 47.4201V84.1364C6.35701 84.4098 6.41498 84.6622 6.49227 84.8935C6.58888 85.1458 6.72415 85.3771 6.89805 85.5454C7.07195 85.7346 7.26517 85.8819 7.47772 85.987C7.69026 86.0921 7.92213 86.1342 8.154 86.1342ZM102.409 37.3893V39.2399C104.554 39.1137 106.699 39.0085 108.843 38.8824V38.8193H110.408C110.64 38.8193 110.872 38.8403 111.085 38.8824C111.317 38.9244 111.529 39.0085 111.742 39.0926C111.954 39.1768 112.167 39.3029 112.36 39.4501C112.534 39.5763 112.727 39.7235 112.882 39.9128C113.056 40.081 113.191 40.2703 113.326 40.4806C113.461 40.6698 113.577 40.9011 113.674 41.1324C113.771 41.3427 113.829 41.574 113.886 41.8264L113.925 42.0367C114.505 41.9946 115.065 42.0156 115.645 42.0156C115.626 41.8054 115.587 41.5951 115.548 41.3848C115.471 41.0273 115.355 40.6908 115.22 40.3544C115.084 40.0179 114.911 39.7025 114.717 39.4081C114.524 39.0927 114.312 38.8193 114.06 38.5669C113.829 38.3146 113.558 38.0833 113.268 37.894C112.998 37.6837 112.708 37.5155 112.379 37.3893C112.09 37.2421 111.761 37.137 111.433 37.0739C111.104 37.0108 110.756 36.9687 110.408 36.9687H110.177C107.587 37.0949 104.998 37.2421 102.409 37.3893ZM114.273 86.723H114.292H114.312H116.302H116.321H116.34H116.36H116.379C116.746 86.702 117.113 86.5968 117.423 86.4076H117.442V86.3865C117.5 86.3655 117.558 86.3235 117.616 86.2814L117.693 86.2393C117.79 86.1552 117.886 86.0501 117.983 85.966C118.408 85.5033 118.678 84.8514 118.678 84.1364V47.4201C118.678 46.7051 118.408 46.0742 117.983 45.5905C117.886 45.5064 117.79 45.4013 117.693 45.3382L117.616 45.2751C117.558 45.2331 117.5 45.191 117.442 45.17L117.423 45.149C117.113 44.9597 116.746 44.8546 116.379 44.8546H116.36H116.34H116.321H116.302H114.312H114.292H114.273C113.635 44.8546 113.056 45.1489 112.631 45.5905C112.205 46.0742 111.954 46.7051 111.954 47.4201V84.1364C111.954 84.8514 112.205 85.5033 112.631 85.966C113.056 86.4076 113.635 86.702 114.273 86.723ZM102.409 42.6465V89.6881C103.356 89.7932 104.283 89.8773 105.23 89.9614L106.988 90.1297L108.708 90.2559L110.331 90.361H110.524C110.582 90.34 110.582 90.3189 110.64 90.2979L110.698 90.2348L110.756 90.1507L110.814 90.0455L110.872 89.8773C110.853 89.2465 110.853 88.6156 110.853 88.0057L110.814 87.9427C110.35 87.459 109.983 86.8492 109.732 86.1973C109.481 85.5664 109.346 84.8725 109.346 84.1364V47.4201C109.346 46.6841 109.481 45.9901 109.732 45.3592C109.983 44.7073 110.35 44.0975 110.814 43.6139L110.853 43.5507C110.853 43.2563 110.853 42.9409 110.872 42.6465L110.834 42.4993L110.776 42.4152L110.718 42.3521L110.66 42.289L110.582 42.247C110.486 42.2049 110.37 42.2049 110.273 42.2049C107.645 42.3311 105.037 42.4783 102.409 42.6465ZM24.7906 33.2466C25.9886 34.1298 27.5344 34.95 29.3701 35.707C31.3989 36.5271 33.7756 37.2631 36.4228 37.915C39.9395 38.7772 43.9585 39.4712 48.2868 39.9338C52.4797 40.3754 57.0012 40.6277 61.6965 40.6277C66.4305 40.6277 70.9906 40.3754 75.2416 39.9128C79.6084 39.4501 83.6468 38.7351 87.1829 37.873C89.7721 37.2211 92.1101 36.485 94.1003 35.6649C95.9166 34.9289 97.4237 34.1088 98.6024 33.2676V31.3961C96.0519 33.2887 92.6125 34.6345 89.6561 35.5177C85.9849 36.6323 81.618 37.5365 76.768 38.1463C72.1113 38.7352 67.0295 39.0716 61.6965 39.0716C56.3635 39.0716 51.2624 38.7352 46.6057 38.1463C41.7751 37.5365 37.4082 36.6323 33.7369 35.5177C30.7613 34.6135 27.3412 33.3097 24.7906 31.3961V33.2466ZM98.6024 36.3168C97.3851 37.0529 95.9746 37.7258 94.3901 38.3566C92.4192 39.1347 90.1778 39.8286 87.7046 40.4385C84.0719 41.3427 79.9369 42.0577 75.4734 42.5414C71.1259 43.004 66.4885 43.2563 61.6965 43.2563C56.9432 43.2563 52.3445 43.0251 48.0356 42.5624C43.6107 42.0788 39.5144 41.3848 35.8817 40.5016C33.3891 39.8917 31.0898 39.1768 29.0802 38.3777C27.4571 37.7468 26.008 37.0529 24.7906 36.3168V101.548C24.7906 102.957 26.8775 104.24 30.3362 105.376C34.4325 106.721 40.3259 107.752 46.9342 108.425C49.4268 108.677 52.016 108.866 54.6632 108.993C57.3297 109.119 60.0348 109.203 62.7206 109.203C65.4258 109.203 68.1309 109.14 70.7781 109.035C73.3866 108.908 75.9179 108.719 78.3332 108.467C84.497 107.836 89.888 106.869 93.5979 105.523C96.7281 104.387 98.6024 103.062 98.6024 101.548V36.3168ZM60.344 11.629L61.7545 11.65C64.2664 11.65 66.6624 11.5028 68.8458 11.2294C71.0873 10.935 73.1161 10.5354 74.7972 10.0097C76.2077 9.58915 77.3284 9.14755 78.1013 8.70595C78.681 8.34846 79.0095 8.07508 79.0095 7.88582V7.82274C78.9322 7.63348 78.623 7.38112 78.1206 7.08671C77.3477 6.64511 76.227 6.20352 74.8165 5.76192C73.1354 5.25723 71.1066 4.85766 68.8458 4.56326C66.6817 4.28988 64.2857 4.14269 61.7545 4.14269C59.2233 4.14269 56.8273 4.28988 54.6632 4.56326C52.4024 4.85766 50.3736 5.25723 48.6925 5.76192C47.282 6.20352 46.1613 6.64511 45.3884 7.08671C44.8087 7.44421 44.4802 7.71758 44.4802 7.90684C44.4802 8.07507 44.8087 8.36948 45.3884 8.70595C46.1613 9.14755 47.282 9.58917 48.6925 10.0308C50.161 10.4724 51.8807 10.8299 53.7936 11.1032C55.6486 11.3766 57.6775 11.5659 59.8223 11.629H60.344ZM59.9575 15.7716V17.6011C59.9575 18.0427 59.7836 18.4213 59.4938 18.7157C59.2233 18.968 58.8561 19.1362 58.4504 19.1362C58.0832 19.1362 57.7354 18.9891 57.4842 18.7577C57.3297 18.6316 57.2137 18.4633 57.1171 18.2741H56.9625V16.3394C56.9625 16.2343 56.9239 16.1501 56.8659 16.0871C56.7886 16.0029 56.6534 15.9609 56.5374 15.9609C56.4022 15.9609 56.2862 16.0029 56.209 16.0871C56.1317 16.1501 56.093 16.2343 56.093 16.3394V18.905C56.093 19.3255 55.9191 19.7251 55.6486 19.9984C55.3781 20.2508 55.011 20.419 54.6052 20.419C54.1994 20.419 53.8516 20.2508 53.5811 19.9984C53.2913 19.7251 53.1174 19.3255 53.1174 18.905V16.6338C53.1174 16.5497 53.0787 16.4446 53.0014 16.3815C52.9241 16.2974 52.8082 16.2553 52.6729 16.2553C52.557 16.2553 52.4411 16.2974 52.3445 16.3815C52.2865 16.4446 52.2478 16.5497 52.2478 16.6338V19.704C52.2478 20.1246 52.0739 20.5031 51.7841 20.7975C51.5136 21.0499 51.1465 21.2181 50.76 21.2181C50.3543 21.2181 49.9871 21.0499 49.7166 20.7975C49.4461 20.5242 49.2722 20.1246 49.2722 19.704V16.2974C49.2722 16.2132 49.2142 16.1291 49.1563 16.045C49.079 15.9819 48.963 15.9188 48.8278 15.9188C48.6925 15.9188 48.5766 15.9819 48.4993 16.045C48.4413 16.1291 48.3834 16.2132 48.3834 16.2974V18.4213C48.3834 18.7998 48.2868 19.2834 47.9583 19.662C47.7071 19.9353 47.34 20.1246 46.8376 20.1246C46.4318 20.1246 46.0647 19.9564 45.8135 19.683C45.5236 19.4096 45.3497 19.0311 45.3497 18.5895V15.2039C45.3497 15.0567 45.2918 14.9515 45.2145 14.8674C45.1372 14.7833 45.0406 14.7202 44.9053 14.7202C44.7894 14.7202 44.6928 14.7833 44.6155 14.8464C44.5382 14.9305 44.4802 15.0356 44.4802 15.1618C44.5575 16.5076 44.4802 18.253 44.4802 19.5779V20.1456C44.4802 20.4401 45.3691 20.8185 46.8376 21.2391C48.7505 21.7648 51.475 22.1854 54.5472 22.5009C55.7645 22.627 57.0398 22.7112 58.3344 22.7743C59.629 22.8373 60.9623 22.8794 62.2569 22.8794C63.5708 22.8794 64.9041 22.8584 66.1987 22.7953C67.4739 22.7322 68.7106 22.6481 69.8893 22.5219C72.7297 22.2275 75.2029 21.828 76.9226 21.3022C78.2366 20.9027 79.0288 20.5031 79.0288 20.1456V19.5779V12.7435C78.7003 12.9117 78.3525 13.0799 77.9854 13.2271C77.3284 13.5005 76.6135 13.7739 75.8213 14.0052C73.9663 14.573 71.7635 15.0356 69.3289 15.33C66.9716 15.6244 64.421 15.7927 61.7545 15.7927C61.3101 15.7927 60.7884 15.7927 60.228 15.7716H59.9575ZM24.8873 24.5617C24.8293 24.8351 24.7906 24.9402 24.7906 25.1926C24.7906 26.2019 25.6408 27.2534 27.2059 28.3048C28.9643 29.4614 31.5342 30.5549 34.761 31.5433C38.2391 32.5947 42.432 33.4569 47.0888 34.0457C51.5716 34.5925 56.4988 34.9079 61.6965 34.9079C66.8749 34.9079 71.8215 34.5925 76.3043 34.0457C80.961 33.4569 85.154 32.5947 88.632 31.5433C91.8396 30.5549 94.4288 29.4614 96.1871 28.3048C97.7329 27.2534 98.6024 26.2019 98.6024 25.1926L98.5831 24.9823L98.4865 24.5617C98.158 23.6154 97.1532 22.6481 95.5881 21.7228C93.8684 20.6924 91.4918 19.7251 88.632 18.8629C87.6659 18.5685 86.6418 18.2741 85.5791 18.0217C84.7096 17.8114 83.8014 17.6012 82.816 17.4119L82.8353 19.5779V20.1456C82.8353 21.9752 81.5407 23.3841 79.3766 24.4566C77.1352 25.5501 73.9083 26.265 70.2371 26.6436C68.9811 26.7697 67.6865 26.8539 66.3726 26.9169C65.0393 26.98 63.6481 27.0221 62.2569 27.0221C60.885 27.0221 59.4938 26.98 58.1605 26.9169C56.808 26.8539 55.494 26.7487 54.1994 26.6225C50.3156 26.223 46.8376 25.487 44.4029 24.3724C42.0842 23.321 40.6737 21.9121 40.6737 20.1456V19.5779V17.3909C39.6883 17.5801 38.7608 17.7904 37.8719 18.0007C36.7899 18.2741 35.7465 18.5475 34.761 18.8629C31.9013 19.7251 29.544 20.6924 27.8243 21.7018C26.2398 22.6481 25.2157 23.6154 24.8873 24.5617Z" fill="#FFCC00"/>
</svg>
